<?xml version="1.0" encoding="UTF-8"?>
<!-- Generated by Pixelmator Pro 3.6.14 -->
<svg width="637" height="393" viewBox="0 0 637 393" xmlns="http://www.w3.org/2000/svg">
    <g id="Group">
        <path id="Rounded-Rectangle" fill="#ffffff" fill-rule="evenodd" stroke="#132b49" stroke-width="10" stroke-linecap="round" stroke-linejoin="round" d="M 5 348 C 5 370.0914 22.908609 388 45 388 L 592 388 C 614.09137 388 632 370.0914 632 348 L 632 45 C 632 22.9086 614.09137 5 592 5 L 45 5 C 22.908609 5 5 22.9086 5 45 Z"/>
        <path id="CAR-LAW" fill="#0b2135" fill-rule="evenodd" stroke="none" d="M 498.142395 167.528015 L 506.844788 320.648804 C 507.052002 323.342407 508.709595 325 511.403198 325 L 518.862427 325 C 521.141602 325 523.006409 323.549591 523.420776 321.270386 L 530.051208 288.73999 C 531.294373 282.316772 532.744812 279.001587 534.402405 279.001587 C 535.852783 279.001587 537.510376 282.316772 538.960815 288.73999 L 545.591187 321.270386 C 546.005615 323.549591 547.870422 325 550.149597 325 L 557.401611 325 C 560.095215 325 561.752808 323.342407 561.960022 320.648804 L 570.869629 167.528015 C 570.869629 164.627197 569.211975 162.76239 566.311218 162.76239 L 560.302429 162.76239 C 557.401611 162.76239 555.951172 164.419983 555.744019 167.113586 L 550.564026 250.200806 C 550.149597 258.074402 549.113586 262.01123 547.663208 262.01123 C 546.419983 262.01123 544.76239 258.281616 543.104797 250.822388 L 537.71759 228.030396 C 537.303223 226.580017 536.059998 225.544006 534.609619 225.544006 C 532.952026 225.544006 531.708801 226.580017 531.294373 228.030396 L 525.907227 250.822388 C 524.042419 258.281616 522.384827 262.01123 520.934387 262.01123 C 519.691162 262.01123 518.447998 258.074402 518.033569 250.200806 L 513.060791 167.113586 C 512.853638 164.419983 511.196045 162.76239 508.502441 162.76239 L 502.700806 162.76239 C 499.799988 162.76239 498.142395 164.627197 498.142395 167.528015 Z M 479.287231 325 L 484.674438 325 C 487.575195 325 489.232788 323.342407 489.232788 320.648804 C 489.232788 320.441589 489.232788 320.234406 488.611206 315.883209 L 466.026367 166.699219 C 465.612 164.212769 463.747192 162.76239 461.468018 162.76239 L 449.450439 162.76239 C 447.171204 162.76239 445.306396 164.212769 444.891968 166.699219 L 422.099976 315.883209 C 421.478394 320.234406 421.478394 320.441589 421.478394 320.648804 C 421.478394 323.342407 423.135986 325 426.036804 325 L 431.631226 325 C 433.9104 325 435.775208 323.342407 436.189575 321.063202 L 440.333618 291.226379 C 440.747986 288.947205 442.612793 287.289612 444.891968 287.289612 L 465.612 287.289612 C 467.891235 287.289612 469.755981 288.73999 470.17041 291.226379 L 474.72876 321.063202 C 475.143188 323.549591 477.007996 325 479.287231 325 Z M 459.810425 222.436035 L 465.819214 262.425598 C 466.233643 264.911987 466.440796 266.984009 466.440796 268.02002 C 466.440796 270.713623 464.575989 271.956787 461.882385 271.956787 L 448.621582 271.956787 C 445.927979 271.956787 444.270386 270.506409 444.270386 268.02002 C 444.270386 266.984009 444.4776 264.911987 444.891968 262.425598 L 450.693604 222.436035 C 452.144043 213.319214 453.59436 208.760803 455.252014 208.760803 C 456.909607 208.760803 458.359985 213.319214 459.810425 222.436035 Z M 404.488037 309.667206 L 365.948792 309.667206 C 363.255188 309.667206 361.390381 307.802399 361.390381 305.108795 L 361.390381 167.320801 C 361.390381 164.627197 359.525635 162.76239 356.832031 162.76239 L 350.408813 162.76239 C 347.71521 162.76239 345.850403 164.627197 345.850403 167.320801 L 345.850403 320.441589 C 345.850403 323.135193 347.71521 325 350.408813 325 L 404.488037 325 C 407.181641 325 409.046387 323.135193 409.046387 320.441589 L 409.046387 314.225586 C 409.046387 311.531982 407.181641 309.667206 404.488037 309.667206 Z M 242.250397 320.441589 L 242.250397 254.552002 C 242.250397 251.858398 244.115204 249.993591 246.808807 249.993591 L 253.853607 249.993591 C 256.132813 249.993591 257.99762 251.44397 258.411987 253.515991 L 273.330414 321.4776 C 273.744812 323.549591 275.609589 325 277.888794 325 L 284.519165 325 C 287.627197 325 289.077637 323.342407 289.077637 320.648804 C 289.077637 319.820007 288.663208 317.333618 287.627197 313.189606 L 273.537598 252.687195 C 273.330414 251.236816 273.123199 250.200806 273.123199 249.164795 C 273.123199 247.299988 273.537598 245.849609 275.19519 244.813599 C 283.068787 239.426392 288.870361 229.480835 288.870361 215.184021 L 288.870361 197.572021 C 288.870361 174.572815 273.537598 162.76239 258.204803 162.76239 L 231.268799 162.76239 C 228.575195 162.76239 226.710388 164.627197 226.710388 167.320801 L 226.710388 320.441589 C 226.710388 323.135193 228.575195 325 231.268799 325 L 237.692017 325 C 240.38562 325 242.250397 323.135193 242.250397 320.441589 Z M 258.204803 178.095215 C 266.700012 178.095215 273.537598 184.311218 273.537598 196.121582 L 273.537598 216.634399 C 273.537598 228.444824 266.700012 234.660767 258.204803 234.660767 L 246.808807 234.660767 C 244.115204 234.660767 242.250397 232.796021 242.250397 230.102417 L 242.250397 182.653564 C 242.250397 179.960022 244.115204 178.095215 246.808807 178.095215 Z M 203.0896 325 L 208.476807 325 C 211.377594 325 213.035217 323.342407 213.035217 320.648804 C 213.035217 320.441589 213.035217 320.234406 212.413605 315.883209 L 189.828796 166.699219 C 189.414398 164.212769 187.549622 162.76239 185.270386 162.76239 L 173.252808 162.76239 C 170.973602 162.76239 169.108795 164.212769 168.694397 166.699219 L 145.902405 315.883209 C 145.280823 320.234406 145.280823 320.441589 145.280823 320.648804 C 145.280823 323.342407 146.938416 325 149.839203 325 L 155.433594 325 C 157.712799 325 159.577606 323.342407 159.992004 321.063202 L 164.135986 291.226379 C 164.550415 288.947205 166.415222 287.289612 168.694397 287.289612 L 189.414398 287.289612 C 191.693604 287.289612 193.558411 288.73999 193.972778 291.226379 L 198.531189 321.063202 C 198.945618 323.549591 200.810394 325 203.0896 325 Z M 183.612793 222.436035 L 189.621582 262.425598 C 190.036011 264.911987 190.243195 266.984009 190.243195 268.02002 C 190.243195 270.713623 188.378418 271.956787 185.684814 271.956787 L 172.424011 271.956787 C 169.730408 271.956787 168.072815 270.506409 168.072815 268.02002 C 168.072815 266.984009 168.279999 264.911987 168.694397 262.425598 L 174.496002 222.436035 C 175.946411 213.319214 177.39679 208.760803 179.054382 208.760803 C 180.712006 208.760803 182.162415 213.319214 183.612793 222.436035 Z M 71.724792 291.640808 C 71.724792 314.640015 87.264801 326.450409 102.390411 326.450409 C 117.723206 326.450409 133.056 314.640015 133.056 291.640808 L 133.056 285.010376 C 133.056 282.316772 131.191193 280.452026 128.497589 280.452026 L 122.695984 280.452026 C 120.002411 280.452026 118.137604 282.316772 118.137604 285.010376 L 118.137604 293.091187 C 118.137604 304.901611 111.092804 311.117615 102.80481 311.117615 C 94.102417 311.117615 87.264801 304.901611 87.264801 293.091187 L 87.264801 194.878418 C 87.264801 182.860779 94.102417 176.644775 102.80481 176.644775 C 111.092804 176.644775 118.137604 182.860779 118.137604 194.878418 L 118.137604 200.472778 C 118.137604 203.166382 120.002411 205.031189 122.695984 205.031189 L 128.704803 205.031189 C 131.191193 205.031189 133.056 203.166382 133.056 200.472778 L 133.056 196.121582 C 133.056 173.32959 117.723206 161.312012 102.390411 161.312012 C 87.264801 161.312012 71.724792 173.32959 71.724792 196.121582 Z"/>
        <path id="path1" fill="none" stroke="#132b49" stroke-width="10" stroke-linecap="round" stroke-linejoin="round" d="M 29 325 C 29 347.0914 46.908607 365 69 365 L 567 365 C 589.09137 365 607 347.0914 607 325 L 607 69 C 607 46.9086 589.09137 29 567 29 L 69 29 C 46.908607 29 29 46.9086 29 69 Z"/>
        <path id="California" fill="#ce0106" fill-rule="evenodd" stroke="none" d="M 352.156372 91.105469 L 351.394653 91.308594 L 350.785278 92.019531 C 349.972778 92.290344 349.219604 92.806641 348.525513 93.568359 C 347.831543 94.330078 347.222168 94.820984 346.697388 95.041016 C 346.172668 95.261047 345.84259 95.540344 345.707153 95.878906 C 345.571777 96.217468 345.233276 96.420593 344.691528 96.488281 C 344.149902 96.555969 343.295044 97.08075 342.127075 98.0625 C 340.959106 99.04425 340.375122 100.364563 340.375122 102.023438 C 340.375122 102.835938 340.629028 103.242188 341.136841 103.242188 C 342.01709 103.242188 342.617981 103.022156 342.939575 102.582031 C 343.26123 102.141907 343.557434 101.820313 343.828247 101.617188 L 344.843872 101.363281 C 345.419434 101.092468 345.774902 100.957031 345.910278 100.957031 C 346.316528 100.415344 346.722778 99.941406 347.129028 99.535156 C 347.636841 99.535156 348.026184 99.348938 348.296997 98.976563 C 348.567871 98.604187 348.737122 98.401062 348.80481 98.367188 C 349.85437 98.096375 350.480591 97.927063 350.683716 97.859375 C 350.886841 97.791687 351.12384 97.436218 351.394653 96.792969 L 352.257935 96.386719 C 352.664185 95.845032 353.146606 95.447266 353.7052 95.193359 C 354.263794 94.939453 354.627747 94.727844 354.796997 94.558594 C 354.966309 94.389343 355.414856 94.135437 356.1427 93.796875 C 356.870605 93.458313 357.33606 93.111328 357.539185 92.755859 C 357.74231 92.400391 357.928528 92.222656 358.097778 92.222656 C 358.978027 92.222656 359.418091 92.713562 359.418091 93.695313 C 359.418091 93.83075 359.282715 94.135437 359.011841 94.609375 C 358.808716 94.677063 358.639465 94.939453 358.504028 95.396484 C 358.368652 95.853516 358.26709 96.115906 358.199341 96.183594 L 357.539185 97.097656 C 357.33606 97.740906 357.04834 98.282532 356.675903 98.722656 C 356.303528 99.162781 355.626465 100.364563 354.644653 102.328125 C 354.441528 103.208313 354.179199 103.843079 353.857544 104.232422 C 353.53595 104.621765 353.341309 104.985657 353.27356 105.324219 C 353.205872 105.662781 353.036621 106.179016 352.765747 106.873047 C 352.494934 107.567078 352.359497 108.726563 352.359497 110.351563 C 352.359497 110.622375 352.545715 111.104797 352.918091 111.798828 C 353.290527 112.492859 353.595215 113.178406 353.832153 113.855469 C 354.069153 114.532532 354.788574 115.209656 355.990356 115.886719 C 357.192261 116.563782 357.810059 116.902344 357.843872 116.902344 L 359.316528 116.800781 L 360.129028 116.546875 C 360.230591 116.546875 360.484497 116.665344 360.890747 116.902344 L 362.109497 116.242188 L 363.582153 115.9375 C 365.376465 114.684875 366.459778 114.058594 366.832153 114.058594 C 367.373901 114.058594 367.644653 113.821594 367.644653 113.347656 L 367.644653 113.246094 L 367.339966 112.738281 C 367.339966 112.433594 367.543091 112.28125 367.949341 112.28125 L 368.152466 112.28125 L 368.457153 112.382813 C 368.524902 112.382813 368.778809 112.247375 369.218872 111.976563 L 369.421997 111.46875 C 369.489746 110.994812 369.625122 110.757813 369.828247 110.757813 C 369.895996 110.757813 370.031372 110.8255 370.234497 110.960938 C 370.437622 111.096375 370.573059 111.164063 370.640747 111.164063 C 370.776184 111.164063 371.038574 110.952454 371.427856 110.529297 C 371.531128 110.417053 372.301392 109.211487 373.178894 108.107361 C 374.021912 107.04657 374.825073 106.031921 374.825073 106.031921 C 374.825073 106.031921 376.058899 103.767639 376.156372 103.410156 C 376.69812 103.274719 377.019653 102.995422 377.121216 102.572266 C 377.222778 102.149109 377.400513 101.802063 377.654419 101.53125 C 377.72703 101.453796 377.789266 101.381877 377.841125 101.315491 C 377.932861 101.246857 378.0224 101.195068 378.10968 101.160156 C 378.448242 101.024719 379.32843 100.432312 380.750305 99.382813 L 381.562805 99.535156 C 382.206055 98.621094 382.713867 98.130188 383.086243 98.0625 C 383.458618 97.994812 384.067993 97.571594 384.914368 96.792969 L 385.01593 96.996094 C 385.01593 97.131531 384.787415 97.563171 384.330383 98.291016 C 383.873352 99.01886 383.62793 99.54364 383.594055 99.865234 C 383.560181 100.186829 383.458618 100.432312 383.289368 100.601563 C 383.120117 100.770813 383.035461 100.957031 383.035461 101.160156 C 383.035461 101.871094 382.967773 102.226563 382.832336 102.226563 L 382.17218 102.226563 C 382.036743 102.29425 381.76593 102.607422 381.35968 103.166016 C 380.95343 103.724609 380.555664 104.096985 380.166321 104.283203 C 379.776978 104.469421 379.582336 104.782532 379.582336 105.222656 L 379.582336 105.628906 L 379.480774 105.832031 C 378.025024 106.170593 377.29718 108.21875 377.29718 111.976563 C 377.29718 112.484375 377.525696 113.102234 377.982727 113.830078 C 378.439758 114.557922 378.854492 114.972656 379.226868 115.074219 C 379.599243 115.175781 379.912415 115.29425 380.166321 115.429688 C 380.420227 115.565125 380.614868 115.632813 380.750305 115.632813 C 381.054993 115.632813 381.427368 115.175781 381.867493 114.261719 C 382.17218 114.160156 382.527649 113.914734 382.933899 113.525391 C 383.340149 113.136047 383.577148 112.941406 383.644836 112.941406 L 384.152649 112.941406 L 384.355774 112.738281 C 384.525024 112.264343 384.643555 112.010437 384.711243 111.976563 C 385.591431 111.875 386.133118 111.604187 386.336243 111.164063 C 386.539368 110.046875 386.860962 109.488281 387.301086 109.488281 C 387.368774 109.488281 387.673462 109.691406 388.215149 110.097656 C 388.858398 109.352844 389.213867 108.980469 389.281555 108.980469 C 389.89093 108.574219 390.195618 108.303406 390.195618 108.167969 C 390.195618 107.389343 390.424133 106.957703 390.881165 106.873047 C 391.338196 106.788391 392.074524 106.289063 393.090149 105.375 C 394.105774 104.460938 395.248352 103.48761 396.517883 102.455078 C 397.787415 101.422546 398.42218 100.855469 398.42218 100.753906 C 398.82843 100.483093 399.099243 100.279968 399.23468 100.144531 L 399.64093 99.839844 C 400.216431 99.670593 400.605774 99.484375 400.808899 99.28125 C 401.215149 99.28125 401.604492 99.13739 401.976868 98.849609 C 402.349243 98.561829 402.992493 98.197937 403.906555 97.757813 L 404.262024 97.65625 C 404.668274 97.283875 405.006836 97.097656 405.277649 97.097656 C 405.887024 97.097656 406.191711 97.453125 406.191711 98.164063 L 406.090149 99.382813 L 406.293274 100.652344 L 405.988586 103.140625 C 405.988586 103.276062 406.039368 103.470703 406.14093 103.724609 C 406.242493 103.978516 406.293274 104.173157 406.293274 104.308594 C 406.293274 104.444031 406.157837 104.647156 405.887024 104.917969 C 406.090149 105.391907 406.191711 105.78125 406.191711 106.085938 C 406.191711 106.627625 406.28479 107.084656 406.471008 107.457031 C 406.657227 107.829407 406.750305 108.066406 406.750305 108.167969 L 406.750305 108.269531 C 406.445618 108.878906 406.293274 109.217468 406.293274 109.285156 C 406.293274 109.352844 406.369446 109.547546 406.52179 109.869141 C 406.674133 110.190735 406.750305 110.41925 406.750305 110.554688 C 406.817993 110.89325 407.21582 111.61261 407.943665 112.712891 C 408.671509 113.813171 409.272461 114.439453 409.746399 114.591797 C 410.220337 114.744141 410.685852 114.95575 411.142883 115.226563 C 411.599915 115.497375 411.963867 115.632813 412.23468 115.632813 L 413.199524 115.429688 L 414.621399 115.632813 C 414.824524 115.632813 415.044556 115.53125 415.281555 115.328125 L 415.992493 114.820313 C 417.143555 114.210938 417.837524 113.584656 418.074524 112.941406 L 418.480774 112.738281 L 419.293274 112.738281 C 419.597961 112.501282 419.750305 112.145813 419.750305 111.671875 L 421.730774 109.996094 C 422.001587 109.725281 422.306274 109.488281 422.644836 109.285156 L 424.01593 108.574219 L 426.605774 105.832031 C 427.485962 104.917969 428.137695 104.223938 428.560852 103.75 C 428.650787 103.649292 428.73114 103.545502 428.801971 103.43866 C 428.925415 103.530701 429.022766 103.549988 429.078613 103.46875 C 429.146301 102.723938 429.349426 102.351563 429.687988 102.351563 L 429.891113 102.351563 L 430.55127 102.65625 L 430.95752 102.554688 C 431.228333 102.114563 431.516113 101.860657 431.820801 101.792969 C 432.125488 101.725281 434.277832 96.623718 434.277832 96.488281 C 434.58252 96.149719 434.768677 95.980469 434.836426 95.980469 L 435.750488 96.285156 C 436.461426 95.743469 436.884583 95.472656 437.02002 95.472656 C 437.42627 95.472656 437.629395 95.675781 437.629395 96.082031 C 437.629395 96.183594 437.477051 96.488281 437.172363 96.996094 C 436.867676 97.503906 436.689941 97.986328 436.63916 98.443359 C 436.588379 98.900391 436.427551 99.264343 436.156738 99.535156 L 435.648926 100.246094 L 435.445801 101.160156 C 435.242676 101.803406 435.107239 102.260437 435.039551 102.53125 C 434.836426 102.666687 434.667114 102.9375 434.531738 103.34375 L 434.277832 104.613281 C 434.210083 104.884094 434.142395 105.23114 434.074707 105.654297 C 434.006958 106.077454 433.905396 106.407532 433.77002 106.644531 C 433.634583 106.881531 433.566895 107.457031 433.566895 108.371094 L 433.668457 108.675781 L 433.566895 109.386719 C 433.566895 109.454407 433.668457 109.767578 433.871582 110.326172 C 434.074707 110.884766 434.17627 111.23175 434.17627 111.367188 L 434.074707 112.078125 L 434.074707 112.382813 C 434.074707 113.161438 434.48938 113.897766 435.318848 114.591797 C 436.148254 115.285828 436.850708 115.632813 437.42627 115.632813 L 438.441895 115.328125 L 439.203613 115.429688 C 439.406738 115.429688 439.677551 115.251953 440.016113 114.896484 C 440.354614 114.541016 440.752441 114.346375 441.209473 114.3125 C 441.666504 114.278625 441.996582 114.194031 442.199707 114.058594 L 443.11377 113.550781 C 443.553833 113.212219 444.053223 112.932922 444.611816 112.712891 C 445.17041 112.492859 445.483521 112.348938 445.55127 112.28125 L 445.855957 111.773438 L 448.039551 110.199219 C 448.445801 109.928406 448.962036 109.479797 449.588379 108.853516 C 450.214661 108.227234 450.976379 107.609375 451.873535 107 C 452.77063 106.390625 453.320801 105.92511 453.523926 105.603516 C 453.533447 105.58847 453.54306 105.573486 453.552826 105.558533 L 453.629517 106.59375 C 452.986328 106.59375 452.664673 106.796875 452.664673 107.203125 L 452.766235 108.878906 L 452.766235 109.183594 C 452.698547 109.319031 452.664673 109.589844 452.664673 109.996094 C 452.664673 110.842468 452.817017 111.502625 453.121704 111.976563 L 453.629517 114.058594 C 453.731079 114.769531 454.391235 115.378906 455.609985 115.886719 C 456.828735 116.394531 457.895142 116.648438 458.809204 116.648438 C 459.926392 116.648438 461.839111 115.751343 464.547485 113.957031 L 464.852173 113.652344 C 465.630859 113.246094 466.223267 112.907532 466.629517 112.636719 L 470.488892 109.488281 C 470.962891 109.149719 471.352173 108.718079 471.65686 108.193359 C 471.961548 107.66864 472.147766 107.372375 472.215454 107.304688 L 473.180298 107.40625 L 473.68811 106.898438 C 473.857422 106.661438 474.162109 106.466797 474.602173 106.314453 C 475.042297 106.162109 475.296204 105.967468 475.363892 105.730469 L 475.567017 105.425781 C 475.973267 105.154968 476.311829 104.850281 476.582642 104.511719 C 476.751953 103.868469 476.971985 103.445313 477.242798 103.242188 C 477.716797 103.242188 478.13147 103.072937 478.486938 102.734375 C 478.842407 102.395813 479.087891 102.226563 479.223267 102.226563 C 479.358704 102.226563 479.426392 102.328125 479.426392 102.53125 L 479.121704 105.019531 C 479.121704 105.154968 479.155579 105.324219 479.223267 105.527344 C 479.291016 105.730469 479.324829 105.916687 479.324829 106.085938 C 479.324829 106.221375 479.291016 106.322937 479.223267 106.390625 C 479.155579 106.458313 479.121704 106.559875 479.121704 106.695313 C 479.121704 106.83075 479.20636 107 479.37561 107.203125 C 479.544922 107.40625 479.629517 107.5755 479.629517 107.710938 L 479.426392 108.675781 C 479.426392 109.352844 479.578735 109.886047 479.883423 110.275391 C 480.18811 110.664734 480.357422 110.977844 480.391235 111.214844 C 480.42511 111.451843 480.543579 111.671875 480.746704 111.875 C 481.322266 111.942688 481.880859 112.103516 482.422485 112.357422 C 482.964172 112.611328 483.556641 112.738281 484.199829 112.738281 C 484.335266 112.738281 484.580688 112.645203 484.936157 112.458984 C 485.291626 112.272766 485.833313 112.078125 486.561157 111.875 C 487.289063 111.671875 487.822266 111.401062 488.160767 111.0625 L 488.262329 110.554688 C 488.736328 110.41925 489.142578 110.266907 489.481079 110.097656 C 490.022766 109.488281 490.522095 109.149719 490.979126 109.082031 C 491.436157 109.014343 491.791626 108.709656 492.045532 108.167969 C 492.299438 107.626282 492.798828 107.237 493.543579 107 L 494.051392 106.289063 C 494.694641 105.848938 495.092407 105.476563 495.244751 105.171875 C 495.397095 104.867188 495.727173 104.579407 496.234985 104.308594 L 496.590454 103.648438 L 496.793579 102.226563 C 497.470703 101.041687 497.809204 99.890625 497.809204 98.773438 C 497.809204 98.570313 497.673828 98.2995 497.402954 97.960938 C 497.132141 97.622375 496.895142 97.453125 496.692017 97.453125 C 496.116516 97.453125 495.557922 97.867859 495.016235 98.697266 C 494.474609 99.526672 493.890625 100.076843 493.264282 100.347656 C 492.638 100.618469 492.274048 100.982422 492.172485 101.439453 C 492.070923 101.896484 491.766235 102.125 491.258423 102.125 L 490.445923 102.835938 C 490.039673 103.1745 489.684204 103.597656 489.379517 104.105469 L 488.871704 104.308594 C 488.668579 104.376282 488.321594 104.723328 487.830688 105.349609 C 487.339844 105.975891 486.552734 106.4245 485.46936 106.695313 C 485.232422 106.492188 485.113892 106.069031 485.113892 105.425781 L 485.317017 104.003906 L 485.215454 102.734375 C 485.215454 102.463562 485.359375 102.150391 485.647095 101.794922 C 485.934875 101.439453 486.078735 101.160156 486.078735 100.957031 L 486.078735 100.855469 L 486.789673 98.773438 C 486.857422 98.434875 486.958984 98.130188 487.09436 97.859375 C 489.057922 95.895813 490.039673 93.813843 490.039673 91.613281 C 490.039673 89.751282 489.311829 88.820313 487.856079 88.820313 C 485.824829 88.820313 484.496094 89.438171 483.869751 90.673828 C 483.243469 91.909485 482.761047 92.527344 482.422485 92.527344 C 482.151672 92.527344 481.982422 92.222656 481.914673 91.613281 C 481.711548 88.701782 480.560547 87.246094 478.461548 87.246094 C 478.258423 87.246094 478.089172 87.279968 477.953735 87.347656 L 477.141235 87.753906 L 477.039673 87.753906 C 476.53186 87.483093 476.210266 87.347656 476.074829 87.347656 L 475.770142 87.347656 C 474.111328 88.194031 473.214172 88.617188 473.078735 88.617188 L 472.672485 88.617188 C 472.232422 88.617188 471.63147 88.837219 470.869751 89.277344 C 470.108032 89.717468 469.329407 90.08136 468.533813 90.369141 C 467.738281 90.656921 467.027344 91.105469 466.401001 91.714844 C 465.774719 92.324219 465.359985 92.662781 465.15686 92.730469 C 463.76886 93.441406 462.482422 94.389343 461.297485 95.574219 L 459.774048 97.097656 C 458.927734 97.673157 458.352173 98.197937 458.047485 98.671875 C 457.742798 99.145813 457.336548 99.611328 456.828735 100.068359 C 456.517944 100.348053 456.308624 100.618256 456.200714 100.878937 C 456.312012 100.513977 456.367676 100.099915 456.367676 99.636719 C 456.367676 98.993469 456.11377 98.671875 455.605957 98.671875 C 455.131958 98.671875 454.437988 99.128906 453.523926 100.042969 L 446.871582 105.121094 C 445.855957 105.527344 445.136536 105.857422 444.713379 106.111328 C 444.290161 106.365234 443.960083 106.526062 443.723145 106.59375 L 442.605957 107.710938 L 441.793457 107.609375 C 441.08252 107.609375 440.625488 107.710938 440.422363 107.914063 C 440.286926 107.846375 440.185364 107.778625 440.117676 107.710938 C 440.591614 107.473938 440.828613 107.16925 440.828613 106.796875 L 440.828613 104.714844 C 440.828613 104.511719 440.862427 104.410156 440.930176 104.410156 C 441.302551 104.071594 441.48877 103.817688 441.48877 103.648438 L 441.184082 102.429688 C 441.184082 102.226563 441.421021 101.95575 441.89502 101.617188 L 442.098145 100.550781 C 442.809082 100.415344 443.452271 98.891968 444.027832 95.980469 L 444.891113 92.019531 C 444.891113 91.105469 444.35791 90.149109 443.291504 89.150391 C 442.225098 88.151672 441.200989 87.652344 440.219238 87.652344 C 439.542114 87.652344 438.992004 87.863953 438.568848 88.287109 C 438.14563 88.710266 437.663208 89.057312 437.121582 89.328125 L 436.461426 89.632813 C 436.088989 90.1745 435.598145 90.639954 434.98877 91.029297 C 434.379395 91.41864 433.973145 92.816406 433.77002 93.222656 C 433.566895 93.154968 433.296021 93.121094 432.95752 93.121094 C 432.618958 93.121094 432.17041 93.400391 431.611816 93.958984 C 431.076721 94.49408 428.846283 98.489838 428.436279 98.91452 C 428.314331 98.952393 428.190277 99.017426 428.06424 99.10965 C 427.963593 99.170197 427.87854 99.235199 427.809082 99.304688 L 426.996582 99.914063 C 426.925262 99.937836 426.907684 100.035736 426.931213 100.184937 L 426.605774 100.347656 L 425.336243 101.464844 C 424.049805 102.243469 423.110352 102.802063 422.517883 103.140625 C 421.925415 103.479187 421.544556 103.970032 421.375305 104.613281 C 420.833618 105.019531 420.562805 105.510437 420.562805 106.085938 C 420.495117 106.153625 420.427368 106.1875 420.35968 106.1875 L 419.851868 105.984375 L 419.648743 105.984375 C 419.208618 105.984375 418.887024 106.255188 418.683899 106.796875 C 418.006836 107.473938 417.532837 107.880188 417.262024 108.015625 C 416.957336 108.591125 416.567993 108.946594 416.094055 109.082031 L 414.469055 109.539063 C 414.299805 109.539063 414.062805 109.166687 413.758118 108.421875 L 412.742493 106.289063 L 412.742493 105.832031 C 412.742493 105.561218 412.827148 105.391907 412.996399 105.324219 C 413.673462 104.714844 414.012024 103.614563 414.012024 102.023438 L 413.910461 101.058594 L 414.316711 98.265625 L 414.316711 98.0625 L 414.113586 96.691406 L 414.215149 95.777344 C 414.215149 94.930969 413.71582 93.813843 412.717102 92.425781 C 411.718384 91.03772 410.355835 90.34375 408.629211 90.34375 C 408.392212 90.34375 407.943665 90.470703 407.283508 90.724609 C 406.623352 90.978516 406.124023 91.15625 405.785461 91.257813 C 405.446899 91.359375 405.243774 91.444031 405.176086 91.511719 L 404.465149 91.917969 L 403.70343 92.121094 C 403.060181 92.628906 402.48468 92.933594 401.976868 93.035156 C 401.469055 93.136719 401.062805 93.35675 400.758118 93.695313 C 400.45343 94.033875 399.844055 94.40625 398.929993 94.8125 L 398.523743 95.574219 L 398.01593 95.980469 C 397.812805 96.183594 397.288086 96.4375 396.441711 96.742188 C 395.595337 97.046875 395.00293 97.605469 394.664368 98.417969 C 394.59668 98.587219 394.351196 98.790344 393.92804 99.027344 C 393.504883 99.264343 393.124023 99.526672 392.785461 99.814453 C 392.446899 100.102234 392.176086 100.246094 391.972961 100.246094 C 391.634399 100.246094 391.465149 100.110657 391.465149 99.839844 C 391.465149 99.535156 391.668274 99.078125 392.074524 98.46875 C 392.277649 97.622375 392.379211 96.962219 392.379211 96.488281 L 392.277649 95.117188 C 392.277649 94.304688 391.786743 93.212891 390.804993 91.841797 C 389.823242 90.470703 388.401367 89.785156 386.539368 89.785156 C 385.82843 89.785156 385.269836 90.259094 384.863586 91.207031 C 384.457336 92.154968 383.678711 92.848938 382.527649 93.289063 L 382.17218 93.796875 C 381.393555 93.83075 380.614868 94.135437 379.836243 94.710938 C 379.057617 95.286438 378.101196 95.88739 376.967102 96.513672 C 375.833008 97.139954 375.113586 97.910156 374.808899 98.824219 L 374.362854 100.034882 C 374.037903 100.182465 373.552409 100.511983 372.906372 101.023438 C 372.15802 101.77182 372.185791 102.555542 372.206696 103.144623 C 372.220764 103.541534 372.231689 103.850098 372 104 C 371.4245 104.372375 371.072388 105.23114 370.615356 105.654297 C 370.158325 106.077454 369.66748 106.390625 369.1427 106.59375 C 368.617981 106.796875 368.084839 107.126953 367.543091 107.583984 C 367.001465 108.041016 366.434448 108.371094 365.841919 108.574219 C 365.249512 108.777344 364.741699 109.014343 364.318481 109.285156 C 363.895325 109.555969 363.404419 109.759094 362.845825 109.894531 C 362.287231 110.029968 361.872559 110.207703 361.601685 110.427734 C 361.330872 110.647766 361.161621 110.757813 361.093872 110.757813 L 360.382935 110.554688 C 359.942871 110.757813 359.688965 110.859375 359.621216 110.859375 C 358.300903 110.859375 357.640747 110.605469 357.640747 110.097656 C 357.640747 109.894531 357.7677 109.623718 358.021606 109.285156 C 358.275513 108.946594 358.470215 108.565735 358.605591 108.142578 C 358.741028 107.719421 358.876465 107.440125 359.011841 107.304688 L 359.418091 106.695313 C 359.688965 106.119812 359.900513 105.730469 360.052856 105.527344 C 360.2052 105.324219 360.281372 105.188782 360.281372 105.121094 L 360.281372 104.207031 C 360.281372 103.936218 360.619934 103.682312 361.296997 103.445313 C 361.737183 102.835938 362.09259 102.226563 362.363403 101.617188 L 362.871216 101.261719 C 364.665527 98.959595 365.799622 97.690125 366.27356 97.453125 C 366.849121 96.539063 367.136841 95.625 367.136841 94.710938 C 367.136841 94.372375 366.891479 93.475281 366.400513 92.019531 C 365.909668 90.563782 365.528809 89.598938 365.257935 89.125 L 364.953247 88.363281 C 364.817871 85.891907 363.734497 84.65625 361.703247 84.65625 C 359.976685 84.65625 358.487183 85.282532 357.234497 86.535156 C 356.963684 86.873718 356.709778 87.110657 356.472778 87.246094 C 356.23584 87.381531 356.083496 87.516907 356.015747 87.652344 C 355.30481 88.532532 354.119995 89.463562 352.46106 90.445313 L 352.156372 91.105469 Z M 474.830688 101.134766 C 474.136719 101.524109 473.721985 102.091125 473.586548 102.835938 C 473.078735 103.072937 472.740234 103.309875 472.570923 103.546875 C 472.401672 103.783875 471.944641 104.071594 471.199829 104.410156 L 470.133423 105.222656 C 468.846985 105.933594 467.916016 106.458313 467.340454 106.796875 C 467.103516 107.16925 466.764954 107.465515 466.324829 107.685547 C 465.884766 107.905579 465.580078 108.108704 465.410767 108.294922 C 465.241516 108.48114 465.072266 108.591125 464.902954 108.625 C 464.733704 108.658875 464.58136 108.743469 464.445923 108.878906 L 463.481079 109.386719 C 463.074829 109.522156 462.804016 109.657532 462.668579 109.792969 C 462.533203 109.928406 462.033813 110.173828 461.170532 110.529297 C 460.307251 110.884766 459.740234 111.0625 459.46936 111.0625 C 458.826172 111.0625 458.504517 110.233093 458.504517 108.574219 C 458.504517 108.303406 458.699219 107.939453 459.088501 107.482422 C 459.477844 107.025391 459.70636 106.517578 459.774048 105.958984 C 459.841797 105.400391 460.078735 105.044922 460.484985 104.892578 C 460.891235 104.740234 461.229797 104.545593 461.50061 104.308594 L 461.856079 103.445313 C 461.856079 103.34375 462.296204 102.9375 463.176392 102.226563 C 463.413391 101.3125 463.93811 100.720032 464.75061 100.449219 C 466.104797 99.501282 466.900391 98.773438 467.137329 98.265625 C 467.543579 98.265625 468.186829 97.935547 469.067017 97.275391 C 469.947266 96.615234 470.9375 96.149719 472.03772 95.878906 C 473.138 95.608093 473.882813 95.36261 474.272095 95.142578 C 474.661438 94.922546 475.126953 94.8125 475.668579 94.8125 L 476.684204 95.015625 L 477.34436 94.914063 L 478.055298 95.269531 L 479.020142 95.167969 L 479.934204 95.269531 L 480.340454 95.015625 L 480.442017 95.015625 C 480.577454 95.015625 480.645142 95.066406 480.645142 95.167969 C 480.645142 95.438782 480.04425 96.183594 478.842407 97.402344 C 477.640625 98.621094 476.718079 99.467468 476.074829 99.941406 C 475.939453 100.347656 475.524719 100.745422 474.830688 101.134766 Z M 455.730194 101.867188 C 455.797302 101.735504 455.865906 101.609863 455.936035 101.490234 C 456.01767 101.350922 456.087769 101.201416 456.14624 101.041656 C 456.1185 101.150574 456.109009 101.257782 456.117798 101.363281 L 455.730194 101.867188 Z M 446.160645 70.996094 L 446.465332 72.976563 C 446.53302 73.484375 446.930786 74.068359 447.658691 74.728516 C 448.386536 75.388672 448.987427 75.71875 449.461426 75.71875 C 450.172363 75.71875 450.840942 75.473328 451.467285 74.982422 C 452.093567 74.491516 452.423645 73.916016 452.45752 73.255859 C 452.491333 72.595703 452.559082 72.147156 452.660645 71.910156 C 452.762207 71.673157 452.812988 71.520813 452.812988 71.453125 C 452.812988 70.742188 452.48291 69.921204 451.822754 68.990234 C 451.162598 68.059265 450.527832 67.526062 449.918457 67.390625 C 448.733521 67.796875 448.022583 68.016907 447.785645 68.050781 C 446.702271 68.220032 446.160645 69.10022 446.160645 70.691406 L 446.160645 70.996094 Z M 283.339691 128.429688 L 282.831879 129.546875 L 281.562347 133.609375 C 281.156097 133.947937 280.910645 134.388 280.826019 134.929688 C 280.741394 135.471375 280.597504 136.165344 280.394379 137.011719 C 280.191254 137.858093 279.988129 138.535156 279.785004 139.042969 C 279.548035 139.009094 279.243347 139.804688 278.870941 141.429688 L 278.769379 141.9375 C 278.430847 142.716125 278.134613 143.503235 277.880707 144.298828 C 277.626801 145.094421 277.432129 145.576843 277.296722 145.746094 C 277.161316 145.915344 277.059753 146.135437 276.992035 146.40625 L 276.687347 147.472656 C 276.416504 148.014343 276.281097 148.488281 276.281097 148.894531 L 276.281097 149.351563 C 276.348816 150.0625 276.416504 150.604187 276.484222 150.976563 C 276.890472 151.382813 277.093597 151.738281 277.093597 152.042969 C 277.093597 153.261719 277.449066 154.150391 278.160004 154.708984 C 278.870941 155.267578 279.243347 155.546875 279.277191 155.546875 C 279.548035 155.546875 280.03891 155.140625 280.749847 154.328125 C 281.223816 153.989563 281.78241 153.752625 282.425629 153.617188 C 283.373535 152.432312 284.067566 151.839844 284.50769 151.839844 L 284.710815 151.636719 C 284.981628 151.196594 285.252441 150.858093 285.523315 150.621094 C 285.794128 150.384094 285.980347 150.130188 286.081909 149.859375 C 286.183472 149.588562 286.301941 149.453125 286.437378 149.453125 L 286.589722 149.453125 C 286.792847 149.65625 286.928223 149.757813 286.995972 149.757813 C 287.943848 148.979187 288.57019 148.285156 288.874878 147.675781 L 289.687378 147.167969 C 289.890503 146.863281 290.220581 146.533203 290.677612 146.177734 C 291.134644 145.822266 291.600098 145.238281 292.074097 144.425781 L 292.480347 144.324219 C 292.75116 143.647156 293.03894 143.274719 293.343628 143.207031 L 293.648315 143.003906 C 294.054565 142.496094 294.452271 142.10675 294.841675 141.835938 C 295.230957 141.565125 295.493347 141.108093 295.628784 140.464844 C 296.17041 140.194031 296.703613 139.728516 297.228394 139.068359 C 297.753113 138.408203 298.167847 137.976563 298.472534 137.773438 C 298.777222 137.570313 298.929565 137.2995 298.929565 136.960938 L 298.828003 135.589844 L 298.929565 135.386719 C 299.369629 135.251282 300.097534 134.658875 301.113159 133.609375 C 301.587097 132.255188 302.044067 131.459656 302.484253 131.222656 L 302.687378 130.613281 L 302.687378 129.34375 C 302.755066 129.140625 302.983521 129.005188 303.372925 128.9375 C 303.762207 128.869812 303.956909 128.666687 303.956909 128.328125 L 303.956909 128.125 C 303.855347 127.48175 303.804565 127.092468 303.804565 126.957031 C 303.804565 126.753906 304.033081 126.423828 304.490112 125.966797 C 304.947144 125.509766 305.175659 124.519531 305.175659 122.996094 C 305.175659 120.930969 304.363159 118.772827 302.738159 116.521484 C 301.113159 114.270142 300.165222 113.246094 299.894409 113.449219 C 299.589722 113.042969 299.437378 112.772156 299.437378 112.636719 C 299.437378 112.332031 299.631958 112.010437 300.021362 111.671875 C 300.410645 111.333313 300.740723 111.164063 301.011597 111.164063 L 301.316284 111.164063 L 301.97644 110.554688 C 302.38269 110.41925 302.704285 110.190735 302.941284 109.869141 C 303.178223 109.547546 303.440552 109.319031 303.728394 109.183594 C 304.016113 109.048157 304.464722 108.743469 305.074097 108.269531 C 305.683472 107.795593 306.242065 107.473938 306.749878 107.304688 C 307.156128 106.695313 307.359253 106.35675 307.359253 106.289063 L 308.324097 106.390625 C 308.459473 106.322937 308.628784 106.1875 308.831909 105.984375 C 310.441528 104.659637 311.760437 103.613586 312.788696 102.846252 L 312.441406 104.003906 L 312.441406 105.628906 C 312.238281 106.069031 312.06897 106.35675 311.933594 106.492188 L 312.035156 107.609375 L 311.933594 108.574219 L 311.933594 108.777344 C 311.933594 109.386719 312.204468 110.233093 312.746094 111.316406 C 313.28772 112.399719 313.846313 113.144531 314.421875 113.550781 L 315.132813 114.160156 C 315.335938 114.464844 315.598267 114.701843 315.919922 114.871094 C 316.241577 115.040344 316.588501 115.345032 316.960938 115.785156 C 317.333374 116.225281 317.697266 116.462219 318.052734 116.496094 C 318.408203 116.529968 318.738281 116.690735 319.042969 116.978516 C 319.347656 117.266296 319.635376 117.410156 319.90625 117.410156 C 320.041626 117.410156 320.329468 117.308594 320.769531 117.105469 L 321.582031 117.207031 C 322.631531 117.207031 323.291626 117.080078 323.5625 116.826172 C 323.833374 116.572266 324.180298 116.428406 324.603516 116.394531 C 325.026733 116.360657 325.50061 116.208313 326.025391 115.9375 C 326.550171 115.666687 326.998657 115.480469 327.371094 115.378906 C 327.74353 115.277344 328.352905 114.904968 329.199219 114.261719 L 329.707031 114.363281 C 329.910156 114.363281 330.257202 114.058594 330.748047 113.449219 C 331.238892 112.839844 331.653687 112.535156 331.992188 112.535156 C 332.127563 112.535156 332.263062 112.602844 332.398438 112.738281 L 334.785156 110.65625 C 335.05603 110.520813 335.25061 110.360046 335.369141 110.173828 C 335.487671 109.98761 335.682251 109.809875 335.953125 109.640625 C 336.223999 109.471375 336.393188 109.2005 336.460938 108.828125 C 336.528687 108.45575 336.697876 108.134094 336.96875 107.863281 C 337.239624 107.592468 337.484985 107.211609 337.705078 106.720703 C 337.925171 106.229797 338.06897 105.933594 338.136719 105.832031 L 338.441406 105.425781 C 338.509155 105.222656 338.661499 105.053406 338.898438 104.917969 C 339.135376 104.782532 339.304688 104.494812 339.40625 104.054688 L 339.8125 102.632813 L 339.660156 101.617188 C 339.660156 101.515625 339.846313 101.295593 340.21875 100.957031 L 340.320313 100.550781 L 340.21875 96.386719 L 339.660156 94.609375 C 339.11853 93.796875 338.71228 93.136719 338.441406 92.628906 C 337.66272 92.358093 337.273438 92.154968 337.273438 92.019531 C 337.273438 91.951843 337.561157 91.494812 338.136719 90.648438 C 338.136719 89.632813 337.806641 88.938782 337.146484 88.566406 C 336.486328 88.194031 335.84314 87.897766 335.216797 87.677734 C 334.590454 87.457703 334.24353 87.313782 334.175781 87.246094 C 333.938843 87.110657 333.278687 86.890625 332.195313 86.585938 L 330.722656 86.078125 C 330.451782 86.078125 330.096313 86.205078 329.65625 86.458984 C 329.216187 86.712891 328.792969 86.899109 328.386719 87.017578 C 327.980469 87.136047 327.540405 87.271484 327.066406 87.423828 C 326.592407 87.576172 326.220093 87.652344 325.949219 87.652344 C 325.06897 87.652344 323.672546 88.134766 321.759766 89.099609 C 319.846985 90.064453 318.695923 90.775391 318.306641 91.232422 C 317.917358 91.689453 317.341797 92.036438 316.580078 92.273438 C 315.818359 92.510437 315.200562 92.815125 314.726563 93.1875 C 314.286499 93.932312 313.761719 94.372375 313.152344 94.507813 C 312.06897 95.252625 311.366577 95.88739 311.044922 96.412109 C 310.723267 96.936829 310.333984 97.258484 309.876953 97.376953 C 309.419922 97.495422 308.920532 97.952454 308.378906 98.748047 C 307.83728 99.54364 307.566406 100.076843 307.566406 100.347656 L 307.763092 101.167206 L 307.460815 101.363281 C 307.325378 101.600281 307.105347 101.769531 306.800659 101.871094 C 306.495972 101.972656 306.343628 102.192688 306.343628 102.53125 L 306.44519 103.34375 L 305.988159 103.546875 L 305.886597 103.546875 C 305.480347 103.276062 305.243347 103.140625 305.175659 103.140625 C 305.040222 103.140625 304.854004 103.284485 304.617065 103.572266 C 304.380066 103.860046 304.092285 104.020813 303.753784 104.054688 C 303.415161 104.088562 303.161316 104.342468 302.992065 104.816406 L 302.78894 104.917969 C 302.38269 105.053406 302.086426 105.264954 301.900269 105.552734 C 301.71405 105.840515 301.519409 105.984375 301.316284 105.984375 C 301.248535 105.984375 300.977722 105.899719 300.503784 105.730469 C 300.165161 106.102844 299.962097 106.289063 299.894409 106.289063 C 299.82666 106.153625 299.792847 106.052063 299.792847 105.984375 L 299.995972 104.765625 C 300.131348 103.783875 300.436035 103.149109 300.910034 102.861328 C 301.383972 102.573547 301.705566 102.006531 301.874878 101.160156 L 302.078003 100.144531 C 302.687378 99.061218 302.992065 98.502625 302.992065 98.46875 L 302.78894 97.351563 C 302.78894 96.809875 303.127441 96.488281 303.804565 96.386719 L 304.160034 95.980469 C 304.227722 95.506531 304.430786 94.95636 304.769409 94.330078 C 305.10791 93.703796 305.34491 93.001282 305.480347 92.222656 C 305.785034 91.951843 306.106567 91.401672 306.44519 90.572266 C 306.783691 89.742859 307.122192 89.023438 307.460815 88.414063 C 307.799316 87.804688 307.968628 87.246094 307.968628 86.738281 L 307.968628 86.535156 L 308.628784 85.570313 C 309.305847 85.2995 309.822144 84.622375 310.177612 83.539063 C 310.533081 82.45575 310.947754 81.677063 311.421753 81.203125 C 312.674316 80.458313 313.453003 79.54425 313.75769 78.460938 C 314.062378 77.377625 314.367065 76.683594 314.671753 76.378906 C 314.97644 76.074219 315.374146 75.473328 315.865112 74.576172 C 316.355957 73.679016 316.60144 73.145813 316.60144 72.976563 C 316.60144 72.908875 316.499878 72.671875 316.296753 72.265625 C 316.635254 72.0625 316.999146 71.580078 317.38855 70.818359 C 317.777832 70.056641 317.972534 69.608093 317.972534 69.472656 C 317.972534 69.404968 317.837097 69.311829 317.566284 69.193359 C 317.29541 69.07489 317.160034 68.914063 317.160034 68.710938 C 317.160034 68.507813 317.447754 68.304688 318.023315 68.101563 C 318.598816 67.898438 318.945801 67.483704 319.064331 66.857422 C 319.1828 66.23114 319.377441 65.190125 319.648315 63.734375 C 319.919128 62.278625 320.054565 61.415344 320.054565 61.144531 L 319.953003 59.671875 C 319.953003 59.130188 319.919128 58.698547 319.85144 58.376953 C 319.783691 58.055359 319.690613 57.445984 319.572144 56.548828 C 319.453613 55.651672 319.115112 54.85614 318.556519 54.162109 C 317.997925 53.468079 317.600098 53.121094 317.363159 53.121094 C 316.652222 53.121094 315.949707 53.400391 315.255737 53.958984 C 314.561646 54.517578 314.146973 55.076172 314.011597 55.634766 C 313.87616 56.193359 313.605347 56.726563 313.199097 57.234375 C 312.792847 57.742188 312.386597 58.673157 311.980347 60.027344 C 311.574097 61.381531 311.184753 62.126282 310.812378 62.261719 C 310.744629 63.141907 310.676941 63.666687 310.609253 63.835938 L 309.847534 64.445313 L 309.339722 66.121094 C 308.696411 67.170593 307.697754 69.743469 306.343628 73.839844 C 306.275879 74.246094 306.030457 74.880859 305.6073 75.744141 C 305.184082 76.607422 304.727051 77.995422 304.236206 79.908203 C 303.745239 81.820984 303.161316 83.082031 302.484253 83.691406 C 302.484253 84.436218 301.756348 85.959595 300.300659 88.261719 C 299.521973 88.972656 298.370972 90.089844 296.847534 91.613281 L 294.054565 94.761719 C 292.937378 96.048218 292.277222 96.691406 292.074097 96.691406 C 288.620911 99.535156 286.894409 101.3125 286.894409 102.023438 L 286.648682 103.716217 L 284.808289 105.121094 C 283.792664 105.527344 283.073242 105.857422 282.650085 106.111328 C 282.226898 106.365234 281.89682 106.526062 281.659851 106.59375 L 280.542664 107.710938 L 279.730164 107.609375 C 279.019226 107.609375 278.562195 107.710938 278.35907 107.914063 C 278.223633 107.846375 278.12207 107.778625 278.054382 107.710938 C 278.52832 107.473938 278.76532 107.16925 278.76532 106.796875 L 278.76532 104.714844 C 278.76532 104.511719 278.799164 104.410156 278.866882 104.410156 C 279.239258 104.071594 279.425476 103.817688 279.425476 103.648438 L 279.120789 102.429688 C 279.120789 102.226563 279.357758 101.95575 279.831726 101.617188 L 280.034851 100.550781 C 280.745789 100.415344 281.389008 98.891968 281.964539 95.980469 L 282.82782 92.019531 C 282.82782 91.105469 282.294617 90.149109 281.22821 89.150391 C 280.161804 88.151672 279.137695 87.652344 278.155945 87.652344 C 277.478851 87.652344 276.928711 87.863953 276.505554 88.287109 C 276.082367 88.710266 275.599945 89.057312 275.058289 89.328125 L 274.398132 89.632813 C 274.025726 90.1745 271.534851 93.639954 270.925476 94.029297 C 270.316101 94.41864 269.909851 94.816406 269.706726 95.222656 C 269.65744 95.206238 269.617126 95.470856 269.588684 95.880157 C 269.551127 95.910411 269.510986 95.943848 269.468262 95.980469 C 269.231323 96.183594 268.968933 96.352844 268.681152 96.488281 C 268.393433 96.623718 268.224121 96.903015 268.17334 97.326172 C 268.122559 97.749329 267.809448 98.23175 267.233887 98.773438 L 266.929199 98.773438 C 266.353699 98.773438 265.524292 99.755188 264.440918 101.71875 C 264.203979 101.854187 263.780762 101.95575 263.171387 102.023438 C 263.036011 102.158875 262.807495 102.556641 262.48584 103.216797 C 262.164246 103.876953 261.868042 104.207031 261.597168 104.207031 L 260.987793 104.207031 C 260.784668 104.410156 260.615417 104.545593 260.47998 104.613281 C 260.47998 105.798157 260.226074 106.390625 259.718262 106.390625 L 259.210449 106.390625 C 259.075073 106.390625 258.888855 106.509094 258.651855 106.746094 C 258.414917 106.983093 258.152527 107.135437 257.864746 107.203125 C 257.577026 107.270813 257.331543 107.473938 257.128418 107.8125 L 257.128418 108.472656 C 257.128418 109.014343 256.959167 109.285156 256.620605 109.285156 C 256.41748 109.285156 256.146667 109.217468 255.808105 109.082031 C 255.808105 109.014343 255.774292 108.980469 255.706543 108.980469 L 253.827637 109.996094 C 253.049011 110.503906 252.625854 110.757813 252.558105 110.757813 L 251.339355 110.554688 C 250.696136 110.554688 250.289917 109.996094 250.120605 108.878906 L 249.866699 107.507813 L 249.968262 106.390625 C 249.968262 106.1875 249.832886 105.832031 249.562012 105.324219 C 250.103699 103.360657 250.374512 102.29425 250.374512 102.125 L 250.171387 100.753906 C 250.543823 100.178406 250.780762 99.653625 250.882324 99.179688 L 250.983887 99.179688 C 252.101105 99.6875 252.947449 99.941406 253.522949 99.941406 C 254.33548 99.941406 254.775574 99.526672 254.843262 98.697266 C 254.911011 97.867859 255.401855 97.131531 256.315918 96.488281 L 258.093262 94.710938 C 258.296387 94.237 258.465698 93.932312 258.601074 93.796875 C 258.736511 93.01825 259.075043 92.561218 259.616699 92.425781 C 259.853699 91.782532 260.243011 91.342468 260.784668 91.105469 L 261.69873 89.226563 C 261.93573 89.023438 262.155762 88.710266 262.358887 88.287109 C 262.562012 87.863953 262.849792 87.567688 263.222168 87.398438 C 263.594604 87.229187 263.831543 87.042969 263.933105 86.839844 C 264.034668 86.636719 264.237793 85.875 264.54248 84.554688 C 265.016479 84.622375 265.710449 83.826843 266.624512 82.167969 L 267.944824 79.730469 C 268.181824 78.951843 268.469604 78.376282 268.808105 78.003906 C 269.146667 77.631531 269.41748 77.276062 269.620605 76.9375 L 270.128418 76.125 C 270.839386 75.414063 271.245605 74.804688 271.347168 74.296875 C 271.44873 73.789063 271.728027 73.306641 272.185059 72.849609 C 272.64209 72.392578 272.870605 71.927063 272.870605 71.453125 L 272.718262 70.691406 L 273.276855 70.691406 C 273.547729 70.691406 273.801636 70.259766 274.038574 69.396484 C 274.275574 68.533203 274.605652 67.85614 275.028809 67.365234 C 275.452026 66.874329 275.697449 66.527344 275.765137 66.324219 C 275.765137 64.902344 276.069824 64.140625 276.679199 64.039063 C 276.746948 63.903625 276.814636 63.277344 276.882324 62.160156 C 277.119324 61.957031 277.305542 61.855469 277.440918 61.855469 C 277.644043 61.855469 277.982605 60.9245 278.456543 59.0625 L 278.659668 58.65625 C 279.16748 58.148438 279.421387 57.657532 279.421387 57.183594 C 279.421387 55.998718 278.913605 54.940735 277.897949 54.009766 C 276.882324 53.078796 275.74823 52.613281 274.495605 52.613281 C 273.953949 52.613281 273.47998 52.680969 273.07373 52.816406 L 272.718262 52.917969 C 272.650574 52.917969 272.345886 53.053406 271.804199 53.324219 L 271.194824 53.730469 C 270.34848 54.170593 269.925293 54.983093 269.925293 56.167969 L 269.214355 56.371094 C 268.740417 56.743469 268.215698 57.048157 267.640137 57.285156 C 266.759949 58.571655 266.353699 59.401062 266.421387 59.773438 L 265.35498 60.636719 C 265.016479 61.178406 264.593262 61.550781 264.085449 61.753906 C 263.713074 62.430969 263.442261 62.888 263.272949 63.125 L 262.866699 63.835938 L 261.495605 65.410156 C 261.157104 66.290344 260.903198 66.891296 260.733887 67.212891 C 260.564636 67.534485 260.47998 67.59375 260.47998 67.390625 L 260.378418 68.40625 C 260.209167 68.64325 260.039917 68.998718 259.870605 69.472656 L 258.905762 69.574219 C 258.364105 70.319031 257.991699 71.013 257.788574 71.65625 C 257.280762 71.927063 256.688354 72.688782 256.01123 73.941406 C 255.60498 74.110657 255.232605 74.483093 254.894043 75.058594 L 253.827637 77.242188 L 252.050293 80.1875 C 252.18573 80.661438 252.253418 80.932312 252.253418 81 C 252.253418 81.135437 252.18573 81.270813 252.050293 81.40625 L 251.54248 81.507813 C 251.203979 82.117188 250.941589 82.582703 250.755371 82.904297 C 250.569214 83.225891 250.332214 83.60675 250.044434 84.046875 C 249.756714 84.487 249.595886 84.757813 249.562012 84.859375 L 247.88623 88.921875 L 246.870605 92.019531 C 246.565918 92.933594 246.193542 93.644531 245.753418 94.152344 C 245.313324 94.660156 245.093262 95.303406 245.093262 96.082031 C 245.093262 96.149719 245.194824 96.454407 245.397949 96.996094 C 245.364136 97.029968 245.228699 97.351563 244.991699 97.960938 L 244.806808 98.597748 C 244.754059 98.422058 244.628143 98.209808 244.429077 97.960938 C 244.158234 97.622375 243.921265 97.453125 243.71814 97.453125 C 243.142609 97.453125 242.584015 97.867859 242.042358 98.697266 C 241.500671 99.526672 240.916687 100.076843 240.290405 100.347656 C 239.664093 100.618469 239.300171 100.982422 239.198608 101.439453 C 239.097046 101.896484 238.792358 102.125 238.284546 102.125 L 237.472046 102.835938 C 237.065796 103.1745 236.710327 103.597656 236.40564 104.105469 L 235.897827 104.308594 C 235.694702 104.376282 235.347687 104.723328 234.856812 105.349609 C 234.365906 105.975891 233.578796 106.4245 232.495483 106.695313 C 232.258484 106.492188 232.140015 106.069031 232.140015 105.425781 L 232.34314 104.003906 L 232.241577 102.734375 C 232.241577 102.463562 232.385437 102.150391 232.673218 101.794922 C 232.960968 101.439453 233.104858 101.160156 233.104858 100.957031 L 233.104858 100.855469 L 233.815796 98.773438 C 233.883484 98.434875 233.985046 98.130188 234.120483 97.859375 C 236.084015 95.895813 237.065796 93.813843 237.065796 91.613281 C 237.065796 89.751282 236.337921 88.820313 234.882202 88.820313 C 232.850922 88.820313 231.522156 89.438171 230.895874 90.673828 C 230.269562 91.909485 229.78714 92.527344 229.448608 92.527344 C 229.177765 92.527344 229.008484 92.222656 228.940796 91.613281 C 228.737671 88.701782 227.586609 87.246094 225.487671 87.246094 C 225.284546 87.246094 225.115265 87.279968 224.979858 87.347656 L 224.167358 87.753906 L 224.065796 87.753906 C 223.557983 87.483093 223.236359 87.347656 223.100952 87.347656 L 222.796265 87.347656 C 221.13739 88.194031 220.240265 88.617188 220.104858 88.617188 L 219.698608 88.617188 C 219.258484 88.617188 218.657593 88.837219 217.895874 89.277344 C 217.134155 89.717468 216.355499 90.08136 215.559937 90.369141 C 214.764343 90.656921 214.053406 91.105469 213.427124 91.714844 C 212.800812 92.324219 212.386108 92.662781 212.182983 92.730469 C 210.794922 93.441406 209.508484 94.389343 208.323608 95.574219 L 206.800171 97.097656 C 205.953796 97.673157 205.378296 98.197937 205.073608 98.671875 C 204.768921 99.145813 204.362671 99.611328 203.854858 100.068359 C 203.347046 100.525391 203.110046 100.957031 203.143921 101.363281 L 202.636108 102.023438 C 202.432983 102.158875 202.035187 102.692078 201.442749 103.623047 C 200.850281 104.554016 200.554077 105.087219 200.554077 105.222656 L 200.65564 106.59375 C 200.01239 106.59375 199.690796 106.796875 199.690796 107.203125 L 199.792358 108.878906 L 199.792358 109.183594 C 199.72464 109.319031 199.690796 109.589844 199.690796 109.996094 C 199.690796 110.842468 199.84314 111.502625 200.147827 111.976563 L 200.65564 114.058594 C 200.757202 114.769531 201.417358 115.378906 202.636108 115.886719 C 203.854858 116.394531 204.921265 116.648438 205.835327 116.648438 C 206.952515 116.648438 208.865234 115.751343 211.573608 113.957031 L 211.878296 113.652344 C 212.656921 113.246094 213.24939 112.907532 213.65564 112.636719 L 217.515015 109.488281 C 217.988953 109.149719 218.378296 108.718079 218.682983 108.193359 C 218.987671 107.66864 219.173859 107.372375 219.241577 107.304688 L 220.206421 107.40625 L 220.714233 106.898438 C 220.883484 106.661438 221.188171 106.466797 221.628296 106.314453 C 222.06839 106.162109 222.322296 105.967468 222.390015 105.730469 L 222.59314 105.425781 C 222.99939 105.154968 223.337921 104.850281 223.608765 104.511719 C 223.778015 103.868469 223.998077 103.445313 224.268921 103.242188 C 224.742859 103.242188 225.157593 103.072937 225.513062 102.734375 C 225.86853 102.395813 226.113953 102.226563 226.24939 102.226563 C 226.384796 102.226563 226.452515 102.328125 226.452515 102.53125 L 226.147827 105.019531 C 226.147827 105.154968 226.181671 105.324219 226.24939 105.527344 C 226.317078 105.730469 226.350952 105.916687 226.350952 106.085938 C 226.350952 106.221375 226.317078 106.322937 226.24939 106.390625 C 226.181671 106.458313 226.147827 106.559875 226.147827 106.695313 C 226.147827 106.83075 226.232452 107 226.401733 107.203125 C 226.570984 107.40625 226.65564 107.5755 226.65564 107.710938 L 226.452515 108.675781 C 226.452515 109.352844 226.604858 109.886047 226.909546 110.275391 C 227.214233 110.664734 227.383484 110.977844 227.417358 111.214844 C 227.451202 111.451843 227.569702 111.671875 227.772827 111.875 C 228.348328 111.942688 228.906921 112.103516 229.448608 112.357422 C 229.990265 112.611328 230.582703 112.738281 231.225952 112.738281 C 231.361359 112.738281 231.606812 112.645203 231.96228 112.458984 C 232.317749 112.272766 232.859375 112.078125 233.58728 111.875 C 234.315125 111.671875 234.848328 111.401062 235.18689 111.0625 L 235.288452 110.554688 C 235.76239 110.41925 236.16864 110.266907 236.507202 110.097656 C 237.048859 109.488281 237.548218 109.149719 238.005249 109.082031 C 238.46228 109.014343 238.817749 108.709656 239.071655 108.167969 C 239.325562 107.626282 239.82489 107.237 240.569702 107 L 241.077515 106.289063 C 241.720734 105.848938 242.11853 105.476563 242.270874 105.171875 C 242.423218 104.867188 242.753296 104.579407 243.261108 104.308594 L 243.616577 103.648438 L 243.819702 102.226563 C 243.924011 102.044027 244.020279 101.862295 244.108505 101.681366 C 244.159225 101.918976 244.233566 102.168427 244.331543 102.429688 C 244.263855 102.7005 244.22998 103.072937 244.22998 103.546875 L 244.22998 103.902344 L 244.890137 104.816406 C 244.890137 104.884094 244.63623 104.951843 244.128418 105.019531 L 244.026855 105.324219 L 244.026855 106.289063 L 243.925293 106.898438 L 243.925293 107.40625 C 243.925293 107.98175 244.119965 108.514954 244.509277 109.005859 C 244.898621 109.496765 245.093262 109.759094 245.093262 109.792969 C 245.093262 110.876282 245.533386 111.985046 246.413574 113.119141 C 247.293823 114.253235 248.021667 114.820313 248.597168 114.820313 C 248.732605 114.820313 249.088074 114.752625 249.663574 114.617188 C 250.205261 114.888 250.687683 115.057312 251.11084 115.125 C 251.534058 115.192688 251.847168 115.29425 252.050293 115.429688 C 252.253418 115.29425 252.575043 115.226563 253.015137 115.226563 C 253.387573 115.226563 253.861511 115.023438 254.437012 114.617188 L 254.640137 114.617188 C 255.046387 114.684875 255.283386 114.71875 255.351074 114.71875 C 255.520386 114.71875 255.723511 114.608704 255.960449 114.388672 C 256.197449 114.16864 256.451355 114.041687 256.722168 114.007813 C 256.993042 113.973938 257.196167 113.821594 257.331543 113.550781 C 257.46698 113.279968 257.797058 113.042969 258.321777 112.839844 C 258.846558 112.636719 259.210449 112.391296 259.413574 112.103516 C 259.616699 111.815735 259.870605 111.621094 260.175293 111.519531 C 260.47998 111.417969 260.784668 111.096375 261.089355 110.554688 L 261.901855 110.65625 C 261.901855 110.588562 261.952637 110.554688 262.054199 110.554688 C 262.731323 109.369812 263.29834 108.658875 263.755371 108.421875 C 264.212402 108.184875 264.644043 107.541687 265.050293 106.492188 L 265.558105 106.1875 L 266.421387 105.984375 C 266.692261 105.375 267.081543 104.909485 267.589355 104.587891 C 268.097168 104.266296 268.461121 103.910828 268.681152 103.521484 C 268.901245 103.132141 269.180542 102.903625 269.519043 102.835938 C 269.857605 102.76825 270.026855 102.243469 270.026855 101.261719 C 270.026855 100.787781 270.170776 100.35614 270.458496 99.966797 C 270.746277 99.577454 270.890137 99.315125 270.890137 99.179688 L 270.849609 99.005951 L 271.687195 99.285156 C 272.398132 98.743469 274.821289 95.472656 274.956726 95.472656 C 275.362976 95.472656 275.566101 95.675781 275.566101 96.082031 C 275.566101 96.183594 275.413757 96.488281 275.10907 96.996094 C 274.804382 97.503906 274.626648 97.986328 274.575867 98.443359 C 274.525085 98.900391 274.364258 99.264343 274.093445 99.535156 L 273.585632 100.246094 L 273.382507 101.160156 C 273.179382 101.803406 273.043945 102.260437 272.976257 102.53125 C 272.773132 102.666687 272.603851 102.9375 272.468445 103.34375 L 272.214539 104.613281 C 272.14682 104.884094 272.079102 105.23114 272.011414 105.654297 C 271.943705 106.077454 271.842143 106.407532 271.706726 106.644531 C 271.571289 106.881531 271.503601 107.457031 271.503601 108.371094 L 271.605164 108.675781 L 271.503601 109.386719 C 271.503601 109.454407 271.605164 109.767578 271.808289 110.326172 C 272.011414 110.884766 272.112976 111.23175 272.112976 111.367188 L 272.011414 112.078125 L 272.011414 112.382813 C 272.011414 113.161438 272.426117 113.897766 273.255554 114.591797 C 274.084961 115.285828 274.787445 115.632813 275.362976 115.632813 L 276.378601 115.328125 L 277.14032 115.429688 C 277.343445 115.429688 277.614258 115.251953 277.95282 114.896484 C 278.291351 114.541016 278.689148 114.346375 279.146179 114.3125 C 279.60321 114.278625 279.933289 114.194031 280.136414 114.058594 L 281.050476 113.550781 C 281.49057 113.212219 281.989929 112.932922 282.548523 112.712891 C 283.107117 112.492859 283.420258 112.348938 283.487976 112.28125 L 283.792664 111.773438 L 285.976257 110.199219 C 286.382507 109.928406 286.898804 109.479797 287.525085 108.853516 C 288.151367 108.227234 288.913086 107.609375 289.810242 107 C 290.707397 106.390625 291.257507 105.92511 291.460632 105.603516 C 291.663757 105.281921 291.926147 104.985657 292.247742 104.714844 C 292.569336 104.444031 292.848633 103.961609 293.085632 103.267578 C 293.322632 102.573547 293.584961 101.98114 293.872742 101.490234 C 294.024658 101.23111 294.136444 100.936646 294.20816 100.606812 C 294.754456 99.934479 295.194122 99.611084 295.527222 99.636719 L 295.527222 100.042969 C 295.527222 100.516907 295.315613 100.999329 294.892456 101.490234 C 294.469238 101.98114 294.189941 102.429688 294.054565 102.835938 L 293.648315 104.003906 C 293.309692 104.511719 293.140503 105.171875 293.140503 105.984375 C 293.140503 106.255188 293.021973 106.492188 292.785034 106.695313 C 291.769348 107.744812 291.261597 108.743469 291.261597 109.691406 C 289.027161 110.673157 287.910034 111.333313 287.910034 111.671875 C 287.910034 112.010437 288.257019 112.374329 288.95105 112.763672 C 289.64502 113.153015 289.992065 113.449219 289.992065 113.652344 C 289.992065 113.957031 289.746582 114.3125 289.255737 114.71875 C 288.764832 115.125 288.45166 115.666687 288.316284 116.34375 L 287.097534 119.390625 C 286.25116 120.541687 285.421753 122.691406 284.609253 125.839844 C 284.609253 126.042969 284.448425 126.279968 284.126831 126.550781 C 283.805176 126.821594 283.644379 127.024719 283.644379 127.160156 L 283.339691 128.429688 Z M 293.546753 121.980469 L 293.343628 119.796875 C 294.223816 119.322937 294.66394 118.933594 294.66394 118.628906 L 294.562378 117.511719 L 294.562378 117.308594 C 294.562378 116.800781 294.740112 116.479187 295.095581 116.34375 C 295.45105 116.208313 295.662598 116.10675 295.730347 116.039063 L 296.136597 115.835938 C 296.40741 115.835938 296.838989 116.064453 297.431519 116.521484 C 298.023926 116.978516 298.354004 117.376282 298.421753 117.714844 C 298.489441 118.053406 298.557129 118.256531 298.624878 118.324219 C 299.572754 119.915344 300.046753 121.235657 300.046753 122.285156 C 300.046753 122.894531 299.911316 123.376953 299.640503 123.732422 C 299.369629 124.087891 299.183472 124.544922 299.081909 125.103516 C 298.980347 125.662109 298.84491 126.161438 298.675659 126.601563 C 298.506348 127.041687 298.32019 127.625671 298.117065 128.353516 C 297.91394 129.08136 297.414551 129.987 296.619019 131.070313 C 295.823364 132.153625 295.425659 132.83075 295.425659 133.101563 L 295.425659 133.304688 L 295.628784 133.914063 L 295.527222 134.269531 C 295.222534 134.540344 294.985535 134.878906 294.816284 135.285156 C 294.646973 135.691406 294.25769 136.25 293.648315 136.960938 C 293.512878 137.604187 293.30127 138.04425 293.01355 138.28125 C 292.725708 138.51825 292.480347 138.85675 292.277222 139.296875 C 292.074097 139.737 291.777832 140.117859 291.38855 140.439453 C 290.999207 140.761047 290.669128 141.463562 290.398315 142.546875 L 290.19519 142.648438 L 289.484253 142.648438 C 289.348816 142.817688 289.230347 143.054688 289.128784 143.359375 C 289.027222 143.664063 288.908691 143.850281 288.773315 143.917969 L 288.417847 144.019531 C 288.146973 144.290344 287.910034 144.459656 287.706909 144.527344 C 287.503784 144.595032 287.317566 144.789734 287.148315 145.111328 C 286.979004 145.432922 286.708191 145.627625 286.335815 145.695313 L 286.234253 145.898438 C 285.997253 146.5755 285.717957 146.939453 285.396362 146.990234 C 285.074707 147.041016 284.846191 147.134094 284.710815 147.269531 C 284.406128 148.014343 284.152222 148.386719 283.949066 148.386719 C 283.81366 148.386719 283.712097 148.319031 283.644379 148.183594 C 283.949066 147.134094 284.203003 146.296204 284.406128 145.669922 C 284.609253 145.04364 284.812378 144.256531 285.015503 143.308594 C 285.286316 143.037781 285.506348 142.436829 285.675659 141.505859 C 285.84491 140.57489 286.081909 139.796204 286.386597 139.169922 C 286.691284 138.54364 287.072144 137.680359 287.529175 136.580078 C 287.986206 135.479797 288.248535 134.675781 288.316284 134.167969 L 288.620972 133.8125 C 289.061035 133.507813 289.399597 132.796875 289.636597 131.679688 C 289.873535 130.5625 289.992065 129.783875 289.992065 129.34375 L 289.890503 128.226563 C 289.890503 128.091125 289.924316 127.95575 289.992065 127.820313 L 290.499878 127.820313 C 291.075378 127.820313 291.447754 127.464844 291.617065 126.753906 C 291.786316 126.042969 292.150269 125.103516 292.708862 123.935547 C 293.267456 122.767578 293.546753 122.115906 293.546753 121.980469 Z M 162.0578 87.855469 L 161.448425 88.464844 L 159.975769 92.425781 C 159.840363 92.628906 159.688019 93.153625 159.518738 94 C 159.349487 94.846375 158.951691 96.132813 158.325378 97.859375 C 157.699097 99.585938 157.385925 100.584656 157.385925 100.855469 L 157.487488 101.363281 L 157.284363 102.734375 L 157.284363 103.039063 L 157.385925 103.445313 C 157.385925 104.15625 157.453644 105.070313 157.58905 106.1875 L 158.757019 109.996094 C 158.757019 110.063782 158.875519 110.292297 159.112488 110.681641 C 159.349487 111.070984 159.501831 111.502625 159.569519 111.976563 C 160.111206 112.484375 160.449738 112.839844 160.585144 113.042969 C 160.686707 113.889343 161.143738 114.414063 161.956238 114.617188 L 162.0578 114.820313 C 162.599487 116.039063 163.39505 116.648438 164.444519 116.648438 L 164.952332 116.648438 C 166.204956 117.427063 167.45755 117.816406 168.710144 117.816406 C 168.913269 117.816406 169.048706 117.782532 169.116394 117.714844 L 170.081238 117.207031 L 170.1828 117.207031 C 170.792175 117.477844 171.164581 117.613281 171.299988 117.613281 C 172.078644 117.613281 172.467957 116.885437 172.467957 115.429688 C 172.603394 115.429688 172.671082 115.53125 172.671082 115.734375 L 172.671082 115.9375 C 172.603394 116.072937 172.569519 116.1745 172.569519 116.242188 C 172.569519 116.513 172.806519 116.648438 173.280457 116.648438 C 173.619019 116.648438 173.906769 116.479187 174.143738 116.140625 L 174.854675 115.9375 C 175.125519 115.9375 175.362488 115.7005 175.565613 115.226563 C 175.836456 115.29425 176.158081 115.328125 176.530457 115.328125 L 178.71405 114.617188 C 179.188019 114.617188 179.780457 114.092468 180.491394 113.042969 C 181.236206 112.975281 181.710144 112.712891 181.913269 112.255859 C 182.116394 111.798828 182.251831 111.570313 182.319519 111.570313 C 183.639832 111.367188 184.477722 110.986328 184.833191 110.427734 C 185.18866 109.869141 185.434113 109.539063 185.569519 109.4375 C 185.704956 109.335938 185.772644 109.217468 185.772644 109.082031 L 185.467957 108.371094 C 185.7388 107.998718 186.009644 107.744812 186.280457 107.609375 C 186.415894 108.184875 186.635925 108.472656 186.940613 108.472656 C 187.143738 108.472656 187.346863 108.311829 187.549988 107.990234 C 187.753113 107.66864 187.939331 107.440125 188.108582 107.304688 C 188.277863 107.16925 188.46405 106.822266 188.667175 106.263672 C 188.8703 105.705078 189.217316 105.408875 189.708191 105.375 C 190.199097 105.341125 190.588409 105.154968 190.87616 104.816406 C 191.16394 104.477844 191.341675 104.274719 191.409363 104.207031 L 192.1203 104.308594 C 192.188019 104.308594 192.221863 104.274719 192.221863 104.207031 C 192.560425 103.529968 193.355988 102.582031 194.608582 101.363281 C 195.387238 101.430969 195.844269 101.024719 195.979675 100.144531 C 196.047394 99.873718 196.335144 99.611328 196.842957 99.357422 C 197.350769 99.103516 197.892456 98.316406 198.467957 96.996094 C 199.483582 96.759094 200.228394 96.082031 200.702332 94.964844 C 200.803894 94.727844 201.015503 94.55011 201.337097 94.431641 C 201.658722 94.313171 201.8703 94.16925 201.971863 94 C 202.141144 94 202.242706 93.805359 202.27655 93.416016 C 202.310425 93.026672 202.479675 92.713562 202.784363 92.476563 L 204.612488 90.800781 L 204.71405 89.9375 L 205.424988 89.328125 C 205.695831 89.125 205.831238 88.837219 205.831238 88.464844 C 205.831238 87.076782 205.391144 86.382813 204.510925 86.382813 C 204.273956 86.382813 204.121613 86.433594 204.053894 86.535156 L 203.038269 87.042969 C 201.58255 87.381531 200.854675 87.855469 200.854675 88.464844 C 200.854675 89.108093 200.719269 89.429688 200.448425 89.429688 L 200.042175 89.429688 C 199.500519 89.429688 199.111206 89.988281 198.874207 91.105469 L 198.569519 91.308594 L 198.163269 91.308594 C 197.655457 91.477844 197.384644 91.7995 197.350769 92.273438 C 197.316925 92.747375 197.198425 93.052063 196.9953 93.1875 L 196.1828 93.085938 L 194.405457 94.8125 C 193.389832 95.320313 192.865112 95.912781 192.831238 96.589844 C 191.510925 97.368469 190.816925 97.910156 190.749207 98.214844 C 190.681519 98.519531 190.579956 98.671875 190.444519 98.671875 L 190.342957 98.671875 C 190.004425 98.604187 189.767456 98.570313 189.632019 98.570313 C 189.259644 98.570313 188.938019 98.900391 188.667175 99.560547 C 188.396362 100.220703 187.583862 101.109375 186.229675 102.226563 C 184.875519 103.34375 184.1138 104.054688 183.944519 104.359375 C 183.775269 104.664063 183.538269 104.833313 183.233582 104.867188 C 182.928894 104.901062 182.742706 104.951843 182.674988 105.019531 C 182.031769 105.628906 181.117737 106.322937 179.9328 107.101563 C 179.594269 107.101563 179.213409 107.363953 178.790222 107.888672 C 178.367065 108.413391 178.087769 108.726563 177.952332 108.828125 C 177.816925 108.929688 177.681519 109.115906 177.546082 109.386719 L 177.241394 109.386719 C 176.564331 109.657532 176.073425 109.792969 175.768738 109.792969 C 175.430206 109.792969 175.100128 110.089172 174.778503 110.681641 C 174.456909 111.274109 173.889832 111.570313 173.077332 111.570313 L 172.264832 111.570313 C 171.486206 112.112 170.749878 112.42511 170.055847 112.509766 C 169.361847 112.594421 168.913269 112.670593 168.710144 112.738281 C 168.507019 112.805969 168.202332 112.839844 167.796082 112.839844 C 167.355988 112.839844 167.068237 112.772156 166.9328 112.636719 C 166.221863 111.248718 165.697144 110.410828 165.358582 110.123047 C 165.02005 109.835266 164.816925 109.488281 164.749207 109.082031 C 165.121613 108.946594 165.341675 108.845032 165.409363 108.777344 L 165.053894 107.8125 L 165.510925 104.410156 C 165.510925 104.071594 165.324738 103.783875 164.952332 103.546875 C 165.324738 102.869812 165.578644 102.319641 165.71405 101.896484 C 165.849487 101.473328 166.069519 101.058594 166.374207 100.652344 C 166.678894 100.246094 166.831238 99.653625 166.831238 98.875 C 166.831238 98.46875 166.628113 98.197937 166.221863 98.0625 C 167.068237 97.453125 167.491394 96.928406 167.491394 96.488281 L 167.491394 95.777344 L 167.592957 95.371094 C 167.796082 94.930969 167.897644 94.677063 167.897644 94.609375 L 168.608582 94 C 168.608582 93.864563 168.811707 93.069031 169.217957 91.613281 C 169.725769 91.139343 170.047394 90.690735 170.1828 90.267578 C 170.318237 89.844421 170.504425 89.463562 170.741394 89.125 C 170.978394 88.786438 171.147644 88.422546 171.249207 88.033203 C 171.350769 87.64386 171.655457 86.992188 172.163269 86.078125 L 172.061707 85.367188 C 172.061707 85.23175 172.171753 85.045593 172.391785 84.808594 C 172.611847 84.571594 172.772644 84.300781 172.874207 83.996094 C 173.14505 83.860657 173.382019 83.488281 173.585144 82.878906 L 174.042175 81.914063 C 174.448425 81.372375 174.719269 80.966125 174.854675 80.695313 L 174.549988 79.425781 C 176.208862 78.714844 177.038269 77.91925 177.038269 77.039063 L 177.038269 76.632813 C 177.241394 76.429688 177.444519 76.158875 177.647644 75.820313 L 178.053894 75.058594 C 178.561707 74.347656 178.883331 73.51825 179.018738 72.570313 C 179.221863 72.638 179.518097 72.392578 179.90741 71.833984 C 180.296753 71.275391 180.491394 70.894531 180.491394 70.691406 C 180.491394 70.623718 180.372925 70.488281 180.135925 70.285156 L 180.237488 70.183594 L 180.897644 70.183594 L 181.303894 69.675781 C 182.285675 68.930969 182.77655 68.338562 182.77655 67.898438 C 183.352081 67.864563 183.690613 67.238281 183.792175 66.019531 L 183.9953 65.917969 L 184.40155 65.917969 L 184.757019 65.714844 L 186.686707 63.632813 C 186.923706 63.497375 187.042175 63.328125 187.042175 63.125 L 187.042175 62.617188 L 187.143738 62.160156 L 187.956238 62.160156 L 188.362488 61.753906 C 188.768738 60.941406 189.056519 60.535156 189.225769 60.535156 C 190.004425 60.535156 190.444519 60.179688 190.546082 59.46875 L 191.409363 58.859375 L 192.221863 57.792969 C 192.831238 57.522156 193.31366 57.234375 193.669128 56.929688 C 194.024597 56.625 194.320831 56.438782 194.5578 56.371094 C 194.7948 56.303406 194.997925 56.091797 195.167175 55.736328 C 195.336456 55.380859 195.505737 55.203125 195.674988 55.203125 C 195.810425 55.203125 195.945831 55.253906 196.081238 55.355469 C 196.216675 55.457031 196.352081 55.507813 196.487488 55.507813 C 196.82605 55.507813 197.553894 55.211609 198.671082 54.619141 C 199.788269 54.026672 200.583862 53.730469 201.0578 53.730469 C 201.599487 53.730469 201.997253 53.908203 202.25116 54.263672 C 202.505066 54.619141 202.699738 55.592407 202.835144 57.183594 C 202.428894 57.928406 202.149597 58.766296 201.997253 59.697266 C 201.84491 60.628235 201.70105 61.178406 201.565613 61.347656 C 201.023956 61.618469 200.753113 61.957031 200.753113 62.363281 L 200.753113 63.429688 L 200.65155 63.632813 C 199.940613 64.10675 199.585144 64.411438 199.585144 64.546875 L 199.585144 65.308594 L 199.382019 65.816406 L 197.40155 68.914063 C 196.859894 68.98175 196.352081 69.506531 195.878113 70.488281 C 194.828644 71.131531 194.303894 71.690125 194.303894 72.164063 C 194.303894 72.23175 194.371613 72.401062 194.507019 72.671875 L 194.100769 73.382813 C 193.897644 73.315125 193.762238 73.28125 193.694519 73.28125 C 189.80127 75.651062 187.854675 77.665344 187.854675 79.324219 C 187.854675 80.035156 188.235535 80.73761 188.997253 81.431641 C 189.758972 82.125671 190.529175 82.472656 191.3078 82.472656 C 192.560425 82.472656 193.829956 81.423218 195.116394 79.324219 L 194.913269 78.207031 L 195.116394 78.207031 C 195.827332 77.902344 196.309753 77.453796 196.56366 76.861328 C 196.817566 76.26886 197.418488 75.464844 198.366394 74.449219 C 198.975769 73.128906 199.492065 72.20636 199.915222 71.681641 C 200.338409 71.156921 200.549988 70.860657 200.549988 70.792969 C 202.310425 68.727844 203.300659 67.119812 203.520691 65.96875 C 203.740753 64.817688 204.036987 63.912109 204.409363 63.251953 C 204.781769 62.591797 205.086456 61.5 205.323425 59.976563 C 205.865112 59.536438 206.135925 59.028625 206.135925 58.453125 L 206.034363 56.675781 L 206.288269 54.542969 C 206.288269 53.053345 205.577332 51.783875 204.155457 50.734375 C 203.6138 50.328125 203.105988 49.904968 202.632019 49.464844 L 202.530457 49.464844 L 201.8703 49.921875 C 201.734894 49.921875 201.667175 49.888 201.667175 49.820313 C 201.125519 49.380188 200.753113 49.160156 200.549988 49.160156 C 200.346863 49.160156 200.025269 49.270203 199.585144 49.490234 C 199.14505 49.710266 198.874207 49.820313 198.772644 49.820313 C 198.230988 49.820313 197.765503 49.888 197.37616 50.023438 C 196.986847 50.158875 196.521362 50.260437 195.979675 50.328125 L 194.913269 50.734375 C 194.507019 51.072937 193.7453 51.428406 192.628113 51.800781 C 191.510925 52.173157 190.783081 52.613281 190.444519 53.121094 C 190.173706 53.188782 190.038269 53.324219 190.038269 53.527344 C 190.038269 53.899719 190.072144 54.153625 190.139832 54.289063 L 189.936707 54.390625 C 189.39505 54.01825 188.9888 53.832031 188.717957 53.832031 C 188.480988 53.832031 188.2948 53.916687 188.159363 54.085938 L 187.65155 54.695313 C 186.229675 55.507813 184.917847 56.438782 183.716003 57.488281 C 182.514191 58.537781 181.913269 59.164063 181.913269 59.367188 L 182.014832 59.671875 C 182.387238 59.875 182.573425 60.010437 182.573425 60.078125 C 182.573425 60.585938 182.387238 61.076843 182.014832 61.550781 C 181.879425 61.550781 181.811707 61.483093 181.811707 61.347656 C 181.439331 61.686218 181.176941 61.923157 181.024597 62.058594 C 180.872253 62.194031 180.7453 62.295593 180.643738 62.363281 L 180.592957 62.363281 C 180.592957 62.295593 181.134644 61.753906 182.217957 60.738281 C 182.217957 60.501282 182.116394 60.382813 181.913269 60.382813 L 181.405457 60.535156 C 181.202332 60.298157 181.066925 60.179688 180.999207 60.179688 C 180.626831 60.179688 179.543518 61.127563 177.749207 63.023438 C 176.361206 63.666687 175.565613 64.462219 175.362488 65.410156 L 174.956238 65.714844 C 174.685425 65.850281 174.228394 66.375 173.585144 67.289063 L 173.940613 68.304688 C 173.635925 69.083313 173.449738 69.540344 173.382019 69.675781 C 173.111206 69.540344 172.941925 69.472656 172.874207 69.472656 C 172.400269 69.472656 171.968628 69.870422 171.579285 70.666016 C 171.189972 71.461609 170.792175 72.0625 170.385925 72.46875 C 170.385925 72.739563 170.58905 72.976563 170.9953 73.179688 C 170.724487 73.484375 170.453644 73.636719 170.1828 73.636719 C 169.911987 73.636719 169.615753 73.805969 169.294128 74.144531 C 168.972534 74.483093 168.811707 74.787781 168.811707 75.058594 C 168.811707 75.126282 168.862488 75.253235 168.96405 75.439453 C 169.065613 75.625671 169.167175 75.854187 169.268738 76.125 C 169.3703 76.395813 169.581909 76.573547 169.903503 76.658203 C 170.225128 76.742859 170.385925 76.869812 170.385925 77.039063 C 170.385925 77.377625 170.250519 77.546875 169.979675 77.546875 C 169.911987 77.546875 169.801941 77.394531 169.649597 77.089844 C 169.497253 76.785156 169.319519 76.632813 169.116394 76.632813 C 168.980988 76.632813 168.828644 76.7005 168.659363 76.835938 C 168.490112 76.971375 168.286987 77.039063 168.049988 77.039063 C 167.813019 77.039063 167.466003 77.352234 167.008972 77.978516 C 166.551941 78.604797 166.306519 79.095703 166.272644 79.451172 C 166.2388 79.806641 166.086456 80.085938 165.815613 80.289063 C 165.5448 80.492188 165.324738 80.661438 165.155457 80.796875 L 164.850769 81.203125 C 164.647644 81.40625 164.546082 81.541687 164.546082 81.609375 L 164.749207 82.574219 C 164.749207 82.777344 164.850769 83.048157 165.053894 83.386719 C 164.579956 83.454407 164.275269 83.649109 164.139832 83.970703 C 164.004425 84.292297 163.792847 84.571594 163.505066 84.808594 C 163.217316 85.045593 162.904175 85.511047 162.565613 86.205078 C 162.227081 86.899109 162.0578 87.313782 162.0578 87.449219 L 162.0578 87.855469 Z M 319.195313 113.144531 L 318.992188 111.976563 L 318.484375 110.351563 L 318.6875 108.472656 L 318.890625 107.8125 C 318.890625 107.677063 318.772095 107.473938 318.535156 107.203125 C 318.298218 106.932312 318.179688 106.763 318.179688 106.695313 C 318.179688 106.35675 318.357422 106.077454 318.712891 105.857422 C 319.068359 105.63739 319.296875 105.425781 319.398438 105.222656 C 319.398438 104.782532 319.584595 104.122375 319.957031 103.242188 L 320.871094 100.957031 C 321.41272 100.415344 321.852905 99.941406 322.191406 99.535156 L 322.75 98.875 C 323.460938 98.2995 323.799438 97.740906 323.765625 97.199219 L 324.375 96.589844 C 324.950562 96.589844 325.424438 96.369812 325.796875 95.929688 C 326.169312 95.489563 326.389282 95.269531 326.457031 95.269531 L 327.117188 95.269531 C 327.320313 95.100281 327.523438 94.8125 327.726563 94.40625 C 327.929688 94 328.132813 93.796875 328.335938 93.796875 C 328.403687 93.796875 328.792969 93.966125 329.503906 94.304688 C 331.670593 93.526062 332.872437 92.899719 333.109375 92.425781 C 333.786499 92.154968 334.175781 92.019531 334.277344 92.019531 C 334.480469 92.019531 334.582031 92.121094 334.582031 92.324219 C 334.582031 92.459656 334.184204 92.857422 333.388672 93.517578 C 332.59314 94.177734 332.195313 94.897156 332.195313 95.675781 C 332.195313 96.860657 332.559204 97.65625 333.287109 98.0625 C 334.015015 98.46875 334.378906 99.027344 334.378906 99.738281 C 334.378906 100.212219 334.277344 100.872375 334.074219 101.71875 L 333.109375 103.546875 C 333.109375 103.91925 333.041626 104.173157 332.90625 104.308594 L 332.5 104.917969 C 332.364624 105.391907 332.110718 105.772766 331.738281 106.060547 C 331.365845 106.348328 331.035767 106.771484 330.748047 107.330078 C 330.460327 107.888672 329.96936 108.337219 329.275391 108.675781 C 328.581421 109.014343 328.234375 109.572937 328.234375 110.351563 L 328.03125 110.453125 L 327.320313 110.453125 C 327.252563 110.453125 327.091797 110.707031 326.837891 111.214844 C 326.583984 111.722656 326.270874 111.976563 325.898438 111.976563 C 325.526001 111.976563 325.026733 112.238953 324.400391 112.763672 C 323.774048 113.288391 322.936218 113.550781 321.886719 113.550781 C 321.548218 113.550781 321.040405 113.483093 320.363281 113.347656 L 320.109375 113.246094 L 319.296875 113.246094 L 319.195313 113.144531 Z M 220.612671 102.835938 C 220.748077 102.091125 221.162781 101.524109 221.856812 101.134766 C 222.550812 100.745422 222.965515 100.347656 223.100952 99.941406 C 223.744171 99.467468 224.666687 98.621094 225.86853 97.402344 C 227.070343 96.183594 227.671265 95.438782 227.671265 95.167969 C 227.671265 95.066406 227.603546 95.015625 227.46814 95.015625 L 227.366577 95.015625 L 226.960327 95.269531 L 226.046265 95.167969 L 225.081421 95.269531 L 224.370483 94.914063 L 223.710327 95.015625 L 222.694702 94.8125 C 222.153015 94.8125 221.687531 94.922546 221.298218 95.142578 C 220.908875 95.36261 220.164093 95.608093 219.063843 95.878906 C 217.963562 96.149719 216.973328 96.615234 216.09314 97.275391 C 215.212891 97.935547 214.569702 98.265625 214.163452 98.265625 C 213.926453 98.773438 213.13089 99.501282 211.776733 100.449219 C 210.964233 100.720032 210.439484 101.3125 210.202515 102.226563 C 209.322266 102.9375 208.882202 103.34375 208.882202 103.445313 L 208.526733 104.308594 C 208.25589 104.545593 207.917358 104.740234 207.511108 104.892578 C 207.104858 105.044922 206.867859 105.400391 206.800171 105.958984 C 206.732452 106.517578 206.503937 107.025391 206.114624 107.482422 C 205.725281 107.939453 205.53064 108.303406 205.53064 108.574219 C 205.53064 110.233093 205.852234 111.0625 206.495483 111.0625 C 206.766296 111.0625 207.333374 110.884766 208.196655 110.529297 C 209.059937 110.173828 209.559265 109.928406 209.694702 109.792969 C 209.830109 109.657532 210.100952 109.522156 210.507202 109.386719 L 211.472046 108.878906 C 211.607452 108.743469 211.759796 108.658875 211.929077 108.625 C 212.098328 108.591125 212.267609 108.48114 212.43689 108.294922 C 212.60614 108.108704 212.910828 107.905579 213.350952 107.685547 C 213.791046 107.465515 214.129578 107.16925 214.366577 106.796875 C 214.942078 106.458313 215.873047 105.933594 217.159546 105.222656 L 218.225952 104.410156 C 218.970734 104.071594 219.427765 103.783875 219.597046 103.546875 C 219.766296 103.309875 220.104858 103.072937 220.612671 102.835938 Z M 255.60498 89.835938 L 254.538574 90.445313 C 254.132324 91.359375 253.709167 91.816406 253.269043 91.816406 C 253.133667 91.816406 253.032104 91.782532 252.964355 91.714844 C 253.336792 91.376282 253.717621 90.589172 254.106934 89.353516 C 254.496277 88.117859 255.02948 86.94989 255.706543 85.849609 C 256.383667 84.749329 256.806824 83.928406 256.976074 83.386719 C 257.145386 82.845032 257.32312 82.48114 257.509277 82.294922 C 257.695496 82.108704 257.788574 81.947937 257.788574 81.8125 L 257.63623 81.101563 C 257.63623 80.83075 257.856293 80.559875 258.296387 80.289063 L 259.007324 80.390625 C 259.210449 80.255188 259.438965 79.789734 259.692871 78.994141 C 259.946777 78.198547 260.226074 77.623047 260.530762 77.267578 C 260.835449 76.912109 261.038574 76.598938 261.140137 76.328125 C 261.241699 76.057312 261.394043 75.828796 261.597168 75.642578 C 261.800293 75.45636 261.901855 75.261719 261.901855 75.058594 C 261.901855 74.990906 261.834167 74.686218 261.69873 74.144531 L 262.460449 74.246094 L 262.968262 73.636719 C 263.137573 73.467468 264.068542 72.214844 265.76123 69.878906 C 266.269043 68.897156 266.81073 68.203125 267.38623 67.796875 C 267.961792 67.390625 268.283386 67.001282 268.351074 66.628906 L 268.706543 66.019531 C 269.383667 65.511719 269.79834 64.89386 269.950684 64.166016 C 270.103027 63.438171 270.687012 62.95575 271.702637 62.71875 C 271.973511 61.601563 272.252808 60.992188 272.540527 60.890625 C 272.828308 60.789063 273.141479 60.619812 273.47998 60.382813 C 273.750854 60.382813 273.88623 60.772156 273.88623 61.550781 L 273.47998 63.226563 C 273.47998 63.76825 273.336121 64.182922 273.04834 64.470703 C 272.76062 64.758484 272.616699 65.003906 272.616699 65.207031 L 271.804199 67.085938 C 270.788574 68.8125 270.196167 69.878906 270.026855 70.285156 L 269.925293 70.792969 C 269.857605 70.928406 269.82373 71.216125 269.82373 71.65625 L 269.01123 71.757813 C 268.875854 72.367188 268.630371 72.790344 268.274902 73.027344 C 267.919434 73.264343 267.640137 73.594421 267.437012 74.017578 C 267.233887 74.440735 266.903809 74.897766 266.446777 75.388672 C 265.989746 75.879578 265.76123 76.158875 265.76123 76.226563 L 265.76123 77.039063 L 265.558105 77.34375 C 265.151855 77.75 264.881042 78.207031 264.745605 78.714844 L 264.339355 78.816406 C 264.102417 78.816406 263.746948 79.307312 263.272949 80.289063 C 262.054199 80.864563 261.29248 81.592468 260.987793 82.472656 L 260.581543 83.386719 C 259.66748 84.300781 259.210449 84.859375 259.210449 85.0625 C 259.210449 85.46875 259.159668 85.790344 259.058105 86.027344 C 258.956543 86.264343 258.905762 86.501282 258.905762 86.738281 L 258.499512 86.738281 C 258.194824 86.738281 257.670105 87.119141 256.925293 87.880859 C 256.180511 88.642578 255.740417 89.29425 255.60498 89.835938 Z M 284.402039 72.976563 L 284.097351 70.996094 L 284.097351 70.691406 C 284.097351 69.10022 284.639038 68.220032 285.722351 68.050781 C 285.959351 68.016907 286.670288 67.796875 287.855164 67.390625 C 288.464539 67.526062 289.099304 68.059265 289.75946 68.990234 C 290.419617 69.921204 290.749695 70.742188 290.749695 71.453125 C 290.749695 71.520813 290.698914 71.673157 290.597351 71.910156 C 290.495789 72.147156 290.428101 72.595703 290.394226 73.255859 C 290.360352 73.916016 290.030273 74.491516 289.403992 74.982422 C 288.77771 75.473328 288.10907 75.71875 287.398132 75.71875 C 286.924194 75.71875 286.323242 75.388672 285.595398 74.728516 C 284.867554 74.068359 284.469727 73.484375 284.402039 72.976563 Z"/>
    </g>
</svg>
