<?xml version="1.0" encoding="UTF-8"?>
<!-- Generated by Pixelmator Pro 3.6.14 -->
<svg width="770" height="381" viewBox="0 0 770 381" xmlns="http://www.w3.org/2000/svg">
    <g id="Group">
        <path id="Rounded-Rectangle" fill="#ffffff" fill-rule="evenodd" stroke="#132b49" stroke-width="19" stroke-linecap="round" stroke-linejoin="round" d="M 10.514819 329.952698 C 10.514819 352.044098 28.423428 369.952698 50.51482 369.952698 L 718.517578 369.952698 C 740.608948 369.952698 758.517578 352.044098 758.517578 329.952698 L 758.517578 50.914001 C 758.517578 28.822601 740.608948 10.914001 718.517578 10.914001 L 50.51482 10.914001 C 28.423428 10.914001 10.514819 28.822601 10.514819 50.914001 Z"/>
        <path id="CAR-LAW" fill="#0b2135" fill-rule="evenodd" stroke="none" d="M 636.142395 162.528015 L 644.844788 315.648804 C 645.052002 318.342407 646.709595 320 649.403198 320 L 656.862427 320 C 659.141602 320 661.006409 318.549591 661.420776 316.270386 L 668.051208 283.73999 C 669.294373 277.316772 670.744812 274.001587 672.402405 274.001587 C 673.852783 274.001587 675.510376 277.316772 676.960815 283.73999 L 683.591187 316.270386 C 684.005615 318.549591 685.870422 320 688.149597 320 L 695.401611 320 C 698.095215 320 699.752808 318.342407 699.960022 315.648804 L 708.869629 162.528015 C 708.869629 159.627197 707.211975 157.76239 704.311218 157.76239 L 698.302429 157.76239 C 695.401611 157.76239 693.951172 159.419983 693.744019 162.113586 L 688.564026 245.200806 C 688.149597 253.074402 687.113586 257.01123 685.663208 257.01123 C 684.419983 257.01123 682.76239 253.281616 681.104797 245.822388 L 675.71759 223.030396 C 675.303223 221.580017 674.059998 220.544006 672.609619 220.544006 C 670.952026 220.544006 669.708801 221.580017 669.294373 223.030396 L 663.907227 245.822388 C 662.042419 253.281616 660.384827 257.01123 658.934387 257.01123 C 657.691162 257.01123 656.447998 253.074402 656.033569 245.200806 L 651.060791 162.113586 C 650.853638 159.419983 649.196045 157.76239 646.502441 157.76239 L 640.700806 157.76239 C 637.799988 157.76239 636.142395 159.627197 636.142395 162.528015 Z M 617.287231 320 L 622.674438 320 C 625.575195 320 627.232788 318.342407 627.232788 315.648804 C 627.232788 315.441589 627.232788 315.234406 626.611206 310.883209 L 604.026367 161.699219 C 603.612 159.212769 601.747192 157.76239 599.468018 157.76239 L 587.450439 157.76239 C 585.171204 157.76239 583.306396 159.212769 582.891968 161.699219 L 560.099976 310.883209 C 559.478394 315.234406 559.478394 315.441589 559.478394 315.648804 C 559.478394 318.342407 561.135986 320 564.036804 320 L 569.631226 320 C 571.9104 320 573.775208 318.342407 574.189575 316.063202 L 578.333618 286.226379 C 578.747986 283.947205 580.612793 282.289612 582.891968 282.289612 L 603.612 282.289612 C 605.891235 282.289612 607.755981 283.73999 608.17041 286.226379 L 612.72876 316.063202 C 613.143188 318.549591 615.007996 320 617.287231 320 Z M 597.810425 217.436035 L 603.819214 257.425598 C 604.233643 259.911987 604.440796 261.984009 604.440796 263.02002 C 604.440796 265.713623 602.575989 266.956787 599.882385 266.956787 L 586.621582 266.956787 C 583.927979 266.956787 582.270386 265.506409 582.270386 263.02002 C 582.270386 261.984009 582.4776 259.911987 582.891968 257.425598 L 588.693604 217.436035 C 590.144043 208.319214 591.59436 203.760803 593.252014 203.760803 C 594.909607 203.760803 596.359985 208.319214 597.810425 217.436035 Z M 542.488037 304.667206 L 503.948792 304.667206 C 501.255188 304.667206 499.390381 302.802399 499.390381 300.108795 L 499.390381 162.320801 C 499.390381 159.627197 497.525635 157.76239 494.832031 157.76239 L 488.408813 157.76239 C 485.71521 157.76239 483.850403 159.627197 483.850403 162.320801 L 483.850403 315.441589 C 483.850403 318.135193 485.71521 320 488.408813 320 L 542.488037 320 C 545.181641 320 547.046387 318.135193 547.046387 315.441589 L 547.046387 309.225586 C 547.046387 306.531982 545.181641 304.667206 542.488037 304.667206 Z M 240.250397 315.441589 L 240.250397 249.552002 C 240.250397 246.858398 242.115204 244.993591 244.808807 244.993591 L 251.853607 244.993591 C 254.132813 244.993591 255.99762 246.44397 256.411987 248.515991 L 271.330414 316.4776 C 271.744812 318.549591 273.609589 320 275.888794 320 L 282.519165 320 C 285.627197 320 287.077637 318.342407 287.077637 315.648804 C 287.077637 314.820007 286.663208 312.333618 285.627197 308.189606 L 271.537598 247.687195 C 271.330414 246.236816 271.123199 245.200806 271.123199 244.164795 C 271.123199 242.299988 271.537598 240.849609 273.19519 239.813599 C 281.068787 234.426392 286.870361 224.480835 286.870361 210.184021 L 286.870361 192.572021 C 286.870361 169.572815 271.537598 157.76239 256.204803 157.76239 L 229.268799 157.76239 C 226.575195 157.76239 224.710388 159.627197 224.710388 162.320801 L 224.710388 315.441589 C 224.710388 318.135193 226.575195 320 229.268799 320 L 235.692017 320 C 238.38562 320 240.250397 318.135193 240.250397 315.441589 Z M 256.204803 173.095215 C 264.700012 173.095215 271.537598 179.311218 271.537598 191.121582 L 271.537598 211.634399 C 271.537598 223.444824 264.700012 229.660767 256.204803 229.660767 L 244.808807 229.660767 C 242.115204 229.660767 240.250397 227.796021 240.250397 225.102417 L 240.250397 177.653564 C 240.250397 174.960022 242.115204 173.095215 244.808807 173.095215 Z M 201.0896 320 L 206.476807 320 C 209.377594 320 211.035217 318.342407 211.035217 315.648804 C 211.035217 315.441589 211.035217 315.234406 210.413605 310.883209 L 187.828796 161.699219 C 187.414398 159.212769 185.549622 157.76239 183.270386 157.76239 L 171.252808 157.76239 C 168.973602 157.76239 167.108795 159.212769 166.694397 161.699219 L 143.902405 310.883209 C 143.280823 315.234406 143.280823 315.441589 143.280823 315.648804 C 143.280823 318.342407 144.938416 320 147.839203 320 L 153.433594 320 C 155.712799 320 157.577606 318.342407 157.992004 316.063202 L 162.135986 286.226379 C 162.550415 283.947205 164.415222 282.289612 166.694397 282.289612 L 187.414398 282.289612 C 189.693604 282.289612 191.558411 283.73999 191.972778 286.226379 L 196.531189 316.063202 C 196.945618 318.549591 198.810394 320 201.0896 320 Z M 181.612793 217.436035 L 187.621582 257.425598 C 188.036011 259.911987 188.243195 261.984009 188.243195 263.02002 C 188.243195 265.713623 186.378418 266.956787 183.684814 266.956787 L 170.424011 266.956787 C 167.730408 266.956787 166.072815 265.506409 166.072815 263.02002 C 166.072815 261.984009 166.279999 259.911987 166.694397 257.425598 L 172.496002 217.436035 C 173.946411 208.319214 175.39679 203.760803 177.054382 203.760803 C 178.712006 203.760803 180.162415 208.319214 181.612793 217.436035 Z M 69.724792 286.640808 C 69.724792 309.640015 85.264801 321.450409 100.390411 321.450409 C 115.723206 321.450409 131.056 309.640015 131.056 286.640808 L 131.056 280.010376 C 131.056 277.316772 129.191193 275.452026 126.497589 275.452026 L 120.695984 275.452026 C 118.002411 275.452026 116.137604 277.316772 116.137604 280.010376 L 116.137604 288.091187 C 116.137604 299.901611 109.092804 306.117615 100.80481 306.117615 C 92.102417 306.117615 85.264801 299.901611 85.264801 288.091187 L 85.264801 189.878418 C 85.264801 177.860779 92.102417 171.644775 100.80481 171.644775 C 109.092804 171.644775 116.137604 177.860779 116.137604 189.878418 L 116.137604 195.472778 C 116.137604 198.166382 118.002411 200.031189 120.695984 200.031189 L 126.704803 200.031189 C 129.191193 200.031189 131.056 198.166382 131.056 195.472778 L 131.056 191.121582 C 131.056 168.32959 115.723206 156.312012 100.390411 156.312012 C 85.264801 156.312012 69.724792 168.32959 69.724792 191.121582 Z"/>
        <path id="Shape" fill="#0b2135" fill-rule="evenodd" stroke="none" d="M 374.595154 273.009094 L 374.595154 206.513245 L 372.875061 206.699646 C 371.929016 206.802185 369.876099 207.20636 368.313049 207.597778 C 366.75 207.989197 363.923096 208.785645 362.031006 209.367615 C 360.138855 209.949646 357.226776 210.707214 355.559662 211.051208 C 353.892548 211.395142 351.233887 211.840088 349.65152 212.039978 C 348.069153 212.239807 346.775818 212.477051 346.777466 212.567139 C 346.779083 212.657288 348.242798 215.466125 350.030151 218.809021 C 351.817474 222.151917 355.616425 229.252686 358.472229 234.588562 C 363.405884 243.806702 363.717041 244.306793 364.717468 244.625183 C 365.296509 244.809479 366.209106 245.375824 366.745483 245.883728 C 367.281799 246.391663 367.853149 247.284332 368.015198 247.867493 C 368.177185 248.450653 368.308472 249.533539 368.306946 250.273926 C 368.305481 251.014343 368.100708 252.483429 367.85199 253.538635 C 367.603271 254.593842 367.040344 256.117584 366.601013 256.924774 C 366.161682 257.731934 364.962708 259.177673 363.936646 260.137512 C 362.753174 261.244598 361.434814 262.139374 360.330933 262.584747 C 358.59079 263.286835 358.59079 263.286835 339.429871 263.286835 C 320.268951 263.286835 320.268951 263.286835 318.013794 262.172272 C 316.55188 261.449738 315.261475 260.526215 314.345306 259.546753 C 313.567963 258.715729 312.506134 257.130737 311.985626 256.024536 C 311.148865 254.246155 311.026825 253.649567 310.93158 250.872223 C 310.83197 247.966675 310.877045 247.652679 311.532715 246.684174 C 311.922577 246.108307 312.708527 245.408173 313.279297 245.128265 C 313.850067 244.848389 314.533783 244.556946 314.798706 244.480652 C 315.063629 244.404327 316.354706 242.344849 317.667786 239.904053 C 318.980865 237.463196 320.943909 233.783447 322.030121 231.726807 C 323.116364 229.670166 325.825439 224.62207 328.050354 220.508789 L 332.095642 213.030151 L 329.488892 212.676208 C 328.055206 212.481506 326.437439 212.110107 325.89386 211.850952 C 325.350311 211.591736 324.219727 210.741394 323.381439 209.961304 C 322.543182 209.181213 321.54187 207.869873 321.156372 207.04718 C 320.603424 205.86731 320.454773 205.040405 320.452484 203.131287 C 320.449951 201.025391 320.568756 200.472595 321.367432 198.874268 C 321.877533 197.853455 322.831024 196.570313 323.513641 195.986023 C 324.18924 195.407715 325.35791 194.631226 326.110748 194.260437 C 327.413727 193.618652 327.939453 193.576599 337.052216 193.38562 C 344.044128 193.239075 347.350769 193.04895 349.31723 192.680359 C 350.798004 192.402832 353.557648 191.716003 355.449738 191.154053 C 357.341858 190.592102 360.639954 189.675903 362.77887 189.117981 C 364.917725 188.56012 368.451416 187.862183 370.63147 187.567078 L 374.595154 187.030457 L 374.595154 182.915344 C 374.595154 179.466248 374.696899 178.528259 375.223877 177.119812 C 375.650757 175.979004 376.363586 174.928406 377.443542 173.848389 C 378.52356 172.768433 379.574158 172.055603 380.714905 171.628723 C 381.728088 171.249695 383.099243 171 384.167847 171 C 385.23645 171 386.607605 171.249695 387.620789 171.628723 C 388.761597 172.055603 389.812195 172.768433 390.892151 173.848389 C 391.972168 174.928406 392.684998 175.979004 393.111816 177.119812 C 393.638794 178.528259 393.74054 179.466248 393.74054 182.915344 L 393.74054 187.030457 L 397.606384 187.55426 C 399.732605 187.842346 402.84906 188.411377 404.531982 188.818909 C 406.214844 189.226379 409.153076 190.03418 411.061462 190.614075 C 412.969849 191.193909 415.678955 191.925049 417.081665 192.23877 C 418.484375 192.552551 421.109375 192.95636 422.915039 193.136169 C 424.720642 193.315979 429.496094 193.490662 433.5271 193.524353 C 440.856201 193.585571 440.856201 193.585571 442.736389 194.605103 C 443.770508 195.165833 445.033447 196.099365 445.542847 196.679565 C 446.052307 197.259827 446.786621 198.416382 447.174683 199.249817 C 447.7052 200.389099 447.881042 201.2901 447.88324 202.880615 C 447.884827 204.046448 447.670471 205.629211 447.405701 206.40625 C 447.131897 207.209778 446.295532 208.505249 445.461426 209.417969 C 444.65625 210.298889 443.358093 211.320923 442.576477 211.689209 C 441.794861 212.057434 440.0448 212.509766 438.687378 212.694397 L 436.219482 213.030151 L 444.597229 228.585815 C 452.975037 244.141418 452.975037 244.141418 454.543884 244.889282 C 455.500366 245.345245 456.38562 246.045837 456.81189 246.684174 C 457.459595 247.654144 457.503052 247.973297 457.401855 251.02182 C 457.297607 254.163391 457.240845 254.410095 456.148621 256.468903 C 455.509644 257.67334 454.366882 259.221832 453.560181 259.97641 C 452.765747 260.719482 451.221741 261.768311 450.128967 262.307159 C 448.142151 263.286835 448.142151 263.286835 428.793945 263.286835 C 409.44574 263.286835 409.44574 263.286835 407.716309 262.47644 C 406.765137 262.030731 405.168823 260.886505 404.168945 259.933685 C 403.147156 258.960022 401.988586 257.480804 401.523438 256.55603 C 401.068298 255.651093 400.544373 254.197357 400.359253 253.32547 C 400.174133 252.453583 400.022644 251.002136 400.022644 250.100037 C 400.022644 249.197937 400.204529 248.024567 400.426819 247.492554 C 400.649109 246.960541 401.312134 246.102753 401.90033 245.586334 C 402.488464 245.069946 403.349854 244.563721 403.814514 244.461395 C 404.568665 244.295319 405.201355 243.265778 409.704041 234.878113 C 412.478577 229.709595 416.280884 222.612122 418.153625 219.105957 C 420.026306 215.599731 421.559143 212.651611 421.559875 212.554565 C 421.560608 212.457581 420.27655 212.220337 418.70636 212.027344 C 417.13623 211.834351 414.275635 211.34375 412.349487 210.937073 C 410.423401 210.530334 407.568604 209.788879 406.005554 209.289368 C 404.442566 208.789795 401.817505 208.044678 400.172241 207.633423 C 398.526917 207.222168 396.406677 206.801941 395.460632 206.699463 L 393.74054 206.513245 L 393.74054 239.761169 L 393.74054 273.009094 L 397.275391 273.009094 C 399.219543 273.009094 401.603577 273.155762 402.573181 273.335022 C 403.542847 273.514252 404.998962 273.996765 405.808899 274.407196 C 406.618896 274.817657 407.948181 275.776947 408.762817 276.538971 C 409.577454 277.300995 410.589172 278.513428 411.011047 279.233307 C 411.432922 279.953156 411.970032 281.099365 412.204712 281.780396 C 412.439331 282.461426 412.707336 283.660767 412.800293 284.445557 C 412.969299 285.872437 412.969299 285.872437 415.257935 285.872437 C 416.516724 285.872437 418.348938 286.08136 419.329529 286.3367 C 420.310181 286.592041 421.713806 287.15329 422.44873 287.583923 C 423.183716 288.014526 424.406067 288.987915 425.1651 289.746979 C 425.924194 290.506042 426.989807 292.030151 427.533142 293.133881 C 428.270142 294.630829 428.55957 295.678192 428.672485 297.256622 C 428.760498 298.486755 428.675598 299.867554 428.469666 300.554871 C 428.274841 301.205109 427.685181 302.227173 427.159302 302.826141 C 426.633423 303.42511 425.663513 304.160309 425.003967 304.45993 C 423.86322 304.978149 421.874329 305.004425 384.167847 304.999542 C 349.444275 304.995056 344.401093 304.938263 343.483856 304.541595 C 342.90802 304.292572 342.014526 303.680359 341.498322 303.181122 C 340.982147 302.681915 340.325043 301.752899 340.038147 301.116638 C 339.633362 300.219025 339.547455 299.424896 339.654694 297.572235 C 339.766235 295.645447 339.985687 294.793121 340.791687 293.155884 C 341.341003 292.04007 342.411499 290.506042 343.170593 289.746979 C 343.929657 288.987915 345.152008 288.014526 345.886963 287.583923 C 346.621887 287.15329 348.025513 286.592041 349.006165 286.3367 C 349.986786 286.08136 351.818909 285.872437 353.077576 285.872437 C 355.366028 285.872437 355.366028 285.872437 355.53772 284.209076 C 355.632141 283.29422 356.115601 281.677673 356.612061 280.61676 C 357.108521 279.555817 358.197937 277.965393 359.03299 277.082458 C 359.868042 276.199493 361.321716 275.068115 362.263367 274.568268 C 363.205017 274.06839 364.77417 273.513092 365.750488 273.334259 C 366.726746 273.155426 369.11615 273.009094 371.060303 273.009094 Z M 356.395477 244.291016 C 353.147949 238.147278 349.42334 231.24823 346.023376 224.996033 C 342.623383 218.743835 339.740814 213.522583 339.617615 213.393188 C 339.494446 213.263794 337.997253 215.754211 336.290527 218.927368 C 334.583801 222.100586 331.459747 227.860352 329.348206 231.726807 C 327.236664 235.593323 324.837097 240.001984 324.015839 241.523895 L 322.522644 244.291016 L 339.459045 244.291016 Z M 411.938782 244.291016 C 444.631226 244.291016 445.546265 244.262177 445.362366 243.767487 C 445.255371 243.479553 443.836853 240.753571 442.210205 237.709778 C 440.583496 234.665955 437.146851 228.271667 434.573181 223.500305 C 431.999512 218.728882 429.65094 214.438782 429.354126 213.966675 C 428.814453 213.108337 428.814453 213.108337 427.171143 216.06073 C 426.267273 217.684509 423.312195 223.118896 420.604248 228.137085 C 417.896362 233.155273 414.838806 238.842773 413.809753 240.776031 Z"/>
        <path id="California" fill="#ce0106" fill-rule="evenodd" stroke="none" d="M 348.963104 138.65181 L 348.450989 139.778519 L 347.170624 143.875626 C 346.760925 144.217072 346.513367 144.660889 346.42804 145.207184 C 346.342682 145.753479 346.197571 146.453369 345.992706 147.306946 C 345.787842 148.160538 345.583008 148.843369 345.378143 149.355499 C 345.13916 149.32135 344.831879 150.123718 344.456299 151.762558 L 344.353882 152.274689 C 344.012451 153.059952 343.713684 153.85376 343.457611 154.656143 C 343.201569 155.458511 343.005219 155.945038 342.868652 156.115738 C 342.732117 156.286423 342.629669 156.508392 342.561371 156.781509 L 342.254089 157.856995 C 341.980957 158.403305 341.844391 158.881271 341.844391 159.290985 L 341.844391 159.751907 C 341.912689 160.468903 341.980957 161.015213 342.049255 161.390762 C 342.458964 161.800471 342.663818 162.158966 342.663818 162.466248 C 342.663818 163.695374 343.022308 164.591614 343.739288 165.154968 C 344.456299 165.718323 344.831879 166 344.865997 166 C 345.13916 166 345.634216 165.590286 346.351196 164.770874 C 346.829224 164.429428 347.392578 164.19046 348.04126 164.053879 C 348.997253 162.858902 349.697174 162.261383 350.141052 162.261383 L 350.345917 162.056534 C 350.619049 161.612656 350.892151 161.271271 351.165344 161.032257 C 351.438477 160.793243 351.626251 160.53717 351.728699 160.264053 C 351.831116 159.990936 351.950592 159.85434 352.087189 159.85434 L 352.240845 159.85434 C 352.445679 160.059189 352.582214 160.161621 352.650543 160.161621 C 353.606506 159.376373 354.238159 158.676422 354.545441 158.061859 L 355.364868 157.549713 C 355.569733 157.242432 355.902618 156.909546 356.363556 156.551056 C 356.824463 156.192551 357.293884 155.603592 357.771912 154.78418 L 358.181641 154.681747 C 358.454742 153.998917 358.744995 153.623306 359.052277 153.555038 L 359.359558 153.350189 C 359.769257 152.838043 360.170349 152.445389 360.56308 152.172272 C 360.955688 151.899139 361.220306 151.438217 361.356903 150.78949 C 361.903137 150.516373 362.440887 150.04689 362.970123 149.381119 C 363.499329 148.715332 363.917572 148.280014 364.224854 148.075165 C 364.532166 147.8703 364.685791 147.597183 364.685791 147.255737 L 364.583374 145.872971 L 364.685791 145.668106 C 365.129608 145.531525 365.863708 144.934067 366.888 143.875626 C 367.365967 142.509903 367.826813 141.707596 368.270752 141.468582 L 368.475616 140.854004 L 368.475616 139.573669 C 368.543884 139.368805 368.774292 139.232224 369.166992 139.163956 C 369.559601 139.095688 369.755951 138.890839 369.755951 138.549393 L 369.755951 138.344528 C 369.653534 137.695801 369.602325 137.303207 369.602325 137.166611 C 369.602325 136.961761 369.832794 136.628876 370.293701 136.167938 C 370.754639 135.707016 370.985107 134.708344 370.985107 133.171936 C 370.985107 131.089218 370.16568 128.912689 368.526825 126.642181 C 366.888 124.371643 365.931976 123.338867 365.658844 123.543732 C 365.351563 123.134033 365.197937 122.860901 365.197937 122.724304 C 365.197937 122.417023 365.394165 122.092712 365.786896 121.751251 C 366.179474 121.40979 366.51239 121.239105 366.785553 121.239105 L 367.092834 121.239105 L 367.758636 120.624542 C 368.168335 120.487946 368.492676 120.257507 368.731689 119.933167 C 368.970642 119.608826 369.235199 119.378357 369.525513 119.24176 C 369.815674 119.105194 370.268097 118.797913 370.88266 118.319916 C 371.497223 117.841949 372.060577 117.517548 372.572723 117.346863 C 372.982422 116.7323 373.187286 116.390839 373.187286 116.322571 L 374.160339 116.425018 C 374.296875 116.35675 374.467621 116.220154 374.672485 116.01532 C 376.295807 114.679291 377.625977 113.624329 378.662994 112.850464 L 378.312744 114.017975 L 378.312744 115.656799 C 378.10788 116.100677 377.937134 116.390839 377.800598 116.527435 L 377.903015 117.654144 L 377.800598 118.627197 L 377.800598 118.832062 C 377.800598 119.446625 378.073761 120.300232 378.620026 121.392761 C 379.16626 122.485291 379.729614 123.23645 380.310059 123.646179 L 381.027069 124.260742 C 381.231934 124.568024 381.49649 124.807037 381.820892 124.977722 C 382.145264 125.148407 382.495148 125.455704 382.870758 125.899567 C 383.246368 126.343445 383.613373 126.582397 383.971863 126.616562 C 384.330353 126.650726 384.663239 126.812866 384.97052 127.103104 C 385.277802 127.393326 385.567993 127.538422 385.841156 127.538422 C 385.977692 127.538422 386.267975 127.435989 386.711792 127.23114 L 387.531219 127.333557 C 388.589661 127.333557 389.255371 127.205521 389.528564 126.949463 C 389.801758 126.69339 390.151611 126.548309 390.57843 126.51413 C 391.00528 126.47998 391.483185 126.32634 392.012421 126.053223 C 392.541687 125.78009 392.993988 125.592285 393.369598 125.489868 C 393.745209 125.387436 394.359772 125.011887 395.213287 124.363159 L 395.725433 124.465576 C 395.930298 124.465576 396.280304 124.158295 396.77533 123.543732 C 397.270355 122.929169 397.68866 122.621887 398.03006 122.621887 C 398.166595 122.621887 398.303253 122.690155 398.439758 122.826752 L 400.846832 120.72699 C 401.119995 120.590393 401.316223 120.428253 401.435791 120.240448 C 401.555328 120.052643 401.751556 119.873383 402.02475 119.702698 C 402.297913 119.532013 402.468536 119.25882 402.536865 118.88327 C 402.605194 118.507721 402.775818 118.18335 403.049011 117.910217 C 403.322205 117.637085 403.569641 117.252991 403.791626 116.757904 C 404.01358 116.262817 404.1586 115.964081 404.226929 115.861664 L 404.53421 115.451965 C 404.602539 115.247101 404.756195 115.076416 404.995148 114.939819 C 405.2341 114.803223 405.404846 114.513062 405.507263 114.069183 L 405.916992 112.635193 L 405.763336 111.610901 C 405.763336 111.508484 405.95108 111.286591 406.326691 110.945129 L 406.429138 110.535431 L 406.326691 106.335876 L 405.763336 104.543396 C 405.217102 103.723999 404.807404 103.058197 404.53421 102.546082 C 403.748901 102.272949 403.356293 102.068085 403.356293 101.931519 C 403.356293 101.86322 403.646454 101.402313 404.226929 100.548737 C 404.226929 99.524445 403.894043 98.824524 403.228271 98.448975 C 402.562469 98.073425 401.913818 97.774628 401.282135 97.552734 C 400.650452 97.330811 400.300568 97.185669 400.232239 97.117401 C 399.993286 96.980804 399.327515 96.758911 398.234924 96.45163 L 396.749725 95.939484 C 396.476532 95.939484 396.118042 96.067505 395.674225 96.323578 C 395.230408 96.579651 394.803589 96.767456 394.39386 96.886932 C 393.984161 97.006409 393.540344 97.143005 393.062317 97.296661 C 392.58429 97.450287 392.208801 97.5271 391.935608 97.5271 C 391.047852 97.5271 389.639557 98.013641 387.71048 98.986694 C 385.781403 99.959778 384.620514 100.676758 384.227936 101.137695 C 383.835327 101.598602 383.254852 101.948547 382.486664 102.187561 C 381.718445 102.426575 381.095398 102.733887 380.61734 103.109436 C 380.173553 103.860565 379.644287 104.304382 379.029724 104.440979 C 377.937134 105.192139 377.22876 105.832306 376.904358 106.361511 C 376.579956 106.890686 376.187347 107.215088 375.72644 107.334564 C 375.265503 107.454041 374.761871 107.914978 374.215637 108.717346 C 373.669373 109.519714 373.39621 110.057434 373.39621 110.330566 L 373.594574 111.157104 L 373.289703 111.354858 C 373.153137 111.593872 372.931213 111.764557 372.623932 111.866974 C 372.31665 111.969421 372.163025 112.191315 372.163025 112.532776 L 372.265442 113.352173 L 371.804504 113.557037 L 371.702087 113.557037 C 371.292389 113.283936 371.053345 113.147339 370.985107 113.147339 C 370.848511 113.147339 370.660706 113.292419 370.421753 113.582642 C 370.182709 113.872864 369.892487 114.035004 369.551117 114.069183 C 369.209595 114.103333 368.953583 114.359406 368.782898 114.837402 L 368.578033 114.939819 C 368.168335 115.076416 367.869537 115.289764 367.681793 115.579987 C 367.493988 115.870209 367.297699 116.01532 367.092834 116.01532 C 367.024506 116.01532 366.751404 115.929932 366.273407 115.759247 C 365.931915 116.134766 365.727112 116.322571 365.658844 116.322571 C 365.590515 116.186005 365.556427 116.083557 365.556427 116.01532 L 365.761292 114.786163 C 365.897797 113.796051 366.205109 113.155884 366.683136 112.865662 C 367.161102 112.575409 367.485443 112.003571 367.656189 111.149994 L 367.861053 110.125702 C 368.475616 109.033173 368.782898 108.469818 368.782898 108.435669 L 368.578033 107.30896 C 368.578033 106.762665 368.919434 106.438324 369.602325 106.335876 L 369.960815 105.926178 C 370.029083 105.448212 370.233887 104.893341 370.575378 104.261719 C 370.916779 103.630127 371.155792 102.921631 371.292389 102.136353 C 371.59967 101.86322 371.92392 101.30838 372.265442 100.471924 C 372.606812 99.635437 372.948212 98.909882 373.289703 98.295319 C 373.631104 97.680756 373.801849 97.117401 373.801849 96.605255 L 373.801849 96.400391 L 374.467621 95.427338 C 375.150452 95.154236 375.671173 94.471344 376.029663 93.378784 C 376.388153 92.286255 376.806366 91.500916 377.284393 91.022949 C 378.547638 90.27179 379.332947 89.349945 379.640228 88.257416 C 379.94751 87.164856 380.254791 86.464935 380.562073 86.157654 C 380.869354 85.850342 381.270447 85.244354 381.765594 84.339539 C 382.26062 83.434753 382.508209 82.897003 382.508209 82.726318 C 382.508209 82.658051 382.405762 82.419037 382.200928 82.009338 C 382.542297 81.804474 382.909302 81.317932 383.302032 80.549744 C 383.694611 79.781525 383.890991 79.329163 383.890991 79.192566 C 383.890991 79.124298 383.754395 79.030365 383.481262 78.910889 C 383.208099 78.791412 383.071564 78.629211 383.071564 78.424347 C 383.071564 78.219482 383.361725 78.014648 383.9422 77.809784 C 384.522583 77.604919 384.872528 77.186676 384.992065 76.555054 C 385.111542 75.923431 385.307861 74.873535 385.581024 73.405396 C 385.854156 71.937256 385.990753 71.06662 385.990753 70.793488 L 385.888306 69.308289 C 385.888306 68.761993 385.854156 68.32666 385.785889 68.00235 C 385.71756 67.678009 385.623688 67.063446 385.504211 66.15863 C 385.384674 65.253845 385.043274 64.451538 384.47995 63.751587 C 383.916595 63.051636 383.515381 62.701721 383.276398 62.701721 C 382.559418 62.701721 381.850922 62.983398 381.151031 63.546753 C 380.451019 64.110107 380.032837 64.673431 379.896301 65.236786 C 379.759705 65.80014 379.486603 66.337891 379.076874 66.850037 C 378.667175 67.362183 378.257446 68.301086 377.847748 69.666809 C 377.438049 71.032532 377.04538 71.7836 376.66983 71.920197 C 376.601501 72.807892 376.533234 73.337128 376.464966 73.507813 L 375.696777 74.122375 L 375.184631 75.812439 C 374.535828 76.87088 373.528687 79.465698 372.163025 83.596954 C 372.094696 84.006653 371.847168 84.646851 371.42041 85.517456 C 370.993591 86.388123 370.532654 87.787933 370.037628 89.71701 C 369.54248 91.646088 368.953583 92.917877 368.270752 93.53244 C 368.270752 94.2836 367.536652 95.819946 366.068573 98.141663 C 365.283234 98.858673 364.122437 99.985382 362.586029 101.52179 L 359.769257 104.697052 C 358.642548 105.994507 357.976776 106.643188 357.771912 106.643188 C 354.289337 109.511139 352.548126 111.303619 352.548126 112.02063 L 352.300293 113.727814 L 350.444214 115.144653 C 349.419952 115.554382 348.694397 115.887268 348.267639 116.143341 C 347.840851 116.399414 347.507965 116.561615 347.268951 116.629883 L 346.142273 117.756561 L 345.322845 117.654144 C 344.605835 117.654144 344.144928 117.756561 343.940063 117.961426 C 343.803467 117.893158 343.70105 117.824829 343.632782 117.756561 C 344.110748 117.517548 344.349762 117.210266 344.349762 116.834717 L 344.349762 114.734955 C 344.349762 114.53009 344.383911 114.427673 344.452209 114.427673 C 344.827759 114.086243 345.015564 113.83017 345.015564 113.659485 L 344.708282 112.430328 C 344.708282 112.225494 344.947266 111.952362 345.425262 111.610901 L 345.630127 110.535431 C 346.347107 110.398834 346.995819 108.862488 347.576233 105.926178 L 348.446869 101.931519 C 348.446869 101.009644 347.909149 100.045135 346.833649 99.037903 C 345.758148 98.030701 344.725311 97.5271 343.735199 97.5271 C 343.052338 97.5271 342.497528 97.74054 342.07077 98.167297 C 341.643982 98.594055 341.15744 98.944031 340.611176 99.217163 L 339.945374 99.524445 C 339.569794 100.07074 337.057709 103.565735 336.443146 103.958374 C 335.828583 104.351044 335.418884 104.752197 335.21402 105.161926 C 335.164307 105.145355 335.123627 105.412231 335.09494 105.825012 C 335.057251 105.855377 335.016785 105.889099 334.973511 105.926178 C 334.734558 106.131042 334.46994 106.301727 334.179718 106.438324 C 333.889526 106.574921 333.718781 106.856598 333.667572 107.283356 C 333.616364 107.710114 333.300568 108.196655 332.720123 108.74295 L 332.412842 108.74295 C 331.832428 108.74295 330.995941 109.733063 329.903351 111.713348 C 329.664398 111.849945 329.237579 111.952362 328.623016 112.02063 C 328.486481 112.157227 328.256012 112.55838 327.93161 113.224152 C 327.6073 113.889923 327.308563 114.222809 327.03537 114.222809 L 326.420807 114.222809 C 326.215942 114.427673 326.045258 114.56427 325.908661 114.632538 C 325.908661 115.827515 325.652618 116.425018 325.140472 116.425018 L 324.628326 116.425018 C 324.491791 116.425018 324.303986 116.544495 324.064972 116.783508 C 323.826019 117.022522 323.561401 117.176178 323.271149 117.244446 C 322.980988 117.312714 322.733429 117.517548 322.528564 117.859009 L 322.528564 118.52478 C 322.528564 119.071075 322.35788 119.344208 322.016418 119.344208 C 321.811554 119.344208 321.538452 119.27594 321.196991 119.139343 C 321.196991 119.071075 321.162903 119.036926 321.094574 119.036926 L 319.199646 120.061188 C 318.414398 120.573334 317.98764 120.829407 317.919312 120.829407 L 316.690186 120.624542 C 316.041473 120.624542 315.631805 120.061188 315.46106 118.934509 L 315.204987 117.551727 L 315.307404 116.425018 C 315.307404 116.220154 315.170868 115.861664 314.897705 115.349518 C 315.444 113.369232 315.717133 112.293762 315.717133 112.123047 L 315.512268 110.740295 C 315.887878 110.159882 316.126831 109.630615 316.229248 109.152649 L 316.331696 109.152649 C 317.458435 109.664795 318.311981 109.920868 318.892365 109.920868 C 319.711823 109.920868 320.15567 109.502594 320.223938 108.666107 C 320.292267 107.829651 320.787292 107.087036 321.709137 106.438324 L 323.501617 104.645844 C 323.706482 104.167847 323.877228 103.860565 324.013763 103.723999 C 324.15036 102.938721 324.49176 102.477814 325.038025 102.341217 C 325.277069 101.692474 325.669678 101.248657 326.215942 101.009644 L 327.137817 99.114746 C 327.376831 98.909882 327.598724 98.594055 327.803589 98.167297 C 328.008453 97.74054 328.298676 97.441742 328.674225 97.271057 C 329.049835 97.100342 329.288788 96.912537 329.391205 96.707703 C 329.493652 96.502838 329.698486 95.734619 330.005768 94.403076 C 330.483826 94.471344 331.183685 93.669006 332.10556 91.996033 L 333.437103 89.53775 C 333.676117 88.752502 333.96637 88.172028 334.307739 87.796478 C 334.6492 87.420929 334.922302 87.062439 335.127167 86.721008 L 335.639313 85.901581 C 336.356323 85.18457 336.765991 84.570007 336.868439 84.057861 C 336.970856 83.545746 337.252533 83.059204 337.71347 82.598267 C 338.174377 82.13736 338.404846 81.667877 338.404846 81.189911 L 338.25119 80.421692 L 338.814545 80.421692 C 339.087738 80.421692 339.343811 79.986389 339.582764 79.115723 C 339.821777 78.245117 340.154663 77.562286 340.581421 77.0672 C 341.00827 76.572083 341.255768 76.222168 341.324036 76.017303 C 341.324036 74.583313 341.631317 73.815125 342.24588 73.712677 C 342.314209 73.576111 342.382477 72.944458 342.450745 71.81778 C 342.689758 71.612915 342.877563 71.510498 343.014099 71.510498 C 343.218933 71.510498 343.560394 70.571594 344.038361 68.693726 L 344.243225 68.284027 C 344.755371 67.771881 345.011444 67.276794 345.011444 66.798828 C 345.011444 65.603851 344.499329 64.536865 343.475006 63.597961 C 342.450745 62.659058 341.306976 62.189575 340.043701 62.189575 C 339.497406 62.189575 339.019409 62.257843 338.609711 62.394409 L 338.25119 62.496857 C 338.182953 62.496857 337.875671 62.633453 337.329346 62.906555 L 336.714783 63.316284 C 335.861237 63.760132 335.434448 64.579559 335.434448 65.774536 L 334.717438 65.979401 C 334.239471 66.35495 333.710297 66.662231 333.129822 66.901245 C 332.242126 68.1987 331.832428 69.035156 331.900696 69.410706 L 330.825195 70.281372 C 330.483826 70.827667 330.057007 71.203217 329.544861 71.408051 C 329.169312 72.090881 328.896179 72.551819 328.725433 72.790833 L 328.315735 73.507813 L 326.932953 75.095459 C 326.591553 75.983154 326.33551 76.589203 326.164734 76.913544 C 325.994049 77.237885 325.908661 77.297668 325.908661 77.092804 L 325.806244 78.117065 C 325.635559 78.356079 325.464874 78.7146 325.294098 79.192566 L 324.321045 79.294983 C 323.77478 80.046143 323.3992 80.746033 323.194336 81.394775 C 322.68219 81.667877 322.084747 82.436096 321.401855 83.699371 C 320.992157 83.870056 320.616608 84.245667 320.275146 84.82608 L 319.199646 87.028259 L 317.407166 89.998688 C 317.543762 90.476654 317.61203 90.749847 317.61203 90.818115 C 317.61203 90.954681 317.543762 91.091217 317.407166 91.227814 L 316.89505 91.330231 C 316.55365 91.944824 316.289032 92.414276 316.101227 92.738617 C 315.913483 93.062958 315.674469 93.447052 315.384216 93.89093 C 315.094055 94.334808 314.931854 94.60791 314.897705 94.710358 L 313.207642 98.807465 L 312.18338 101.931519 C 311.876099 102.853363 311.500549 103.570343 311.056671 104.082489 C 310.612823 104.594604 310.390869 105.243347 310.390869 106.028595 C 310.390869 106.096863 310.493317 106.404144 310.698151 106.95047 C 310.664063 106.984619 310.527466 107.30896 310.288452 107.923523 L 310.10199 108.565765 C 310.048798 108.388611 309.921814 108.17453 309.721039 107.923523 C 309.447876 107.582062 309.208893 107.411377 309.004059 107.411377 C 308.423615 107.411377 307.86026 107.829651 307.313995 108.666107 C 306.7677 109.502594 306.178741 110.057434 305.547119 110.330566 C 304.915466 110.603699 304.548431 110.970734 304.446014 111.431671 C 304.343597 111.892578 304.036316 112.123047 303.52417 112.123047 L 302.704742 112.840057 C 302.295044 113.181488 301.936523 113.608246 301.629242 114.120392 L 301.117126 114.325256 C 300.912262 114.393524 300.562286 114.74353 300.06723 115.375122 C 299.572144 116.006744 298.77832 116.459167 297.685791 116.7323 C 297.446777 116.527435 297.327301 116.100677 297.327301 115.451965 L 297.532135 114.017975 L 297.429718 112.73761 C 297.429718 112.464508 297.574799 112.148651 297.865051 111.790161 C 298.155243 111.431671 298.300354 111.149994 298.300354 110.945129 L 298.300354 110.842712 L 299.017365 108.74295 C 299.085602 108.401489 299.188049 108.094208 299.324646 107.821106 C 301.304901 105.84082 302.295044 103.741089 302.295044 101.52179 C 302.295044 99.643921 301.560974 98.705017 300.092834 98.705017 C 298.04425 98.705017 296.704163 99.328156 296.07254 100.574341 C 295.440918 101.820526 294.954376 102.443634 294.612976 102.443634 C 294.339813 102.443634 294.169098 102.136353 294.10083 101.52179 C 293.895966 98.58548 292.735107 97.117401 290.618286 97.117401 C 290.413422 97.117401 290.242706 97.15155 290.10614 97.219849 L 289.286713 97.629547 L 289.184296 97.629547 C 288.67215 97.356415 288.347778 97.219849 288.211243 97.219849 L 287.903961 97.219849 C 286.230957 98.073425 285.326172 98.500183 285.189606 98.500183 L 284.779907 98.500183 C 284.336029 98.500183 283.730011 98.722076 282.961823 99.165955 C 282.193604 99.609833 281.408325 99.976807 280.605988 100.267059 C 279.803619 100.557281 279.086609 101.009644 278.454987 101.624207 C 277.823364 102.23877 277.405121 102.580231 277.200256 102.648499 C 275.800385 103.365479 274.502991 104.321503 273.308014 105.516479 L 271.771606 107.052887 C 270.917999 107.633301 270.337616 108.162537 270.030334 108.640503 C 269.723053 109.1185 269.313324 109.587982 268.801208 110.048889 C 268.289063 110.509827 268.050049 110.945129 268.084198 111.354858 L 267.572052 112.02063 C 267.367218 112.157227 266.966034 112.694946 266.36853 113.63385 C 265.771027 114.572754 265.47229 115.110504 265.47229 115.247101 L 265.574738 116.629883 C 264.925995 116.629883 264.601654 116.834717 264.601654 117.244446 L 264.704102 118.934509 L 264.704102 119.24176 C 264.635803 119.378357 264.601654 119.651489 264.601654 120.061188 C 264.601654 120.914795 264.75531 121.580566 265.062592 122.058533 L 265.574738 124.158295 C 265.677155 124.875305 266.342926 125.489868 267.572052 126.001999 C 268.801208 126.51413 269.876678 126.770203 270.798523 126.770203 C 271.925232 126.770203 273.854248 125.865479 276.585693 124.055878 L 276.892975 123.748596 C 277.678223 123.338867 278.275757 122.997437 278.685455 122.724304 L 282.577728 119.549072 C 283.055695 119.207611 283.448334 118.772278 283.755646 118.243103 C 284.062927 117.713928 284.250702 117.415131 284.31897 117.346863 L 285.292053 117.44928 L 285.804199 116.937164 C 285.974884 116.69812 286.282166 116.501831 286.726044 116.348206 C 287.169861 116.19455 287.425934 115.99826 287.494232 115.759247 L 287.699097 115.451965 C 288.108795 115.178833 288.450226 114.871552 288.723358 114.53009 C 288.894073 113.881378 289.115997 113.45462 289.38916 113.249756 C 289.867126 113.249756 290.2854 113.079071 290.64389 112.73761 C 291.00238 112.396179 291.249908 112.225494 291.386505 112.225494 C 291.523041 112.225494 291.591339 112.327911 291.591339 112.532776 L 291.284058 115.042236 C 291.284058 115.178833 291.318207 115.349518 291.386505 115.554382 C 291.454742 115.759247 291.488922 115.947052 291.488922 116.117737 C 291.488922 116.254333 291.454742 116.35675 291.386505 116.425018 C 291.318207 116.493286 291.284058 116.595703 291.284058 116.7323 C 291.284058 116.868896 291.369415 117.039581 291.540131 117.244446 C 291.710815 117.44928 291.796204 117.619995 291.796204 117.756561 L 291.591339 118.729645 C 291.591339 119.412476 291.744995 119.950226 292.052277 120.342865 C 292.359558 120.735535 292.530243 121.0513 292.564423 121.290344 C 292.598541 121.529358 292.718048 121.751251 292.922913 121.956116 C 293.503296 122.024384 294.06665 122.186584 294.612976 122.442627 C 295.159241 122.6987 295.756714 122.826752 296.405457 122.826752 C 296.541992 122.826752 296.789551 122.73288 297.148041 122.545074 C 297.506531 122.357269 298.052795 122.16095 298.786896 121.956116 C 299.520935 121.751251 300.058685 121.478149 300.400116 121.136688 L 300.502563 120.624542 C 300.98053 120.487946 301.390228 120.33432 301.731689 120.163635 C 302.277954 119.549072 302.781555 119.207611 303.242493 119.139343 C 303.70343 119.071075 304.06192 118.763794 304.317993 118.217499 C 304.574036 117.671204 305.077637 117.278595 305.828796 117.039581 L 306.340942 116.322571 C 306.989624 115.878723 307.390808 115.503174 307.544464 115.195892 C 307.69809 114.888611 308.030975 114.598358 308.543121 114.325256 L 308.901611 113.659485 L 309.106476 112.225494 C 309.21167 112.041382 309.308746 111.858093 309.397736 111.675629 C 309.448883 111.915283 309.523865 112.16684 309.622681 112.430328 C 309.554413 112.703461 309.520233 113.079071 309.520233 113.557037 L 309.520233 113.915527 L 310.186035 114.837402 C 310.186035 114.90564 309.929962 114.973969 309.417816 115.042236 L 309.315399 115.349518 L 309.315399 116.322571 L 309.212952 116.937164 L 309.212952 117.44928 C 309.212952 118.029694 309.409302 118.567444 309.80191 119.062531 C 310.19458 119.557617 310.390869 119.822174 310.390869 119.856354 C 310.390869 120.948883 310.834747 122.067078 311.722443 123.210846 C 312.610199 124.354614 313.344238 124.926514 313.924652 124.926514 C 314.061218 124.926514 314.419739 124.858246 315.000122 124.721649 C 315.546417 124.994781 316.032959 125.165527 316.459717 125.233795 C 316.886536 125.302063 317.202332 125.40448 317.407166 125.541077 C 317.61203 125.40448 317.936401 125.336212 318.380249 125.336212 C 318.755859 125.336212 319.233826 125.131363 319.81424 124.721649 L 320.019073 124.721649 C 320.428802 124.789917 320.667816 124.824097 320.736084 124.824097 C 320.90683 124.824097 321.111694 124.713104 321.350647 124.49118 C 321.589661 124.269287 321.845734 124.141235 322.118835 124.107086 C 322.392029 124.072937 322.596893 123.919281 322.733429 123.646179 C 322.869995 123.373047 323.202881 123.134033 323.732086 122.929169 C 324.261322 122.724304 324.628326 122.476807 324.833191 122.186584 C 325.038025 121.896332 325.294098 121.700043 325.601379 121.597595 C 325.908661 121.495178 326.215942 121.170837 326.523224 120.624542 L 327.342651 120.72699 C 327.342651 120.658722 327.39386 120.624542 327.496307 120.624542 C 328.179199 119.429565 328.751038 118.712585 329.211975 118.473572 C 329.672882 118.234558 330.108215 117.585876 330.517914 116.527435 L 331.03006 116.220154 L 331.900696 116.01532 C 332.173859 115.400726 332.566467 114.931274 333.078613 114.606934 C 333.590759 114.282593 333.957794 113.924103 334.179718 113.531433 C 334.401672 113.138763 334.68335 112.908325 335.024719 112.840057 C 335.36618 112.77179 335.536865 112.242523 335.536865 111.252411 C 335.536865 110.774445 335.682007 110.339111 335.972198 109.946472 C 336.262421 109.553802 336.407501 109.289246 336.407501 109.152649 L 336.366608 108.977448 L 337.211365 109.259033 C 337.928345 108.712708 340.372162 105.414032 340.508728 105.414032 C 340.918457 105.414032 341.123291 105.618896 341.123291 106.028595 C 341.123291 106.131042 340.969666 106.438324 340.662384 106.95047 C 340.355103 107.462585 340.175842 107.949127 340.124634 108.410034 C 340.073425 108.870972 339.911224 109.238037 339.638092 109.511139 L 339.125977 110.228149 L 338.921112 111.149994 C 338.716248 111.798706 338.579651 112.259644 338.511414 112.532776 C 338.306549 112.669342 338.135834 112.942474 337.999268 113.352173 L 337.743195 114.632538 C 337.674896 114.90564 337.606598 115.255646 337.53833 115.682404 C 337.470032 116.109192 337.367615 116.442078 337.231049 116.681091 C 337.094452 116.920105 337.026184 117.500488 337.026184 118.422363 L 337.128632 118.729645 L 337.026184 119.446625 C 337.026184 119.514893 337.128632 119.83075 337.333466 120.394073 C 337.53833 120.957428 337.640778 121.307373 337.640778 121.44397 L 337.53833 122.16095 L 337.53833 122.468262 C 337.53833 123.25351 337.956573 123.996094 338.79306 124.696045 C 339.629547 125.395996 340.338013 125.745926 340.918457 125.745926 L 341.942719 125.438644 L 342.710938 125.541077 C 342.915802 125.541077 343.188904 125.361832 343.530365 125.003326 C 343.871765 124.644836 344.272949 124.448547 344.733887 124.414368 C 345.194794 124.380219 345.527679 124.294891 345.732544 124.158295 L 346.654388 123.646179 C 347.098236 123.304718 347.601868 123.023041 348.165192 122.801147 C 348.728546 122.579224 349.044373 122.434082 349.112671 122.365814 L 349.419952 121.853668 L 351.622131 120.266052 C 352.03186 119.99292 352.552551 119.540497 353.184174 118.908875 C 353.815765 118.277283 354.583984 117.654144 355.4888 117.039581 C 356.393585 116.425018 356.948395 115.955536 357.153229 115.631195 C 357.358093 115.306854 357.622711 115.008087 357.947052 114.734955 C 358.271393 114.461853 358.55307 113.975311 358.792084 113.27536 C 359.031097 112.575409 359.295654 111.977966 359.585907 111.48288 C 359.739105 111.221558 359.851837 110.924561 359.924164 110.591919 C 360.475128 109.913849 360.918518 109.587708 361.254456 109.613586 L 361.254456 110.023285 C 361.254456 110.501251 361.041046 110.987793 360.614288 111.48288 C 360.187469 111.977966 359.905792 112.430328 359.769257 112.840057 L 359.359558 114.017975 C 359.018036 114.53009 358.847412 115.195892 358.847412 116.01532 C 358.847412 116.288422 358.727875 116.527435 358.488922 116.7323 C 357.464569 117.790741 356.952515 118.797913 356.952515 119.753906 C 354.699036 120.744019 353.572388 121.40979 353.572388 121.751251 C 353.572388 122.092712 353.922333 122.459686 354.622284 122.852356 C 355.322144 123.244995 355.67215 123.543732 355.67215 123.748596 C 355.67215 124.055878 355.424591 124.414368 354.929565 124.824097 C 354.434479 125.233795 354.118622 125.78009 353.982117 126.462921 L 352.75296 129.535751 C 351.899384 130.696625 351.062927 132.864655 350.2435 136.039917 C 350.2435 136.244766 350.081299 136.48378 349.756958 136.756897 C 349.432556 137.030029 349.270386 137.234879 349.270386 137.371475 L 348.963104 138.65181 Z M 359.257141 132.147659 L 359.052277 129.945465 C 359.939972 129.467499 360.38382 129.074829 360.38382 128.767548 L 360.281403 127.640839 L 360.281403 127.435989 C 360.281403 126.923859 360.460663 126.599518 360.819153 126.462921 C 361.177643 126.32634 361.390991 126.223907 361.45932 126.15564 L 361.869019 125.95079 C 362.142151 125.95079 362.577393 126.181244 363.174988 126.642181 C 363.77243 127.103104 364.105316 127.504257 364.173645 127.845703 C 364.241913 128.187149 364.310181 128.391998 364.37851 128.460266 C 365.334473 130.064941 365.8125 131.3965 365.8125 132.454941 C 365.8125 133.069504 365.675903 133.556046 365.402771 133.914536 C 365.129608 134.273041 364.941864 134.733963 364.839447 135.297302 C 364.737 135.860657 364.600403 136.364243 364.429718 136.808121 C 364.258972 137.251984 364.071228 137.840958 363.866364 138.574997 C 363.66153 139.309036 363.157867 140.222397 362.35556 141.314941 C 361.553131 142.407471 361.152039 143.090363 361.152039 143.363495 L 361.152039 143.568344 L 361.356903 144.182907 L 361.254456 144.541412 C 360.947174 144.814529 360.70816 145.155975 360.537476 145.565689 C 360.36673 145.975388 359.974121 146.538742 359.359558 147.255737 C 359.222961 147.904465 359.009552 148.348282 358.719391 148.587296 C 358.429077 148.826324 358.181641 149.167694 357.976776 149.611572 C 357.771912 150.05545 357.473145 150.439545 357.080536 150.763885 C 356.687866 151.088226 356.35498 151.796722 356.081879 152.889267 L 355.877014 152.991684 L 355.160034 152.991684 C 355.023438 153.162384 354.903961 153.401398 354.801514 153.708679 C 354.699097 154.015961 354.579559 154.203766 354.443024 154.272034 L 354.084534 154.374466 C 353.81134 154.647583 353.572388 154.818329 353.367523 154.886597 C 353.162689 154.954865 352.974884 155.15123 352.804199 155.475555 C 352.633423 155.799896 352.360321 155.996246 351.984772 156.064514 L 351.882324 156.269379 C 351.643311 156.952209 351.361633 157.31926 351.037292 157.370468 C 350.712921 157.421692 350.482452 157.515549 350.345917 157.652145 C 350.038635 158.403305 349.782562 158.778854 349.577667 158.778854 C 349.441132 158.778854 349.338684 158.710587 349.270386 158.57399 C 349.577667 157.515549 349.833771 156.670532 350.038635 156.03891 C 350.2435 155.407288 350.448334 154.61348 350.653198 153.657471 C 350.926331 153.384354 351.148224 152.778275 351.31897 151.839371 C 351.489685 150.900482 351.728699 150.115158 352.03598 149.483536 C 352.343262 148.851929 352.727356 147.981293 353.188293 146.871643 C 353.6492 145.761978 353.913788 144.951111 353.982117 144.43898 L 354.289398 144.080475 C 354.733185 143.773193 355.074646 143.056213 355.31366 141.929504 C 355.552612 140.802795 355.67215 140.017532 355.67215 139.573669 L 355.569733 138.44696 C 355.569733 138.310364 355.603821 138.173843 355.67215 138.037247 L 356.184296 138.037247 C 356.764709 138.037247 357.140259 137.678757 357.311005 136.961761 C 357.481689 136.244766 357.848755 135.297302 358.412109 134.119385 C 358.975464 132.941467 359.257141 132.284256 359.257141 132.147659 Z M 226.648087 97.731964 L 226.033524 98.346527 L 224.548325 102.341217 C 224.411758 102.546082 224.258118 103.075256 224.087402 103.928833 C 223.916702 104.78241 223.515518 106.079834 222.883881 107.821106 C 222.252258 109.562378 221.936417 110.56958 221.936417 110.842712 L 222.038849 111.354858 L 221.833984 112.73761 L 221.833984 113.044891 L 221.936417 113.45462 C 221.936417 114.1716 222.004715 115.093445 222.141281 116.220154 L 223.319199 120.061188 C 223.319199 120.129456 223.438705 120.359924 223.677689 120.752594 C 223.916702 121.145253 224.070343 121.580566 224.138611 122.058533 C 224.684921 122.570679 225.026337 122.929169 225.162888 123.134033 C 225.26532 123.98761 225.726242 124.516785 226.54567 124.721649 L 226.648087 124.926514 C 227.194397 126.15564 227.996735 126.770203 229.055145 126.770203 L 229.567276 126.770203 C 230.830566 127.555466 232.093842 127.94812 233.357101 127.94812 C 233.561951 127.94812 233.698547 127.913971 233.766815 127.845703 L 234.739868 127.333557 L 234.8423 127.333557 C 235.456863 127.606689 235.832443 127.743271 235.969009 127.743271 C 236.754303 127.743271 237.146927 127.009232 237.146927 125.541077 C 237.283508 125.541077 237.351776 125.643509 237.351776 125.848358 L 237.351776 126.053223 C 237.283508 126.189804 237.249359 126.292236 237.249359 126.360504 C 237.249359 126.633621 237.488373 126.770203 237.966339 126.770203 C 238.3078 126.770203 238.597992 126.599518 238.836975 126.258072 L 239.55397 126.053223 C 239.827133 126.053223 240.066116 125.814194 240.270966 125.336212 C 240.544113 125.40448 240.868484 125.438644 241.244034 125.438644 L 243.446228 124.721649 C 243.924225 124.721649 244.521713 124.192474 245.238708 123.134033 C 245.989868 123.065765 246.46785 122.801147 246.672699 122.34021 C 246.877548 121.879272 247.014145 121.648834 247.082413 121.648834 C 248.413971 121.44397 249.259003 121.059875 249.617493 120.496521 C 249.975983 119.933167 250.223526 119.600281 250.360092 119.497833 C 250.496689 119.395416 250.564941 119.27594 250.564941 119.139343 L 250.25766 118.422363 C 250.530823 118.046814 250.80397 117.790741 251.077087 117.654144 C 251.213684 118.234558 251.435577 118.52478 251.742859 118.52478 C 251.947723 118.52478 252.152573 118.362579 252.357437 118.038239 C 252.562286 117.713928 252.750092 117.483459 252.920792 117.346863 C 253.091507 117.210266 253.279282 116.860321 253.484131 116.296997 C 253.688995 115.733643 254.038956 115.434906 254.534012 115.400726 C 255.029114 115.366577 255.421738 115.178833 255.711945 114.837402 C 256.002167 114.495941 256.181427 114.291077 256.249695 114.222809 L 256.966675 114.325256 C 257.034973 114.325256 257.069092 114.291077 257.069092 114.222809 C 257.410553 113.539978 258.212891 112.583984 259.476166 111.354858 C 260.261444 111.423096 260.722382 111.013397 260.858917 110.125702 C 260.927216 109.8526 261.217438 109.587982 261.729553 109.331909 C 262.241699 109.075836 262.787994 108.282013 263.368408 106.95047 C 264.39267 106.711426 265.143829 106.028595 265.621826 104.901917 C 265.724243 104.662872 265.937653 104.483643 266.261993 104.364166 C 266.586365 104.24469 266.799744 104.099548 266.902161 103.928833 C 267.072876 103.928833 267.175323 103.732544 267.209442 103.339874 C 267.243591 102.947235 267.414307 102.631439 267.721588 102.392426 L 269.565277 100.702362 L 269.667694 99.831726 L 270.384705 99.217163 C 270.657837 99.012329 270.794403 98.722076 270.794403 98.346527 C 270.794403 96.946655 270.350555 96.246765 269.46286 96.246765 C 269.223877 96.246765 269.070221 96.297974 269.001923 96.400391 L 267.977661 96.912537 C 266.509521 97.253998 265.775452 97.731964 265.775452 98.346527 C 265.775452 98.99527 265.638885 99.31958 265.365753 99.31958 L 264.956024 99.31958 C 264.40976 99.31958 264.01712 99.882935 263.778107 101.009644 L 263.470825 101.214508 L 263.061127 101.214508 C 262.548981 101.385193 262.275848 101.709595 262.241699 102.187561 C 262.207581 102.665558 262.088074 102.972839 261.883209 103.109436 L 261.063782 103.006989 L 259.271301 104.74826 C 258.247009 105.260406 257.717834 105.85791 257.683655 106.540741 C 256.352112 107.325989 255.652191 107.872314 255.583908 108.179596 C 255.51564 108.486877 255.413208 108.640503 255.276627 108.640503 L 255.174194 108.640503 C 254.832779 108.572266 254.593796 108.538086 254.457199 108.538086 C 254.08165 108.538086 253.757294 108.870972 253.484131 109.536743 C 253.211014 110.202545 252.391602 111.098785 251.025879 112.225494 C 249.660187 113.352173 248.891968 114.069183 248.721252 114.376465 C 248.550552 114.683746 248.311539 114.854431 248.004257 114.888611 C 247.696976 114.92276 247.509201 114.973969 247.440903 115.042236 C 246.792206 115.656799 245.870392 116.35675 244.675354 117.141998 C 244.333939 117.141998 243.949844 117.406647 243.523041 117.935822 C 243.096283 118.465027 242.814606 118.780853 242.678024 118.88327 C 242.541458 118.985718 242.404892 119.173523 242.268311 119.446625 L 241.961029 119.446625 C 241.278198 119.719757 240.783112 119.856354 240.47583 119.856354 C 240.134415 119.856354 239.801514 120.15506 239.477158 120.752594 C 239.152817 121.350098 238.580917 121.648834 237.76149 121.648834 L 236.942062 121.648834 C 236.156815 122.195129 235.414215 122.510895 234.714264 122.596283 C 234.014359 122.681671 233.561951 122.758484 233.357101 122.826752 C 233.152252 122.89502 232.844971 122.929169 232.435257 122.929169 C 231.991409 122.929169 231.701202 122.860901 231.564621 122.724304 C 230.847626 121.324493 230.318436 120.479462 229.97699 120.18924 C 229.635574 119.898987 229.430725 119.549072 229.362427 119.139343 C 229.738007 119.002747 229.959946 118.90033 230.028198 118.832062 L 229.669708 117.859009 L 230.13063 114.427673 C 230.13063 114.086243 229.942856 113.796051 229.567276 113.557037 C 229.942856 112.874207 230.198929 112.319336 230.33548 111.892578 C 230.472076 111.46582 230.693985 111.047546 231.001266 110.637848 C 231.308548 110.228149 231.462189 109.630615 231.462189 108.845367 C 231.462189 108.435669 231.257339 108.162537 230.847626 108.02594 C 231.701202 107.411377 232.127975 106.882202 232.127975 106.438324 L 232.127975 105.721313 L 232.230392 105.311615 C 232.435247 104.867747 232.537674 104.611674 232.537674 104.543396 L 233.254669 103.928833 C 233.254669 103.792236 233.459534 102.989929 233.869247 101.52179 C 234.381378 101.043823 234.70575 100.59137 234.8423 100.164612 C 234.978897 99.737854 235.166672 99.35376 235.405655 99.012329 C 235.644669 98.670868 235.815369 98.303894 235.917786 97.911224 C 236.020218 97.518555 236.327499 96.861328 236.839645 95.939484 L 236.737213 95.222473 C 236.737213 95.085907 236.848206 94.898163 237.070099 94.659149 C 237.292038 94.420105 237.454208 94.147003 237.556641 93.839722 C 237.829788 93.703125 238.068771 93.327576 238.273636 92.713013 L 238.734558 91.73996 C 239.144272 91.193665 239.417419 90.783936 239.55397 90.510803 L 239.246689 89.230469 C 240.919693 88.513489 241.756165 87.711121 241.756165 86.823425 L 241.756165 86.413696 C 241.961029 86.208862 242.165878 85.93573 242.370743 85.594299 L 242.780441 84.82608 C 243.292587 84.1091 243.616943 83.272614 243.75351 82.316589 C 243.958359 82.384888 244.257126 82.13736 244.64975 81.574005 C 245.042404 81.010651 245.238708 80.626556 245.238708 80.421692 C 245.238708 80.353424 245.119232 80.216827 244.880219 80.011993 L 244.982635 79.909546 L 245.648422 79.909546 L 246.058136 79.3974 C 247.048279 78.646271 247.543335 78.048798 247.543335 77.604919 C 248.123764 77.57077 248.465179 76.939148 248.567612 75.710022 L 248.772461 75.607605 L 249.182175 75.607605 L 249.540665 75.40274 L 251.486801 73.302979 C 251.725815 73.166382 251.845291 72.995697 251.845291 72.790833 L 251.845291 72.278687 L 251.947723 71.81778 L 252.767136 71.81778 L 253.176849 71.408051 C 253.586563 70.588623 253.876801 70.178925 254.047485 70.178925 C 254.832779 70.178925 255.276627 69.820435 255.379044 69.103455 L 256.249695 68.488861 L 257.069092 67.413391 C 257.683655 67.140259 258.170197 66.850037 258.528687 66.542755 C 258.887207 66.235474 259.185944 66.047668 259.424927 65.979401 C 259.663971 65.911133 259.868805 65.697723 260.03952 65.339233 C 260.210236 64.980713 260.380951 64.801483 260.551636 64.801483 C 260.688232 64.801483 260.824799 64.852692 260.961365 64.955109 C 261.097931 65.057556 261.234497 65.108765 261.371063 65.108765 C 261.712524 65.108765 262.446564 64.810028 263.573273 64.212524 C 264.699951 63.61499 265.502319 63.316284 265.980316 63.316284 C 266.526611 63.316284 266.927765 63.495514 267.183838 63.854004 C 267.439911 64.212524 267.63623 65.194092 267.772797 66.798828 C 267.363068 67.549988 267.081421 68.39502 266.927765 69.333893 C 266.774109 70.272797 266.629028 70.827667 266.492462 70.998352 C 265.946167 71.271484 265.673035 71.612915 265.673035 72.022644 L 265.673035 73.098114 L 265.570587 73.302979 C 264.853607 73.780945 264.495117 74.088226 264.495117 74.224823 L 264.495117 74.993042 L 264.290253 75.505157 L 262.292908 78.629211 C 261.746643 78.697479 261.234497 79.226715 260.7565 80.216827 C 259.69809 80.86557 259.168884 81.428925 259.168884 81.906891 C 259.168884 81.975159 259.237152 82.145905 259.373718 82.419037 L 258.96402 83.136017 C 258.759155 83.067749 258.622589 83.0336 258.554291 83.0336 C 254.627884 85.423584 252.664719 87.455048 252.664719 89.128052 C 252.664719 89.845032 253.048813 90.553467 253.817032 91.253418 C 254.585236 91.953369 255.362 92.303284 256.147247 92.303284 C 257.410553 92.303284 258.690887 91.244934 259.988281 89.128052 L 259.783447 88.001343 L 259.988281 88.001343 C 260.705292 87.694061 261.191803 87.241699 261.447876 86.644165 C 261.703949 86.046661 262.309998 85.235779 263.265991 84.211517 C 263.880554 82.879944 264.401245 81.949554 264.828003 81.420349 C 265.254791 80.891174 265.46817 80.592377 265.46817 80.524109 C 267.243591 78.441406 268.242279 76.819672 268.464172 75.658813 C 268.686127 74.497925 268.984863 73.584656 269.360413 72.918884 C 269.735992 72.253082 270.043274 71.151978 270.282257 69.61557 C 270.828583 69.171692 271.101685 68.659546 271.101685 68.079163 L 270.999268 66.286682 L 271.255341 64.135681 C 271.255341 62.633392 270.53833 61.353088 269.10434 60.294678 C 268.558075 59.884949 268.045929 59.458191 267.567932 59.014313 L 267.465515 59.014313 L 266.799744 59.47522 C 266.663177 59.47522 266.594879 59.441071 266.594879 59.372803 C 266.048615 58.928955 265.673035 58.707031 265.46817 58.707031 C 265.263306 58.707031 264.938995 58.818024 264.495117 59.039917 C 264.05127 59.261841 263.778107 59.372803 263.67569 59.372803 C 263.129425 59.372803 262.659973 59.441071 262.267303 59.577667 C 261.874664 59.714264 261.405243 59.816681 260.858917 59.884949 L 259.783447 60.294678 C 259.373718 60.636108 258.60553 60.994598 257.478821 61.370148 C 256.352112 61.745697 255.618073 62.189575 255.276627 62.701721 C 255.003494 62.769958 254.866913 62.906555 254.866913 63.11142 C 254.866913 63.486969 254.901077 63.743042 254.96933 63.879639 L 254.764481 63.982056 C 254.218216 63.606506 253.808502 63.418701 253.535355 63.418701 C 253.296356 63.418701 253.108582 63.504089 252.972 63.674774 L 252.459854 64.289337 C 251.025879 65.108765 249.702866 66.047668 248.490784 67.10611 C 247.278732 68.164551 246.672699 68.796143 246.672699 69.001007 L 246.775131 69.308289 C 247.150696 69.513153 247.33847 69.64975 247.33847 69.718018 C 247.33847 70.230133 247.150696 70.72522 246.775131 71.203217 C 246.638565 71.203217 246.570267 71.134949 246.570267 70.998352 C 246.194717 71.339783 245.930099 71.578735 245.776459 71.715332 C 245.622818 71.851929 245.494781 71.954346 245.392349 72.022644 L 245.341141 72.022644 C 245.341141 71.954346 245.887436 71.408051 246.97998 70.383789 C 246.97998 70.144775 246.877548 70.025269 246.672699 70.025269 L 246.160553 70.178925 C 245.955704 69.939911 245.819138 69.820435 245.750854 69.820435 C 245.375305 69.820435 244.282761 70.776367 242.47316 72.688416 C 241.073334 73.337128 240.270966 74.139435 240.066116 75.095459 L 239.656403 75.40274 C 239.383286 75.539337 238.922363 76.068512 238.273636 76.990356 L 238.632126 78.014648 C 238.324844 78.799896 238.13707 79.260834 238.068771 79.3974 C 237.795654 79.260834 237.624924 79.192566 237.556641 79.192566 C 237.078659 79.192566 236.643341 79.593719 236.250687 80.396088 C 235.858047 81.198456 235.456863 81.804474 235.047165 82.214172 C 235.047165 82.487305 235.252014 82.726318 235.661728 82.931183 C 235.388611 83.238464 235.115448 83.39209 234.8423 83.39209 C 234.569183 83.39209 234.270432 83.562805 233.94606 83.904236 C 233.621735 84.245667 233.459534 84.552979 233.459534 84.82608 C 233.459534 84.894338 233.510747 85.02238 233.613174 85.210205 C 233.715602 85.39799 233.818029 85.628448 233.920456 85.901581 C 234.022888 86.174683 234.236298 86.353943 234.560623 86.439331 C 234.884995 86.524689 235.047165 86.65274 235.047165 86.823425 C 235.047165 87.164856 234.910599 87.335571 234.637451 87.335571 C 234.569183 87.335571 234.458206 87.181915 234.30455 86.874634 C 234.150909 86.567352 233.971664 86.413696 233.766815 86.413696 C 233.630249 86.413696 233.476608 86.481995 233.305893 86.618561 C 233.135193 86.755157 232.930344 86.823425 232.691315 86.823425 C 232.452332 86.823425 232.102356 87.139252 231.641434 87.770874 C 231.180511 88.402496 230.932999 88.897583 230.898834 89.256073 C 230.8647 89.614563 230.71106 89.89624 230.437912 90.101105 C 230.164795 90.305969 229.942856 90.476654 229.772141 90.613251 L 229.464844 91.022949 C 229.259995 91.227814 229.157562 91.36441 229.157562 91.432678 L 229.362427 92.405731 C 229.362427 92.610596 229.464844 92.883698 229.669708 93.225159 C 229.191727 93.293427 228.884445 93.489777 228.747864 93.814117 C 228.611298 94.138428 228.397919 94.420105 228.107681 94.659149 C 227.81749 94.898163 227.501678 95.367584 227.160233 96.067505 C 226.818817 96.767456 226.648087 97.185669 226.648087 97.322266 L 226.648087 97.731964 Z M 417.597778 101.214539 L 418.366028 101.009644 L 418.673279 100.343872 C 420.346375 99.35376 421.54126 98.414795 422.25824 97.5271 C 422.326599 97.390503 422.480225 97.253967 422.719177 97.117432 C 422.958191 96.980835 423.214294 96.741882 423.487366 96.400391 C 424.750732 95.137085 426.25293 94.505493 427.994202 94.505493 C 430.042786 94.505493 431.135376 95.751709 431.271912 98.24408 L 431.579163 99.012329 C 431.852356 99.490295 432.23645 100.463379 432.731506 101.931519 C 433.226624 103.399658 433.47406 104.304382 433.47406 104.645813 C 433.47406 105.567688 433.183899 106.489502 432.603455 107.411377 C 432.125488 107.650391 430.98175 108.930664 429.172119 111.252441 L 428.659973 111.610901 C 428.386841 112.225464 428.028442 112.840027 427.584473 113.45459 C 426.901672 113.693604 426.560242 113.949707 426.560242 114.222839 L 426.560242 115.144653 C 426.560242 115.212952 426.483398 115.349548 426.329773 115.554382 C 426.176086 115.759216 425.962769 116.151917 425.689575 116.7323 L 425.279846 117.346863 C 425.143372 117.483459 425.006775 117.765137 424.870178 118.191895 C 424.733643 118.618652 424.537292 119.002747 424.281189 119.344177 C 424.025146 119.685669 423.897095 119.95874 423.897095 120.163635 C 423.897095 120.675781 424.562866 120.931824 425.89447 120.931824 C 425.962769 120.931824 426.218811 120.829407 426.662659 120.624573 L 427.379639 120.829407 C 427.447937 120.829407 427.618652 120.718445 427.891785 120.496521 C 428.164978 120.274597 428.583191 120.095337 429.146545 119.95874 C 429.7099 119.822205 430.204956 119.61731 430.631714 119.344177 C 431.058533 119.071106 431.570679 118.832092 432.168152 118.627197 C 432.765686 118.422363 433.337585 118.089478 433.883789 117.62854 C 434.430176 117.167603 434.967834 116.834717 435.497009 116.629883 C 436.026306 116.424988 436.521301 116.109192 436.982239 115.682434 C 437.443176 115.255676 437.798279 114.389587 438.378662 114.014038 C 438.959106 113.638489 438.736755 112.263306 440 111 C 440.819397 110.351318 440.675537 110.004883 440.982849 109.936646 C 441.051147 109.936646 441.349854 109.484253 441.879089 108.579468 C 442.384603 107.715251 442.960154 107.263774 443.605743 107.225037 C 443.728668 107.151978 443.859863 107.077393 444 107 C 445.143799 106.368408 445.496399 105.226257 446.281677 104.645813 C 447.066956 104.06543 447.852234 103.758179 448.637512 103.723999 L 448.995972 103.211853 C 450.15686 102.767944 450.942139 102.068115 451.351807 101.112061 C 451.761536 100.156067 452.32489 99.678101 453.04187 99.678101 C 454.919739 99.678101 456.35376 100.369507 457.343872 101.752258 C 458.333984 103.13501 458.829041 104.236145 458.829041 105.055542 L 458.931458 106.438293 C 458.931458 106.916321 458.829041 107.582092 458.624207 108.435669 C 458.214478 109.050232 458.009644 109.511169 458.009644 109.81842 C 458.009644 110.091553 458.180298 110.228149 458.52179 110.228149 C 458.726624 110.228149 458.999756 110.083069 459.341187 109.792847 C 459.682617 109.502563 460.066772 109.238037 460.49353 108.999023 C 460.920288 108.76001 461.167847 108.555115 461.236084 108.38446 C 461.577576 107.565002 462.174988 107.001648 463.028564 106.694397 C 463.882202 106.387085 464.411377 106.131042 464.616211 105.926208 L 465.128357 105.516479 L 465.538086 104.748291 C 466.4599 104.338562 467.074463 103.963013 467.381775 103.621582 C 467.689026 103.28009 468.098755 103.058228 468.610901 102.95575 C 469.123047 102.853333 469.70343 102.546082 470.352173 102.033936 L 471.120361 101.829102 L 471.837341 101.419373 C 471.90564 101.351074 472.110474 101.265747 472.451904 101.163269 C 472.793396 101.060852 473.296936 100.881592 473.962769 100.625549 C 474.62854 100.369507 475.080872 100.241455 475.319885 100.241455 C 477.061218 100.241455 478.435425 100.941345 479.442627 102.341187 C 480.449829 103.741089 480.95343 104.867737 480.95343 105.721313 L 480.851013 106.643188 L 481.055847 108.02594 L 481.055847 108.230774 L 480.646118 111.047546 L 480.748596 112.02063 C 480.748596 113.625305 480.407104 114.734985 479.724304 115.349548 C 479.553589 115.417786 479.468201 115.588562 479.468201 115.861633 L 479.468201 116.322571 L 480.492493 118.473572 C 480.799805 119.224731 481.038818 119.600281 481.209473 119.600281 L 482.848328 119.139343 C 483.326294 119.002747 483.718994 118.644287 484.026245 118.063843 C 484.299377 117.927246 484.777405 117.517578 485.460266 116.834717 C 485.6651 116.288452 485.989441 116.01532 486.433289 116.01532 L 486.638184 116.01532 L 487.15033 116.220154 C 487.218567 116.220154 487.286865 116.185974 487.355164 116.117737 C 487.355164 115.537354 487.628296 115.042236 488.174561 114.632507 C 488.345276 113.983826 488.72937 113.48877 489.326904 113.147339 C 489.924377 112.805908 490.871887 112.242554 492.16925 111.457275 L 493.449585 110.330566 L 493.777802 110.166473 C 493.754059 110.015991 493.77179 109.917267 493.843719 109.89328 L 494.663147 109.278717 C 494.733246 109.208618 494.819061 109.143005 494.920654 109.081909 C 495.047699 108.988983 495.172729 108.923431 495.295624 108.885254 C 495.708984 108.457184 497.958618 104.427124 498.498291 103.887482 C 499.061646 103.324127 499.514008 103.04245 499.855438 103.04245 C 500.196838 103.04245 500.470001 103.076599 500.674866 103.144867 C 500.87973 102.735168 501.289429 101.3255 501.903992 100.932831 C 502.518555 100.540161 503.01358 100.07074 503.389191 99.524445 L 504.054993 99.217163 C 504.601227 98.944031 505.087769 98.594055 505.514587 98.167297 C 505.941345 97.74054 506.496124 97.5271 507.179016 97.5271 C 508.169128 97.5271 509.201965 98.030701 510.277466 99.037903 C 511.352966 100.045135 511.890686 101.009644 511.890686 101.931519 L 511.02005 105.926178 C 510.439606 108.862488 509.790924 110.398834 509.073944 110.535431 L 508.86908 111.610901 C 508.391052 111.952362 508.1521 112.225494 508.1521 112.430328 L 508.459381 113.659485 C 508.459381 113.83017 508.271576 114.086243 507.896027 114.427673 C 507.827698 114.427673 507.793579 114.53009 507.793579 114.734955 L 507.793579 116.834717 C 507.793579 117.210266 507.554565 117.517548 507.076599 117.756561 C 507.144867 117.824829 507.247284 117.893158 507.383881 117.961426 C 507.588745 117.756561 508.049652 117.654144 508.766663 117.654144 L 509.58609 117.756561 L 510.712769 116.629883 C 510.951752 116.561615 511.284637 116.399414 511.711456 116.143341 C 512.138245 115.887268 512.86377 115.554382 513.888062 115.144653 L 520.597046 110.023285 C 521.518921 109.10144 522.218811 108.640503 522.696838 108.640503 C 523.208984 108.640503 523.465027 108.964844 523.465027 109.613586 C 523.465027 110.080719 523.408875 110.498352 523.296631 110.866425 C 523.405457 110.603516 523.616577 110.330994 523.930054 110.048889 C 524.442139 109.587982 524.851868 109.1185 525.15918 108.640503 C 525.466431 108.162537 526.046875 107.633301 526.900452 107.052887 L 528.436829 105.516479 C 529.631897 104.321503 530.92926 103.365479 532.329102 102.648499 C 532.533936 102.580231 532.952209 102.23877 533.583862 101.624207 C 534.215515 101.009644 534.932495 100.557281 535.734802 100.267059 C 536.53717 99.976807 537.322449 99.609833 538.090637 99.165955 C 538.858887 98.722076 539.464905 98.500183 539.908752 98.500183 L 540.318481 98.500183 C 540.455017 98.500183 541.359863 98.073425 543.032776 97.219849 L 543.340088 97.219849 C 543.476685 97.219849 543.800964 97.356415 544.31311 97.629547 L 544.415527 97.629547 L 545.234985 97.219849 C 545.371582 97.15155 545.542236 97.117401 545.747131 97.117401 C 547.864014 97.117401 549.02478 98.58548 549.229675 101.52179 C 549.297974 102.136353 549.468689 102.443634 549.741821 102.443634 C 550.083252 102.443634 550.569763 101.820526 551.201416 100.574341 C 551.833069 99.328156 553.173096 98.705017 555.22168 98.705017 C 556.689819 98.705017 557.423889 99.643921 557.423889 101.52179 C 557.423889 103.741089 556.433777 105.84082 554.453491 107.821106 C 554.316956 108.094208 554.214539 108.401489 554.146179 108.74295 L 553.429199 110.842712 L 553.429199 110.945129 C 553.429199 111.149994 553.284119 111.431671 552.993896 111.790161 C 552.703674 112.148651 552.558533 112.464508 552.558533 112.73761 L 552.661011 114.017975 L 552.456116 115.451965 C 552.456116 116.100677 552.575684 116.527435 552.814636 116.7323 C 553.907227 116.459167 554.70105 116.006744 555.196045 115.375122 C 555.691162 114.74353 556.041077 114.393524 556.245972 114.325256 L 556.758118 114.120392 C 557.065369 113.608246 557.423889 113.181488 557.833557 112.840057 L 558.653015 112.123047 C 559.165161 112.123047 559.472412 111.892578 559.574829 111.431671 C 559.677307 110.970734 560.044312 110.603699 560.675964 110.330566 C 561.307617 110.057434 561.896606 109.502594 562.44281 108.666107 C 562.989136 107.829651 563.55249 107.411377 564.132874 107.411377 C 564.337708 107.411377 564.576782 107.582062 564.849854 107.923523 C 565.123047 108.264954 565.259583 108.538086 565.259583 108.74295 C 565.259583 109.869629 564.918213 111.030518 564.235291 112.225494 L 564.030457 113.659485 L 563.671936 114.325256 C 563.15979 114.598358 562.826904 114.888611 562.673279 115.195892 C 562.519653 115.503174 562.118469 115.878723 561.469788 116.322571 L 560.957642 117.039581 C 560.206543 117.278595 559.702881 117.671204 559.446838 118.217499 C 559.190735 118.763794 558.832275 119.071075 558.371338 119.139343 C 557.9104 119.207611 557.406799 119.549072 556.860535 120.163635 C 556.519104 120.33432 556.109436 120.487946 555.631409 120.624542 L 555.528931 121.136688 C 555.187561 121.478149 554.649841 121.751251 553.91571 121.956116 C 553.181702 122.16095 552.635376 122.357269 552.276855 122.545074 C 551.918396 122.73288 551.670898 122.826752 551.534302 122.826752 C 550.88562 122.826752 550.288086 122.6987 549.741821 122.442627 C 549.195557 122.186584 548.632202 122.024384 548.051758 121.956116 C 547.846863 121.751251 547.727417 121.529358 547.693237 121.290344 C 547.659119 121.0513 547.488403 120.735535 547.181091 120.342865 C 546.87384 119.950226 546.720154 119.412476 546.720154 118.729645 L 546.925049 117.756561 C 546.925049 117.619995 546.839722 117.44928 546.668945 117.244446 C 546.498291 117.039581 546.412903 116.868896 546.412903 116.7323 C 546.412903 116.595703 546.447083 116.493286 546.51532 116.425018 C 546.583679 116.35675 546.617737 116.254333 546.617737 116.117737 C 546.617737 115.947052 546.583679 115.759247 546.51532 115.554382 C 546.447083 115.349518 546.412903 115.178833 546.412903 115.042236 L 546.720154 112.532776 C 546.720154 112.327911 546.651917 112.225494 546.51532 112.225494 C 546.378784 112.225494 546.131226 112.396179 545.772705 112.73761 C 545.414246 113.079071 544.996033 113.249756 544.518005 113.249756 C 544.244873 113.45462 544.022949 113.881378 543.852234 114.53009 C 543.579102 114.871552 543.23761 115.178833 542.827942 115.451965 L 542.623047 115.759247 C 542.55481 115.99826 542.298767 116.19455 541.854858 116.348206 C 541.411072 116.501831 541.10376 116.69812 540.933044 116.937164 L 540.420898 117.44928 L 539.447815 117.346863 C 539.379578 117.415131 539.191772 117.713928 538.88446 118.243103 C 538.577209 118.772278 538.18457 119.207611 537.706543 119.549072 L 533.81427 122.724304 C 533.404602 122.997437 532.807129 123.338867 532.02179 123.748596 L 531.714539 124.055878 C 528.983093 125.865479 527.054077 126.770203 525.927368 126.770203 C 525.005493 126.770203 523.930054 126.51413 522.700867 126.001999 C 521.471741 125.489868 520.805969 124.875305 520.703552 124.158295 L 520.191406 122.058533 C 519.884155 121.580566 519.730469 120.914795 519.730469 120.061188 C 519.730469 119.651489 519.764648 119.378357 519.832947 119.24176 L 519.832947 118.934509 L 519.730469 117.244446 C 519.730469 116.834717 520.054871 116.629883 520.703552 116.629883 L 520.626221 115.585815 C 520.616333 115.600891 520.606628 115.616028 520.597046 115.631195 C 520.392212 115.955536 519.837341 116.425018 518.932617 117.039581 C 518.027832 117.654144 517.259583 118.277283 516.627991 118.908875 C 515.996338 119.540497 515.475708 119.99292 515.065979 120.266052 L 512.86377 121.853668 L 512.556519 122.365814 C 512.488159 122.434082 512.172363 122.579224 511.609009 122.801147 C 511.045685 123.023041 510.542023 123.304718 510.098206 123.646179 L 509.176361 124.158295 C 508.971497 124.294891 508.638611 124.380219 508.177704 124.414368 C 507.716766 124.448547 507.315552 124.644836 506.974182 125.003326 C 506.632721 125.361832 506.359619 125.541077 506.154755 125.541077 L 505.386536 125.438644 L 504.362274 125.745926 C 503.781799 125.745926 503.073364 125.395996 502.236877 124.696045 C 501.40036 123.996094 500.982147 123.25351 500.982147 122.468262 L 500.982147 122.16095 L 501.084595 121.44397 C 501.084595 121.307373 500.982147 120.957428 500.777313 120.394073 C 500.572449 119.83075 500.470001 119.514893 500.470001 119.446625 L 500.572449 118.729645 L 500.470001 118.422363 C 500.470001 117.500488 500.538269 116.920105 500.674866 116.681091 C 500.811401 116.442078 500.913818 116.109192 500.982147 115.682404 C 501.050415 115.255646 501.118683 114.90564 501.187012 114.632538 L 501.443085 113.352173 C 501.57962 112.942474 501.750366 112.669342 501.955231 112.532776 C 502.023468 112.259644 502.160065 111.798706 502.364929 111.149994 L 502.569794 110.228149 L 503.081909 109.511139 C 503.355042 109.238037 503.517242 108.870972 503.568451 108.410034 C 503.619659 107.949127 503.79892 107.462585 504.106201 106.95047 C 504.413483 106.438324 504.567108 106.131042 504.567108 106.028595 C 504.567108 105.618896 504.362274 105.414032 503.952545 105.414032 C 503.815979 105.414032 503.389191 105.687164 502.672211 106.233459 L 501.750366 105.926178 C 501.682037 105.926178 501.494293 106.096863 501.187012 106.438324 C 501.187012 106.574921 499.016327 111.71994 498.709045 111.788208 C 498.401764 111.856445 498.111542 112.112518 497.838409 112.556396 L 497.428711 112.658813 L 496.762909 112.351563 L 496.558075 112.351563 C 496.216614 112.351563 496.01178 112.727081 495.943512 113.478241 C 495.887177 113.560181 495.788971 113.540741 495.66449 113.447906 C 495.593079 113.555654 495.512024 113.660319 495.421326 113.761902 C 494.994568 114.239868 494.33728 114.939819 493.449585 115.861633 L 490.837708 118.627197 L 489.454895 119.344177 C 489.113464 119.549072 488.806213 119.788086 488.533081 120.061218 L 486.535767 121.751282 C 486.535767 122.229248 486.38208 122.587708 486.074829 122.826721 L 485.255371 122.826721 L 484.845703 123.031616 C 484.606689 123.680298 483.906799 124.311951 482.745911 124.926514 L 482.028931 125.43866 C 481.789917 125.643494 481.567993 125.745911 481.363159 125.745911 L 479.929138 125.541077 L 478.956116 125.745911 C 478.682983 125.745911 478.315918 125.609314 477.85498 125.336243 C 477.394043 125.06311 476.924561 124.84967 476.446594 124.696045 C 475.968628 124.542419 475.362549 123.910767 474.62854 122.801147 C 473.89447 121.691467 473.493286 120.966003 473.424988 120.624573 C 473.424988 120.487976 473.348206 120.257507 473.194519 119.933167 C 473.040894 119.608826 472.96405 119.412476 472.96405 119.344177 C 472.96405 119.27594 473.117737 118.934509 473.424988 118.319946 L 473.424988 118.217529 C 473.424988 118.115051 473.331116 117.876038 473.143311 117.500488 C 472.955505 117.124939 472.861633 116.664063 472.861633 116.117737 C 472.861633 115.810425 472.759216 115.417786 472.554382 114.939819 C 472.827454 114.666687 472.96405 114.461853 472.96405 114.325256 C 472.96405 114.18866 472.912842 113.992371 472.810425 113.736267 C 472.708008 113.480225 472.656799 113.283936 472.656799 113.147339 L 472.96405 110.637878 L 472.759216 109.357483 L 472.861633 108.128357 C 472.861633 107.411377 472.554382 107.052856 471.939819 107.052856 C 471.666687 107.052856 471.325256 107.240662 470.915527 107.616211 L 470.557007 107.718689 C 469.635193 108.162537 468.98645 108.529541 468.610901 108.819763 C 468.235352 109.109985 467.842712 109.255066 467.432983 109.255066 C 467.228149 109.459961 466.835449 109.647766 466.255066 109.81842 L 465.845337 110.125732 C 465.70874 110.262329 465.435669 110.467163 465.02594 110.740295 C 465.02594 110.842712 464.385742 111.414612 463.105408 112.455933 C 461.825073 113.497253 460.672729 114.478882 459.648499 115.400757 C 458.624207 116.322571 457.881592 116.826172 457.420654 116.91156 C 456.959778 116.996948 456.729309 117.432251 456.729309 118.217529 C 456.729309 118.354065 456.421997 118.627197 455.807434 119.036926 C 455.739197 119.036926 455.380676 119.412476 454.731934 120.163635 C 454.185669 119.753906 453.878357 119.549072 453.81012 119.549072 C 453.366211 119.549072 453.04187 120.112427 452.837036 121.239136 C 452.632202 121.682983 452.085876 121.956116 451.198181 122.058533 C 451.129944 122.092712 451.010376 122.348755 450.839722 122.826721 L 450.634827 123.031616 L 450.122681 123.031616 C 450.054443 123.031616 449.81543 123.227905 449.405701 123.620544 C 448.995972 124.013245 448.637512 124.260742 448.3302 124.363159 C 447.886353 125.285034 447.510803 125.745911 447.203491 125.745911 C 447.066956 125.745911 446.870605 125.677673 446.614563 125.541077 C 446.358459 125.40448 446.042664 125.285034 445.667114 125.182556 C 445.291565 125.080139 444.873291 124.661865 444.412354 123.927856 C 443.951416 123.193787 443.720947 122.570679 443.720947 122.058533 C 443.720947 118.268738 444.455017 116.203125 445.923157 115.861633 L 446.025574 115.656799 L 446.025574 115.24707 C 446.025574 114.803223 446.221924 114.487427 446.614563 114.299622 C 447.007202 114.111816 447.408386 113.736267 447.818054 113.172913 C 448.227783 112.609558 448.500916 112.293762 448.637512 112.225464 L 449.303284 112.225464 C 449.43988 112.225464 449.508118 111.867004 449.508118 111.149963 C 449.508118 110.945129 449.593506 110.757324 449.764221 110.586609 C 449.934875 110.415955 450.037354 110.168396 450.071472 109.844055 C 450.105652 109.519714 450.353149 108.990479 450.814087 108.256409 C 451.275024 107.522339 451.505493 107.087036 451.505493 106.950439 L 451.403076 106.745605 C 450.549438 107.530884 449.934875 107.957703 449.559326 108.02594 C 449.183777 108.094238 448.671692 108.589294 448.022949 109.511169 L 447.203491 109.357483 C 445.769531 110.415955 444.881836 111.013428 444.540405 111.149963 C 444.452393 111.185181 444.362091 111.237427 444.269531 111.306671 C 444.217224 111.373606 444.15446 111.446126 444.081238 111.524231 C 443.825195 111.797363 443.645935 112.147339 443.543518 112.574158 C 443.441101 113.000916 443.116821 113.282593 442.570435 113.419128 C 442.472168 113.779663 441.227783 116.063232 441.227783 116.063232 C 441.227783 116.063232 440.417786 117.086548 439.567627 118.156372 C 438.682617 119.269897 437.905823 120.485718 437.801636 120.598938 C 437.409058 121.025696 437.144409 121.239136 437.007813 121.239136 C 436.939575 121.239136 436.802979 121.170837 436.598145 121.034241 C 436.39325 120.897644 436.256775 120.829407 436.188416 120.829407 C 435.983582 120.829407 435.847046 121.06842 435.778687 121.546387 L 435.573853 122.058533 C 435.130066 122.331665 434.873962 122.468262 434.805664 122.468262 L 434.498352 122.365845 L 434.293518 122.365845 C 433.883789 122.365845 433.678955 122.51947 433.678955 122.826721 L 433.986206 123.338867 L 433.986206 123.441284 C 433.986206 123.919312 433.713196 124.158325 433.166809 124.158325 C 432.79126 124.158325 431.69873 124.789917 429.889099 126.053223 L 428.403931 126.360474 L 427.174805 127.026306 C 426.765076 126.787231 426.509033 126.667786 426.406555 126.667786 L 425.587158 126.923828 L 424.101929 127.026306 C 424.067871 127.026306 423.444824 126.684814 422.232666 126.002014 C 421.02063 125.319153 420.295105 124.636292 420.056091 123.95343 C 419.817078 123.27063 419.509827 122.579224 419.134216 121.879272 C 418.758667 121.179321 418.570862 120.69281 418.570862 120.419678 C 418.570862 118.780823 418.707458 117.611511 418.980591 116.91156 C 419.253784 116.211609 419.424438 115.690979 419.492737 115.349548 C 419.561035 115.008057 419.757324 114.641113 420.081665 114.248413 C 420.406067 113.855774 420.670654 113.215576 420.875488 112.327881 C 421.865662 110.347595 422.548462 109.13562 422.924011 108.691711 C 423.299622 108.247864 423.589844 107.701599 423.794678 107.052856 L 424.460449 106.131042 C 424.528809 106.062744 424.631226 105.798157 424.767761 105.337219 C 424.904297 104.876282 425.075012 104.611694 425.279846 104.543396 C 425.55304 104.06543 425.689575 103.758179 425.689575 103.621582 C 425.689575 102.63147 425.245789 102.136353 424.358032 102.136353 C 424.187317 102.136353 423.999512 102.315613 423.794678 102.674072 C 423.589844 103.032593 423.120422 103.382568 422.386292 103.723999 C 421.652222 104.06543 421.19989 104.321472 421.029114 104.492188 C 420.858459 104.662903 420.491394 104.876282 419.92804 105.132385 C 419.364685 105.388428 418.878174 105.789612 418.468445 106.335876 L 417.597778 106.745605 C 417.324707 107.394348 417.085632 107.752808 416.880798 107.821106 C 416.675964 107.889343 416.044373 108.06012 414.985901 108.333252 C 414.917603 108.367371 414.746948 108.572266 414.473755 108.947815 C 414.200623 109.323364 413.807983 109.511169 413.295837 109.511169 C 412.886108 109.920837 412.47644 110.398804 412.066711 110.945129 C 411.930176 110.945129 411.571655 111.081726 410.991211 111.354858 L 409.966919 111.610901 C 409.693848 111.815796 409.395081 112.140076 409.070679 112.583984 C 408.746338 113.027832 408.140381 113.249756 407.252625 113.249756 C 406.740479 113.249756 406.484375 112.840027 406.484375 112.02063 C 406.484375 110.347595 407.073364 109.016052 408.251282 108.02594 C 409.429199 107.035828 410.291321 106.506592 410.837585 106.438293 C 411.383911 106.370056 411.725342 106.165222 411.861877 105.82373 C 411.998413 105.4823 412.33136 105.200623 412.860535 104.978699 C 413.389771 104.756836 414.004333 104.261719 414.704224 103.49353 C 415.404236 102.725342 416.163818 102.204651 416.983215 101.931519 L 417.597778 101.214539 Z M 385.124176 123.23645 L 384.919312 122.058533 L 384.407166 120.419678 L 384.61203 118.52478 L 384.816895 117.859009 C 384.816895 117.722412 384.697357 117.517548 384.458405 117.244446 C 384.219421 116.971313 384.099884 116.800568 384.099884 116.7323 C 384.099884 116.390839 384.279144 116.109192 384.637634 115.887268 C 384.996124 115.665375 385.226593 115.451965 385.329041 115.247101 C 385.329041 114.803223 385.516785 114.137451 385.892365 113.249756 L 386.81424 110.945129 C 387.360474 110.398834 387.804413 109.920868 388.145782 109.511139 L 388.709137 108.845367 C 389.426147 108.264954 389.767517 107.701599 389.733429 107.155304 L 390.347992 106.540741 C 390.928436 106.540741 391.406372 106.318848 391.781982 105.874969 C 392.157593 105.431091 392.379425 105.209198 392.447754 105.209198 L 393.113525 105.209198 C 393.31839 105.038483 393.523254 104.74826 393.728088 104.338562 C 393.932953 103.928833 394.137817 103.723999 394.342651 103.723999 C 394.41098 103.723999 394.803589 103.894684 395.520569 104.236115 C 397.705719 103.450867 398.917816 102.819183 399.156769 102.341217 C 399.839661 102.068085 400.232239 101.931519 400.334686 101.931519 C 400.53952 101.931519 400.641968 102.033936 400.641968 102.23877 C 400.641968 102.375366 400.240753 102.77652 399.438446 103.442322 C 398.636139 104.108093 398.234924 104.833649 398.234924 105.618896 C 398.234924 106.813873 398.601898 107.616241 399.335999 108.02594 C 400.070129 108.435669 400.437103 108.999023 400.437103 109.716003 C 400.437103 110.19397 400.334686 110.859772 400.129822 111.713348 L 399.156769 113.557037 C 399.156769 113.932587 399.08844 114.18866 398.951904 114.325256 L 398.542206 114.939819 C 398.40567 115.417786 398.149597 115.80188 397.773987 116.092133 C 397.398376 116.382355 397.065491 116.809113 396.77533 117.372467 C 396.485138 117.935822 395.98999 118.388184 395.290131 118.729645 C 394.59024 119.071075 394.240234 119.63443 394.240234 120.419678 L 394.03537 120.522125 L 393.31839 120.522125 C 393.250061 120.522125 393.087921 120.778198 392.831848 121.290344 C 392.575775 121.80246 392.26001 122.058533 391.884399 122.058533 C 391.508789 122.058533 391.00528 122.323151 390.373596 122.852356 C 389.741913 123.381531 388.896942 123.646179 387.838501 123.646179 C 387.497131 123.646179 386.984985 123.577911 386.302094 123.441315 L 386.046021 123.338867 L 385.226593 123.338867 L 385.124176 123.23645 Z M 285.701752 112.840057 C 285.838318 112.088898 286.256561 111.517029 286.956482 111.12439 C 287.656403 110.73172 288.074646 110.330566 288.211243 109.920868 C 288.859924 109.442871 289.790314 108.589294 291.00238 107.360168 C 292.214447 106.131042 292.820465 105.379883 292.820465 105.10675 C 292.820465 105.004333 292.752197 104.953125 292.615631 104.953125 L 292.513184 104.953125 L 292.103485 105.209198 L 291.181641 105.10675 L 290.208557 105.209198 L 289.491577 104.850677 L 288.825806 104.953125 L 287.801514 104.74826 C 287.255219 104.74826 286.785767 104.859253 286.393127 105.081146 C 286.000488 105.30307 285.249359 105.550629 284.13974 105.823761 C 283.03009 106.096863 282.031403 106.566345 281.143738 107.232117 C 280.255981 107.897919 279.6073 108.230804 279.197601 108.230804 C 278.958588 108.74295 278.15625 109.47699 276.790558 110.432983 C 275.97113 110.706116 275.441925 111.303619 275.202911 112.225494 C 274.315186 112.942474 273.871368 113.352173 273.871368 113.45462 L 273.512878 114.325256 C 273.239716 114.56427 272.898315 114.760559 272.488586 114.914215 C 272.078888 115.067841 271.839874 115.426331 271.771606 115.989685 C 271.703308 116.55304 271.472839 117.065186 271.0802 117.526123 C 270.687561 117.98703 270.491241 118.354095 270.491241 118.627197 C 270.491241 120.300232 270.815582 121.136688 271.464325 121.136688 C 271.737427 121.136688 272.309326 120.957428 273.179962 120.598938 C 274.050598 120.240448 274.554199 119.99292 274.690796 119.856354 C 274.827332 119.719757 275.100494 119.583221 275.510193 119.446625 L 276.483276 118.934509 C 276.619843 118.797913 276.773468 118.712585 276.944183 118.678436 C 277.114899 118.644257 277.285614 118.533325 277.456329 118.34552 C 277.627014 118.157715 277.934296 117.952881 278.378174 117.730957 C 278.822021 117.509064 279.163452 117.210266 279.402466 116.834717 C 279.982849 116.493286 280.921753 115.964081 282.219208 115.247101 L 283.294708 114.427673 C 284.045837 114.086243 284.506744 113.796051 284.67749 113.557037 C 284.848175 113.318024 285.189606 113.079071 285.701752 112.840057 Z M 540.830566 112.840057 C 540.967163 112.088898 541.385437 111.517029 542.085327 111.12439 C 542.785278 110.73172 543.203552 110.330566 543.340088 109.920868 C 543.98877 109.442871 544.919189 108.589294 546.131226 107.360168 C 547.343323 106.131042 547.949341 105.379883 547.949341 105.10675 C 547.949341 105.004333 547.881042 104.953125 547.744446 104.953125 L 547.642029 104.953125 L 547.2323 105.209198 L 546.310486 105.10675 L 545.337402 105.209198 L 544.620422 104.850677 L 543.954651 104.953125 L 542.930359 104.74826 C 542.384094 104.74826 541.914612 104.859253 541.521973 105.081146 C 541.129395 105.30307 540.378235 105.550629 539.268555 105.823761 C 538.158997 106.096863 537.160278 106.566345 536.272583 107.232117 C 535.384888 107.897919 534.736145 108.230804 534.326416 108.230804 C 534.087463 108.74295 533.285095 109.47699 531.919373 110.432983 C 531.099976 110.706116 530.570801 111.303619 530.331726 112.225494 C 529.444092 112.942474 529.000183 113.352173 529.000183 113.45462 L 528.641724 114.325256 C 528.368591 114.56427 528.027161 114.760559 527.617432 114.914215 C 527.207703 115.067841 526.96875 115.426331 526.900452 115.989685 C 526.832174 116.55304 526.601705 117.065186 526.209045 117.526123 C 525.816467 117.98703 525.620056 118.354095 525.620056 118.627197 C 525.620056 120.300232 525.944458 121.136688 526.59314 121.136688 C 526.866333 121.136688 527.438171 120.957428 528.308838 120.598938 C 529.179443 120.240448 529.683105 119.99292 529.819641 119.856354 C 529.956177 119.719757 530.229309 119.583221 530.639038 119.446625 L 531.612122 118.934509 C 531.748718 118.797913 531.902344 118.712585 532.072998 118.678436 C 532.243774 118.644257 532.41449 118.533325 532.585144 118.34552 C 532.75592 118.157715 533.063171 117.952881 533.507019 117.730957 C 533.950867 117.509064 534.292358 117.210266 534.531311 116.834717 C 535.111755 116.493286 536.050659 115.964081 537.348022 115.247101 L 538.423523 114.427673 C 539.174683 114.086243 539.63562 113.796051 539.806335 113.557037 C 539.977051 113.318024 540.318481 113.079071 540.830566 112.840057 Z M 523.029724 111.48288 C 522.958984 111.603516 522.889832 111.730225 522.822144 111.863007 L 523.213013 111.354858 C 523.204163 111.248444 523.213745 111.14032 523.241699 111.030457 C 523.182739 111.191559 523.112061 111.342377 523.029724 111.48288 Z M 320.992157 99.729309 L 319.916656 100.343872 C 319.506958 101.265717 319.08017 101.726654 318.636322 101.726654 C 318.499786 101.726654 318.397339 101.692474 318.329041 101.624207 C 318.70462 101.282776 319.088715 100.488953 319.481323 99.242767 C 319.873993 97.996582 320.411743 96.818665 321.094574 95.709015 C 321.777466 94.599365 322.204224 93.771454 322.374908 93.225159 C 322.545685 92.678833 322.724915 92.311859 322.912659 92.124054 C 323.100464 91.936249 323.194336 91.774109 323.194336 91.637512 L 323.04071 90.920532 C 323.04071 90.6474 323.262634 90.374237 323.706482 90.101105 L 324.423462 90.203552 C 324.628326 90.066956 324.858795 89.597534 325.114868 88.795166 C 325.370941 87.992798 325.652618 87.412384 325.9599 87.053894 C 326.267181 86.695374 326.472015 86.379547 326.574463 86.106445 C 326.67688 85.833313 326.830536 85.602844 327.03537 85.415039 C 327.240234 85.227234 327.342651 85.030945 327.342651 84.82608 C 327.342651 84.757813 327.274384 84.450531 327.137817 83.904236 L 327.906006 84.006653 L 328.418152 83.39209 C 328.588898 83.221405 329.527802 81.958099 331.234924 79.602264 C 331.74704 78.612152 332.293365 77.912231 332.873749 77.502502 C 333.454224 77.092804 333.778564 76.700134 333.846802 76.324585 L 334.205322 75.710022 C 334.888214 75.197876 335.306396 74.574768 335.460052 73.840698 C 335.613678 73.106689 336.202637 72.620148 337.226929 72.381134 C 337.500122 71.254425 337.781799 70.639862 338.07196 70.537415 C 338.362183 70.434998 338.67804 70.264313 339.019409 70.025269 C 339.292603 70.025269 339.429138 70.417938 339.429138 71.203217 L 339.019409 72.89325 C 339.019409 73.439575 338.874329 73.857758 338.584106 74.14801 C 338.293915 74.438232 338.148773 74.68573 338.148773 74.890594 L 337.329346 76.785522 C 336.305084 78.526794 335.707611 79.602264 335.536865 80.011993 L 335.434448 80.524109 C 335.36618 80.660706 335.332031 80.950867 335.332031 81.394775 L 334.512604 81.497192 C 334.376068 82.111755 334.128479 82.538513 333.769989 82.777527 C 333.411499 83.016541 333.129822 83.349426 332.924957 83.776184 C 332.720123 84.202972 332.387207 84.663879 331.9263 85.158966 C 331.465363 85.654053 331.234924 85.93573 331.234924 86.003998 L 331.234924 86.823425 L 331.03006 87.130707 C 330.620331 87.540405 330.347229 88.001343 330.210632 88.513489 L 329.800934 88.615906 C 329.561981 88.615906 329.203461 89.110992 328.725433 90.101105 C 327.496307 90.681519 326.728088 91.415619 326.420807 92.303284 L 326.011108 93.225159 C 325.089264 94.147003 324.628326 94.710358 324.628326 94.915222 C 324.628326 95.324921 324.577118 95.649261 324.47467 95.888275 C 324.372253 96.127289 324.321045 96.366241 324.321045 96.605255 L 323.911346 96.605255 C 323.604065 96.605255 323.07486 96.98938 322.3237 97.757568 C 321.572571 98.525787 321.128723 99.183014 320.992157 99.729309 Z M 350.034515 82.726318 L 349.727234 80.728973 L 349.727234 80.421692 C 349.727234 78.816956 350.273529 77.92926 351.366058 77.758575 C 351.605103 77.724426 352.322083 77.502502 353.517059 77.092804 C 354.131622 77.22937 354.77179 77.76712 355.437561 78.706024 C 356.103363 79.644928 356.436249 80.4729 356.436249 81.189911 C 356.436249 81.258179 356.38504 81.411804 356.282593 81.650818 C 356.180176 81.889832 356.111908 82.342224 356.077759 83.007996 C 356.043579 83.673767 355.710693 84.254181 355.079071 84.749268 C 354.447449 85.244354 353.773132 85.491852 353.056122 85.491852 C 352.578156 85.491852 351.972076 85.158966 351.238037 84.493195 C 350.503998 83.827423 350.102783 83.238464 350.034515 82.726318 Z M 513.478333 82.726318 L 513.171082 80.728973 L 513.171082 80.421692 C 513.171082 78.816956 513.717285 77.92926 514.809875 77.758575 C 515.048889 77.724426 515.765869 77.502502 516.960876 77.092804 C 517.575439 77.22937 518.215637 77.76712 518.881409 78.706024 C 519.54718 79.644928 519.880066 80.4729 519.880066 81.189911 C 519.880066 81.258179 519.828857 81.411804 519.72644 81.650818 C 519.624023 81.889832 519.555664 82.342224 519.521545 83.007996 C 519.487427 83.673767 519.154541 84.254181 518.522888 84.749268 C 517.891235 85.244354 517.21698 85.491852 516.499939 85.491852 C 516.021912 85.491852 515.415894 85.158966 514.681885 84.493195 C 513.947754 83.827423 513.546631 83.238464 513.478333 82.726318 Z"/>
    </g>
</svg>
